<svg width="375" height="367" viewBox="0 0 375 367" fill="none" xmlns="http://www.w3.org/2000/svg">
<g opacity="0.5">
<path fill-rule="evenodd" clip-rule="evenodd" d="M233.569 25.7999C236.625 27.5064 241.069 29.947 244.969 29.4699C245.451 29.3876 245.907 29.1981 246.301 28.9159C246.696 28.6337 247.019 28.2665 247.246 27.8425C247.472 27.4186 247.596 26.9493 247.608 26.471C247.62 25.9927 247.519 25.5182 247.313 25.0842C246.226 22.8497 244.59 20.914 242.55 19.4508V18.992C246.3 17.836 251.419 15.8909 249.732 12.4227C249.283 11.4318 248.494 10.6265 247.5 10.1473C243.375 8.18386 237.75 9.63351 233.625 10.6978C230.063 11.6337 226.725 12.1108 225.582 14.9367C223.388 20.0563 228.188 22.7905 233.569 25.7999ZM247.894 11.8539C251.082 14.7348 245.719 16.6432 243.713 17.3589C243.395 17.4642 243.069 17.544 242.738 17.5974C242.808 16.3736 242.5 15.1575 241.855 14.1071C241.21 13.0567 240.256 12.2204 239.119 11.7071C238.059 11.5077 236.989 11.3668 235.913 11.285C239.157 10.6428 245.457 9.63351 247.894 11.8539ZM236.55 24.9374C237.83 24.951 239.077 24.5471 240.096 23.7894C241.115 23.0318 241.846 21.9636 242.175 20.7536C243.815 21.9553 245.155 23.5049 246.094 25.2861C246.6 26.277 246.375 28.2404 244.913 28.2955C240.864 28.1332 236.953 26.8126 233.663 24.497C234.612 24.7199 235.577 24.8672 236.55 24.9374ZM198.038 94.5573C199.346 94.9322 200.604 95.4557 201.788 96.1171C201.822 96.1484 201.863 96.1728 201.907 96.1888C201.951 96.2048 201.998 96.2122 202.045 96.2105C202.092 96.2088 202.138 96.198 202.181 96.1789C202.224 96.1597 202.262 96.1324 202.294 96.0987C202.326 96.065 202.351 96.0254 202.368 95.9822C202.384 95.9391 202.391 95.8932 202.39 95.8472C202.388 95.8012 202.377 95.7559 202.357 95.7141C202.338 95.6722 202.31 95.6346 202.275 95.6032C201.532 94.486 200.46 93.6158 199.2 93.1077C198.134 92.6493 196.981 92.4126 195.816 92.4126C194.651 92.4126 193.499 92.6493 192.432 93.1077L191.944 93.3829C190.313 94.6307 194.625 93.5847 198.038 94.5573ZM155.925 146.653C157.155 145.824 158.008 144.561 158.307 143.13C158.319 142.863 158.242 142.6 158.086 142.381C157.93 142.162 157.704 141.999 157.444 141.919C156.3 141.68 154.669 143.038 154.2 144.745C153.9 145.901 154.5 147.607 155.925 146.653ZM143.663 165.388C144.991 164.716 146 163.564 146.475 162.177C146.522 161.915 146.479 161.646 146.354 161.411C146.228 161.176 146.027 160.987 145.782 160.874C144.675 160.489 142.875 161.627 142.2 163.278C141.732 164.397 142.107 166.177 143.663 165.388ZM232.294 153.259C232.105 153.115 231.866 153.051 231.628 153.08C231.391 153.11 231.175 153.23 231.029 153.415C230.882 153.6 230.816 153.834 230.846 154.067C230.876 154.299 230.999 154.51 231.188 154.654C231.715 155.073 232.295 155.424 232.913 155.699C233.023 155.743 233.14 155.765 233.258 155.764C233.376 155.763 233.493 155.739 233.602 155.694C233.711 155.649 233.809 155.583 233.892 155.501C233.975 155.418 234.041 155.32 234.085 155.213C234.129 155.106 234.151 154.991 234.15 154.876C234.149 154.76 234.125 154.646 234.079 154.539C234.033 154.433 233.966 154.336 233.882 154.255C233.797 154.174 233.698 154.11 233.588 154.066C233.124 153.851 232.689 153.58 232.294 153.259ZM225.957 146.286C225.851 146.337 225.757 146.407 225.679 146.494C225.602 146.581 225.543 146.682 225.507 146.792C225.47 146.901 225.456 147.017 225.466 147.132C225.475 147.246 225.508 147.358 225.563 147.46C225.844 148.029 226.144 148.543 226.425 149.038C226.555 149.213 226.747 149.335 226.963 149.381C227.179 149.427 227.405 149.394 227.597 149.287C227.789 149.18 227.935 149.008 228.006 148.803C228.077 148.598 228.068 148.375 227.982 148.176C227.7 147.699 227.419 147.203 227.157 146.671C227.048 146.466 226.862 146.31 226.637 146.238C226.413 146.166 226.168 146.183 225.957 146.286ZM222.975 140.763C223.058 140.963 223.212 141.126 223.41 141.222C223.607 141.318 223.834 141.34 224.046 141.283C224.259 141.227 224.443 141.096 224.564 140.915C224.684 140.735 224.733 140.517 224.7 140.304C224.532 139.753 224.382 139.203 224.25 138.634C224.229 138.515 224.182 138.403 224.114 138.302C224.046 138.202 223.957 138.116 223.854 138.051C223.751 137.985 223.635 137.941 223.514 137.921C223.392 137.902 223.268 137.906 223.149 137.935C223.029 137.964 222.917 138.017 222.819 138.09C222.721 138.163 222.64 138.254 222.58 138.359C222.519 138.465 222.482 138.581 222.469 138.7C222.457 138.82 222.47 138.941 222.507 139.056C222.657 139.643 222.807 140.212 222.975 140.763ZM220.069 129.349C219.834 129.372 219.617 129.485 219.466 129.664C219.315 129.843 219.242 130.072 219.263 130.303C219.263 130.725 219.413 131.643 219.469 132.138C219.481 132.253 219.516 132.365 219.573 132.467C219.629 132.568 219.706 132.658 219.799 132.73C219.892 132.802 219.998 132.855 220.112 132.885C220.226 132.916 220.346 132.924 220.463 132.909C220.695 132.877 220.906 132.757 221.049 132.576C221.193 132.394 221.258 132.164 221.232 131.936C221.232 131.496 221.082 130.67 221.044 130.23C221.042 130.108 221.015 129.989 220.964 129.878C220.913 129.767 220.84 129.668 220.749 129.586C220.658 129.503 220.551 129.44 220.434 129.399C220.317 129.359 220.193 129.341 220.069 129.349ZM220.894 123.679C221.063 123.147 221.232 122.651 221.419 122.137C221.461 122.035 221.482 121.926 221.48 121.815C221.479 121.705 221.454 121.596 221.409 121.495C221.363 121.394 221.298 121.303 221.216 121.228C221.134 121.152 221.037 121.093 220.932 121.055C220.72 120.976 220.486 120.983 220.279 121.072C220.072 121.161 219.909 121.326 219.825 121.532C219.6 122.082 219.413 122.633 219.244 123.202C219.198 123.41 219.234 123.628 219.344 123.812C219.455 123.995 219.633 124.131 219.842 124.191C220.052 124.252 220.276 124.233 220.471 124.137C220.666 124.042 220.818 123.878 220.894 123.679ZM205.5 104.595C205.709 104.681 205.945 104.683 206.155 104.6C206.366 104.518 206.535 104.358 206.625 104.154C206.85 103.659 207.075 103.163 207.338 102.686C207.444 102.489 207.466 102.259 207.4 102.046C207.333 101.832 207.183 101.654 206.982 101.549C206.779 101.45 206.546 101.43 206.329 101.495C206.113 101.56 205.93 101.704 205.819 101.897C205.538 102.429 205.275 102.943 205.05 103.494C204.963 103.698 204.96 103.929 205.045 104.135C205.129 104.341 205.293 104.506 205.5 104.595ZM195.469 99.6953C195.68 99.194 195.918 98.7039 196.182 98.2273C196.246 98.1291 196.288 98.0189 196.307 97.9038C196.325 97.7887 196.319 97.671 196.289 97.5584C196.258 97.4457 196.205 97.3403 196.131 97.249C196.057 97.1577 195.964 97.0823 195.859 97.0277C195.754 96.973 195.638 96.9403 195.52 96.9315C195.401 96.9228 195.282 96.9381 195.169 96.9767C195.057 97.0153 194.954 97.0762 194.867 97.1556C194.78 97.2351 194.71 97.3313 194.663 97.4382C194.382 97.9704 194.119 98.4842 193.894 99.0163C193.839 99.1188 193.807 99.2312 193.798 99.3466C193.789 99.4619 193.805 99.5778 193.844 99.687C193.883 99.7962 193.945 99.8964 194.025 99.9813C194.105 100.066 194.202 100.134 194.31 100.181C194.419 100.227 194.535 100.252 194.654 100.252C194.772 100.253 194.889 100.23 194.998 100.184C195.106 100.139 195.204 100.072 195.285 99.9877C195.366 99.9036 195.429 99.8041 195.469 99.6953ZM228.282 113.476C228.191 113.402 228.087 113.347 227.974 113.314C227.861 113.28 227.743 113.269 227.626 113.281C227.509 113.293 227.395 113.328 227.292 113.383C227.189 113.439 227.098 113.514 227.025 113.605C226.65 114.082 226.275 114.54 225.919 115.036C225.812 115.226 225.78 115.448 225.829 115.66C225.879 115.871 226.006 116.058 226.188 116.183C226.369 116.308 226.591 116.363 226.812 116.338C227.032 116.312 227.235 116.208 227.382 116.045C227.719 115.605 228.057 115.146 228.432 114.687C228.503 114.598 228.556 114.496 228.587 114.387C228.618 114.278 228.627 114.164 228.613 114.051C228.599 113.939 228.563 113.83 228.506 113.731C228.449 113.633 228.373 113.546 228.282 113.476ZM234.657 107.347C234.575 107.266 234.477 107.201 234.369 107.157C234.261 107.112 234.146 107.09 234.029 107.09C233.912 107.09 233.796 107.112 233.688 107.157C233.58 107.201 233.482 107.266 233.4 107.347L232.032 108.522C231.948 108.602 231.882 108.698 231.837 108.803C231.792 108.909 231.769 109.022 231.769 109.136C231.769 109.251 231.792 109.364 231.837 109.47C231.882 109.575 231.948 109.671 232.032 109.751C232.114 109.833 232.211 109.897 232.319 109.942C232.427 109.986 232.543 110.009 232.66 110.009C232.777 110.009 232.893 109.986 233 109.942C233.108 109.897 233.206 109.833 233.288 109.751L234.619 108.613C234.711 108.535 234.785 108.439 234.837 108.332C234.889 108.224 234.917 108.107 234.921 107.988C234.924 107.869 234.903 107.751 234.857 107.641C234.812 107.53 234.744 107.43 234.657 107.347ZM240.619 101.952C240.132 102.264 239.625 102.595 239.138 102.943C238.944 103.075 238.811 103.276 238.769 103.503C238.727 103.73 238.779 103.965 238.913 104.154C239.047 104.344 239.253 104.474 239.485 104.515C239.717 104.557 239.957 104.506 240.15 104.375L241.613 103.402C241.728 103.347 241.83 103.268 241.912 103.171C241.993 103.074 242.052 102.961 242.086 102.839C242.119 102.718 242.125 102.591 242.104 102.467C242.083 102.343 242.035 102.225 241.964 102.121C241.892 102.016 241.799 101.928 241.69 101.862C241.58 101.796 241.458 101.754 241.331 101.738C241.203 101.722 241.074 101.733 240.951 101.77C240.828 101.807 240.715 101.869 240.619 101.952ZM248.363 97.4382L246.788 98.2824C246.671 98.3309 246.566 98.403 246.48 98.494C246.394 98.5849 246.328 98.6927 246.288 98.8102C246.247 98.9277 246.232 99.0523 246.244 99.1758C246.256 99.2994 246.294 99.419 246.357 99.527C246.419 99.635 246.504 99.7288 246.606 99.8024C246.709 99.8759 246.825 99.9275 246.949 99.9538C247.073 99.9801 247.201 99.9805 247.325 99.9549C247.45 99.9293 247.567 99.8784 247.669 99.8054C248.175 99.5118 248.7 99.2365 249.207 98.9797C249.312 98.9256 249.404 98.8518 249.48 98.7626C249.556 98.6733 249.612 98.5703 249.647 98.4595C249.682 98.3487 249.694 98.2322 249.683 98.1168C249.672 98.0014 249.637 97.8893 249.582 97.7869C249.527 97.6841 249.451 97.5932 249.359 97.5197C249.268 97.4461 249.162 97.3914 249.048 97.3589C248.934 97.3263 248.815 97.3166 248.697 97.3302C248.58 97.3439 248.466 97.3806 248.363 97.4382ZM255.563 95.9152L257.194 95.2179C257.4 95.1174 257.559 94.9435 257.638 94.7319C257.717 94.5204 257.71 94.2873 257.619 94.0806C257.527 93.8738 257.359 93.7091 257.147 93.6203C256.936 93.5315 256.698 93.5254 256.482 93.6031L254.832 94.3188C254.642 94.4294 254.501 94.6042 254.435 94.81C254.369 95.0158 254.382 95.2383 254.472 95.4351C254.562 95.632 254.723 95.7897 254.924 95.8782C255.125 95.9667 255.353 95.9798 255.563 95.9152ZM262.5 91.8966C262.612 92.0989 262.8 92.2505 263.024 92.3191C263.248 92.3877 263.491 92.3677 263.7 92.2635L265.294 91.4378C265.503 91.3255 265.657 91.1369 265.724 90.9134C265.791 90.6899 265.764 90.4496 265.65 90.2451C265.532 90.0446 265.34 89.8965 265.113 89.8315C264.885 89.7666 264.642 89.7898 264.432 89.8964L262.875 90.7222C262.669 90.8313 262.514 91.0152 262.444 91.2346C262.374 91.4541 262.394 91.6916 262.5 91.8966ZM270.469 86.2448C270.276 86.3812 270.145 86.5857 270.103 86.815C270.061 87.0443 270.112 87.2807 270.244 87.4742C270.38 87.6618 270.586 87.7898 270.817 87.831C271.048 87.8721 271.287 87.8231 271.482 87.6944C271.988 87.3641 272.475 87.0154 272.963 86.6668C273.122 86.5198 273.221 86.3211 273.241 86.1079C273.261 85.8948 273.201 85.6817 273.073 85.5086C272.944 85.3354 272.755 85.2141 272.542 85.1672C272.328 85.1203 272.105 85.1511 271.913 85.2539C271.444 85.6208 270.957 85.9512 270.469 86.2448ZM278.7 79.7672L277.407 80.9416C277.255 81.103 277.17 81.3142 277.169 81.5336C277.167 81.7531 277.25 81.9651 277.4 82.1282C277.55 82.2912 277.757 82.3935 277.98 82.415C278.204 82.4365 278.427 82.3757 278.607 82.2445L279.919 81.0334C280.004 80.955 280.073 80.8611 280.12 80.7569C280.168 80.6528 280.195 80.5404 280.198 80.4262C280.202 80.3121 280.182 80.1983 280.141 80.0916C280.099 79.9848 280.037 79.887 279.957 79.8039C279.877 79.7208 279.781 79.6539 279.674 79.607C279.568 79.5602 279.453 79.5343 279.336 79.5309C279.22 79.5275 279.104 79.5466 278.994 79.5872C278.885 79.6277 278.785 79.6889 278.7 79.7672ZM283.613 75.9688C283.703 76.0425 283.808 76.0978 283.921 76.1314C284.033 76.1649 284.152 76.176 284.269 76.1641C284.386 76.1521 284.499 76.1173 284.602 76.0617C284.706 76.0061 284.796 75.9308 284.869 75.8403C285.263 75.3816 285.638 74.9228 286.013 74.4457C286.083 74.3554 286.135 74.2524 286.165 74.1426C286.194 74.0328 286.201 73.9184 286.186 73.8058C286.17 73.6933 286.132 73.5849 286.073 73.4869C286.015 73.3889 285.937 73.3031 285.844 73.2346C285.655 73.0969 285.42 73.0354 285.186 73.0627C284.952 73.09 284.738 73.2041 284.588 73.3814C284.232 73.8402 283.875 74.2989 283.5 74.7393C283.351 74.9178 283.279 75.1466 283.3 75.3765C283.321 75.6065 283.433 75.8191 283.613 75.9688ZM288.75 68.8306C288.959 68.942 289.205 68.9678 289.433 68.9025C289.662 68.8371 289.854 68.6859 289.969 68.482C290.25 67.9682 290.532 67.436 290.794 66.9039C290.848 66.8006 290.88 66.6879 290.889 66.5722C290.897 66.4566 290.881 66.3405 290.843 66.2309C290.804 66.1212 290.744 66.0203 290.665 65.9342C290.585 65.848 290.489 65.7784 290.382 65.7295C290.278 65.677 290.164 65.6458 290.047 65.6378C289.93 65.6299 289.813 65.6452 289.702 65.683C289.592 65.7208 289.49 65.7801 289.404 65.8575C289.318 65.9349 289.249 66.0287 289.2 66.1332L288.394 67.6562C288.338 67.7561 288.303 67.8658 288.291 67.9791C288.278 68.0923 288.289 68.2069 288.322 68.3161C288.355 68.4253 288.41 68.5269 288.484 68.6153C288.557 68.7036 288.648 68.7768 288.75 68.8306ZM292.257 60.8117C292.488 60.8622 292.73 60.8237 292.932 60.7041C293.135 60.5844 293.282 60.3929 293.344 60.1694C293.475 59.5822 293.607 58.995 293.719 58.3344C293.758 58.1063 293.706 57.8723 293.573 57.6809C293.441 57.4895 293.238 57.3555 293.007 57.3068C292.771 57.2691 292.529 57.3227 292.333 57.4563C292.137 57.5899 292.002 57.793 291.957 58.0225C291.863 58.573 291.732 59.1235 291.6 59.674C291.561 59.7907 291.546 59.9144 291.558 60.0369C291.571 60.1595 291.609 60.2781 291.671 60.3853C291.732 60.4925 291.816 60.5859 291.917 60.6593C292.018 60.7327 292.134 60.7846 292.257 60.8117ZM292.313 51.3798C292.32 51.4948 292.351 51.6072 292.403 51.7105C292.455 51.8137 292.528 51.9057 292.617 51.981C292.706 52.0562 292.81 52.1133 292.922 52.1487C293.034 52.1841 293.152 52.1972 293.269 52.1872C293.505 52.1684 293.723 52.0597 293.878 51.8846C294.032 51.7095 294.11 51.4821 294.094 51.2513C294.094 50.6458 293.963 50.0402 293.888 49.4163C293.872 49.3025 293.833 49.193 293.773 49.0942C293.713 48.9953 293.634 48.9092 293.539 48.8409C293.445 48.7725 293.338 48.7232 293.224 48.696C293.11 48.6688 292.991 48.6641 292.875 48.6823C292.641 48.7186 292.431 48.842 292.288 49.0266C292.144 49.2113 292.08 49.4429 292.107 49.6732C292.2 50.2237 292.257 50.7742 292.313 51.3798ZM290.175 43.214C290.277 43.4259 290.46 43.5905 290.684 43.6728C290.908 43.755 291.156 43.7484 291.375 43.6544C291.587 43.5549 291.751 43.3783 291.832 43.1623C291.912 42.9463 291.903 42.708 291.807 42.4984C291.544 41.9479 291.263 41.3974 290.963 40.8652C290.849 40.6632 290.657 40.514 290.43 40.4503C290.203 40.3867 289.96 40.4138 289.754 40.5257C289.547 40.6377 289.395 40.8252 289.33 41.0472C289.265 41.2692 289.292 41.5073 289.407 41.7093C289.688 42.2048 289.932 42.7186 290.175 43.214ZM285.3 36.2961C285.382 36.378 285.479 36.4435 285.586 36.4887C285.693 36.534 285.808 36.5582 285.925 36.5599C286.041 36.5616 286.157 36.5408 286.266 36.4986C286.374 36.4565 286.473 36.3939 286.557 36.3144C286.64 36.2349 286.707 36.14 286.754 36.0352C286.8 35.9304 286.824 35.8176 286.826 35.7035C286.828 35.5893 286.807 35.4759 286.764 35.3698C286.721 35.2637 286.657 35.1669 286.575 35.085C286.163 34.6629 285.732 34.2409 285.263 33.8372C285.177 33.76 285.076 33.7003 284.966 33.6613C284.856 33.6224 284.74 33.6049 284.623 33.6101C284.507 33.6152 284.392 33.6427 284.286 33.6911C284.18 33.7395 284.085 33.8079 284.007 33.8922C283.928 33.9765 283.867 34.0753 283.827 34.1827C283.787 34.2901 283.769 34.4042 283.775 34.5183C283.78 34.6325 283.808 34.7445 283.857 34.8481C283.907 34.9516 283.977 35.0445 284.063 35.1217L285.3 36.2961ZM277.013 30.0754C277.519 30.369 278.025 30.6626 278.513 30.9746C278.613 31.0469 278.726 31.0983 278.847 31.1256C278.968 31.1528 279.093 31.1554 279.215 31.133C279.337 31.1107 279.453 31.064 279.555 30.9957C279.658 30.9275 279.745 30.8393 279.811 30.7366C279.877 30.6339 279.921 30.519 279.939 30.399C279.958 30.279 279.951 30.1566 279.919 30.0393C279.887 29.9221 279.83 29.8127 279.753 29.7178C279.675 29.623 279.579 29.5448 279.469 29.4882L277.913 28.5707C277.708 28.4563 277.466 28.4249 277.239 28.4832C277.011 28.5415 276.815 28.6849 276.694 28.8827C276.577 29.0828 276.545 29.3197 276.605 29.5427C276.664 29.7657 276.811 29.9569 277.013 30.0754ZM269.1 26.3137L270.732 26.9926C270.948 27.0704 271.186 27.0642 271.397 26.9754C271.609 26.8866 271.777 26.7219 271.869 26.5151C271.96 26.3084 271.967 26.0753 271.888 25.8638C271.809 25.6522 271.65 25.4783 271.444 25.3778L269.775 24.6989C269.664 24.6355 269.54 24.5963 269.412 24.5837C269.284 24.5712 269.155 24.5857 269.033 24.6263C268.911 24.6668 268.8 24.7325 268.706 24.8188C268.612 24.9051 268.539 25.0101 268.49 25.1267C268.441 25.2432 268.418 25.3687 268.424 25.4945C268.429 25.6204 268.461 25.7437 268.519 25.8562C268.577 25.9687 268.659 26.0678 268.759 26.1467C268.859 26.2256 268.976 26.2825 269.1 26.3137ZM260.738 23.5061L262.444 24.0199C262.67 24.0829 262.913 24.0567 263.12 23.947C263.326 23.8372 263.481 23.6526 263.55 23.4327C263.588 23.3244 263.603 23.2097 263.593 23.0957C263.584 22.9817 263.551 22.8707 263.497 22.7694C263.443 22.6682 263.368 22.5788 263.277 22.5067C263.186 22.4346 263.082 22.3813 262.969 22.3501L261.244 21.8363C261.132 21.8026 261.014 21.7911 260.898 21.8024C260.781 21.8138 260.668 21.8478 260.565 21.9025C260.462 21.9572 260.371 22.0314 260.298 22.1209C260.225 22.2103 260.17 22.3132 260.138 22.4235C260.104 22.5331 260.092 22.6483 260.103 22.7624C260.115 22.8766 260.15 22.9873 260.206 23.0881C260.262 23.1889 260.337 23.2778 260.429 23.3496C260.52 23.4214 260.625 23.4746 260.738 23.5061ZM252.132 21.3959L253.875 21.7812C254.107 21.8307 254.348 21.7891 254.548 21.6654C254.748 21.5418 254.891 21.3461 254.944 21.1206C254.972 21.0085 254.976 20.8921 254.957 20.7782C254.938 20.6644 254.896 20.5556 254.833 20.458C254.77 20.3605 254.687 20.2763 254.591 20.2105C254.494 20.1446 254.385 20.0984 254.269 20.0747L252.507 19.6893C252.29 19.673 252.074 19.7342 251.899 19.8616C251.725 19.989 251.604 20.174 251.558 20.3823C251.512 20.5906 251.545 20.8081 251.65 20.9945C251.756 21.1808 251.927 21.3234 252.132 21.3959Z" fill="white"/>
<path fill-rule="evenodd" clip-rule="evenodd" d="M337.5 127.826C336.181 125.255 334.197 123.066 331.747 121.476C329.297 119.886 326.465 118.95 323.532 118.761C317.194 118.376 314.963 118.449 297.994 118.376V113.586C297.994 113.586 308.457 112.522 310.144 112.394C310.046 109.354 309.733 106.325 309.207 103.329C309.207 103.219 308.607 103.108 308.213 103.108C308.85 103.108 299.813 102.595 289.463 102.558C289.336 102.543 289.208 102.554 289.086 102.588C288.963 102.623 288.849 102.681 288.75 102.76C288.413 103.108 288.45 102.007 288.525 118.376C277.422 118.01 266.306 118.329 255.244 119.33C251.654 119.539 248.29 121.112 245.869 123.715C242.346 127.747 240.162 132.733 239.607 138.01C238.725 143.368 235.613 171.499 236.175 174.857C226.151 182.552 218.089 192.421 212.625 203.685C210.563 207.979 209.757 211.851 210.75 215.227C208.973 214.407 207.075 213.868 205.125 213.63C205.125 213.63 204.919 213.098 204.825 212.713C204.375 210.878 207.807 210.988 209.382 212.254C209.55 212.438 209.832 212.254 209.663 211.997C207.432 208.823 202.032 210.878 204.732 213.612C202.35 213.502 201.675 214.823 202.65 216.456C201.244 217.08 201.563 218.64 202.65 219.796C204.525 221.631 206.663 221.631 206.4 220.897C206.374 220.814 206.317 220.744 206.241 220.7C206.165 220.656 206.075 220.641 205.988 220.659C204.769 220.952 202.35 218.512 202.875 217.667C203.4 216.823 210.375 217.796 209.888 222.659C209.588 226.916 197.569 224.053 196.069 213.997C196.069 213.777 195.957 213.704 195.6 213.355C195.244 213.007 194.157 211.924 192.807 210.639C195.272 207.952 198.04 205.545 201.057 203.465C201.594 204.943 202.582 206.224 203.888 207.135C204.083 207.224 204.292 207.28 204.507 207.3C206.404 207.639 208.338 207.75 210.263 207.63C210.307 207.637 210.353 207.636 210.396 207.626C210.44 207.616 210.481 207.598 210.518 207.572C210.555 207.547 210.586 207.514 210.609 207.477C210.633 207.44 210.649 207.398 210.657 207.355C210.664 207.311 210.663 207.267 210.652 207.224C210.642 207.181 210.624 207.141 210.598 207.105C210.571 207.069 210.538 207.039 210.5 207.016C210.462 206.992 210.42 206.977 210.375 206.969C208.534 206.267 206.604 205.81 204.638 205.612C203.645 204.775 202.723 203.86 201.882 202.877C202.838 202.217 204.338 201.042 203.569 200.143C194.623 189.922 187.636 178.204 182.944 165.553C183.732 154.543 182.944 138.028 177.788 127.936C179.513 128.211 182.588 128.652 184.088 127.936C184.434 127.779 184.716 127.513 184.89 127.18C185.063 126.847 185.117 126.467 185.044 126.101C187.813 126.918 190.784 126.782 193.463 125.716C203.25 120.761 212.607 101.861 214.725 88.3917C215.625 88.3 216.6 87.8963 216.169 86.8136C215.963 86.3182 214.969 86.3916 215.063 85.8044C215.157 85.2172 217.519 84.8869 216.544 83.7675C216.049 83.4262 215.487 83.1888 214.894 83.0702C213.807 82.4647 214.763 81.8591 214.894 81.8224C215.025 81.7857 215.457 81.694 215.625 81.382C215.709 81.1004 215.709 80.8012 215.625 80.5196C215.494 79.5287 213.75 80.226 213.3 79.6388C212.269 78.4644 215.963 78.079 214.388 76.8863C213.544 76.244 211.594 77.4735 211.05 76.5193C210.507 75.5651 213.357 74.4824 211.575 73.253C210.319 72.4089 208.575 74.8311 207.825 73.3814C207.469 72.7392 208.5 72.2437 208.688 71.785C208.751 71.5591 208.754 71.3213 208.699 71.0937C208.643 70.866 208.53 70.6557 208.369 70.4821C208.182 70.2436 207.525 70.3353 207.282 70.4821C206.663 70.8124 205.688 71.9685 204.863 71.3446C203.625 70.4087 205.875 69.7481 204.732 68.7205C204.596 68.5574 204.431 68.4205 204.244 68.3168C203.419 67.9131 202.8 68.4453 202.144 68.8123C201.638 69.0692 202.632 68.9591 202.144 68.8123C201.675 68.6471 202.313 68.2618 202.407 68.0049C202.454 67.7769 202.414 67.5396 202.292 67.3394C202.171 67.1393 201.978 66.9905 201.75 66.9222C200.775 66.5919 200.307 68.2251 199.125 67.5461C198.675 67.2892 199.125 66.8855 199.294 66.647C199.376 66.5163 199.428 66.3696 199.445 66.2172C199.463 66.0648 199.446 65.9104 199.396 65.7651C199.346 65.6198 199.264 65.487 199.156 65.3762C199.047 65.2654 198.915 65.1793 198.769 65.1239C196.894 64.6101 196.332 67.1424 194.55 66.4268C193.219 65.8763 195.769 63.9862 194.063 63.5091C193.313 63.2889 192.919 63.6192 192.413 64.1881C191.907 64.7569 191.85 65.3992 190.988 65.5093C189.263 65.7478 190.275 64.0963 190.05 63.5275C189.825 62.9586 189.338 62.9403 188.794 63.0137C187.219 63.2339 187.95 65.1973 186.732 65.3625C185.513 65.5276 186.225 63.6926 185.138 63.9128C183.769 64.1881 185.738 65.7478 184.275 66.0598C182.813 66.3717 183.975 64.0046 182.4 64.3532C180.825 64.7019 181.707 66.5919 180.525 66.9773C179.344 67.3626 180.225 65.8029 179.269 65.9313C177.394 66.1699 178.05 67.7663 177.582 68.0783C176.588 68.5554 176.775 66.702 175.707 66.8305C173.569 67.1241 174.469 68.9591 173.832 70.1518C173.382 70.9959 172.294 69.4912 171.713 70.2803C171.132 71.0693 172.125 71.7483 171.713 72.5373C171.488 72.9961 170.7 71.9501 169.669 72.941C168.638 73.9319 168.994 74.9045 169.144 75.9688C169.35 77.5652 167.269 76.0972 166.95 77.0514C166.707 77.6386 168.15 78.7396 167.607 79.1433C167.063 79.547 166.913 78.813 165.919 79.4369C164.925 80.0608 164.907 80.7765 165.619 81.6022C165.938 81.9692 166.594 82.2078 166.219 82.9418C165.844 83.6758 165 82.7399 164.344 83.5106C163.519 84.6483 166.032 84.3914 165.469 85.4741C164.907 86.5567 163.482 86.465 163.482 86.465C162.357 88.0247 164.588 88.7037 165.357 89.5111C166.125 90.3185 164.213 90.7772 164.175 91.4562C164.175 92.8875 165.3 92.8324 165.619 93.1994C165.938 93.5664 164.738 93.6582 164.963 94.6124C165.096 94.9448 165.332 95.2281 165.638 95.4223C165.944 95.6165 166.305 95.7119 166.669 95.695C166.531 95.8276 166.428 95.9914 166.369 96.1721L135.113 87.4008C107.813 79.4736 69.5816 96.5758 66.7128 121.348C53.5878 131.239 38.5878 155.057 36.0191 167.388C30.9003 186.069 31.7628 201.006 36.8066 214.181C42.4316 229.044 57.4316 263.341 57.4316 263.341C57.4316 263.341 32.3441 321.125 34.0316 341.64C34.0316 342.851 32.6441 355.292 32.6253 355.476C35.5128 355.88 48.9378 357.586 54.1878 357.788C57.0191 358.085 59.8819 357.708 62.5316 356.687C64.6878 355.531 62.0441 351.402 61.4816 350.687C57.3941 345.439 52.2566 345.989 46.7816 346.209V345.879C52.124 345.891 57.4571 345.443 62.7191 344.539C64.4816 343.86 97.5941 314.757 108.675 283.287C112.425 272.442 106.557 229.852 107.85 229.577C109.725 229.191 117.619 271.249 111.432 284.737C110.375 286.886 109.153 288.953 107.775 290.921C107.775 290.921 105.6 293.251 103.2 325.988C103.2 326.171 100.238 343.695 100.2 343.879C100.163 344.062 129 350.265 130.538 346.429C130.91 344.832 130.733 343.158 130.034 341.669C129.336 340.179 128.155 338.957 126.675 338.19C122.925 335.309 119.569 335.658 115.313 335.511C115.519 334.74 115.838 333.676 116.213 332.3C120.856 332.359 125.481 331.74 129.938 330.465C135.113 321.822 146.382 294.939 146.813 264.221C147.15 241.045 131.382 207.226 128.963 202.18C137.157 194.301 144.018 185.195 149.288 175.206C156.788 196.969 172.875 210.493 188.663 214.126C188.78 214.154 188.902 214.159 189.021 214.14C189.14 214.121 189.254 214.079 189.357 214.016C190.05 213.263 191.232 211.851 192.113 211.006C192.769 211.74 194.157 213.337 194.775 214.089C195.825 225.686 210.469 229.411 211.388 222.916C212.356 222.111 213.06 221.045 213.413 219.851C216.108 222.287 219.402 223.998 222.974 224.818C226.545 225.638 230.273 225.539 233.794 224.53C239.381 222.936 244.459 219.974 248.55 215.924C252.544 212.254 270.788 189.5 272.644 185.151L294.113 183.903V338.264C291.451 331.952 287.822 326.073 283.35 320.831C283.283 320.759 283.193 320.711 283.094 320.694C282.995 320.678 282.894 320.694 282.805 320.74C282.717 320.787 282.647 320.86 282.607 320.95C282.566 321.04 282.557 321.14 282.582 321.235C282.582 321.235 285.394 329.731 287.119 335.144C284.965 332.536 282.621 330.083 280.107 327.804C280.031 327.744 279.938 327.709 279.841 327.705C279.744 327.701 279.648 327.728 279.568 327.782C279.488 327.836 279.428 327.913 279.396 328.003C279.365 328.093 279.364 328.191 279.394 328.281C279.394 328.281 282.225 335.401 283.294 338.447C282.094 337.475 275.588 332.282 274.463 333.291C274.385 333.37 274.341 333.475 274.341 333.584C274.341 333.694 274.385 333.799 274.463 333.878C276.281 335.695 277.891 337.701 279.263 339.86C282.263 344.778 280.669 346.099 281.757 346.081C281.878 346.076 281.992 346.026 282.076 345.94C282.16 345.855 282.207 345.741 282.207 345.622C282.019 343.404 281.272 341.267 280.032 339.401C277.369 335.034 275.044 333.786 277.294 335.144C279.603 336.657 281.825 338.293 283.95 340.044C284.006 340.074 284.068 340.093 284.132 340.098C284.195 340.104 284.26 340.096 284.32 340.075C284.38 340.054 284.435 340.021 284.482 339.977C284.528 339.934 284.564 339.882 284.588 339.823C284.651 339.614 284.651 339.391 284.588 339.181C284.175 337.787 282.15 332.594 281.063 329.786C289.707 337.988 287.663 339.456 288.863 339.805C288.927 339.821 288.994 339.824 289.06 339.813C289.125 339.802 289.187 339.777 289.242 339.741C289.297 339.704 289.344 339.657 289.378 339.601C289.413 339.546 289.436 339.484 289.444 339.42C289.444 338.888 285.263 326.116 284.325 323.29C288.075 328.171 292.707 335.346 294.057 341.291V348.375H301.875V344.429C305.249 337.698 311.125 332.486 318.3 329.859C318.113 330.061 308.082 340.099 309.113 343.805C309.14 343.926 309.214 344.031 309.319 344.1C309.423 344.168 309.551 344.194 309.675 344.172C310.95 343.915 314.157 337.658 326.55 334.318C324.938 335.676 322.2 337.988 321.469 338.447C319.313 339.989 315.713 344.172 315.657 345.494C315.649 345.573 315.666 345.652 315.707 345.721C315.747 345.79 315.808 345.845 315.882 345.879C316.163 346.044 316.332 345.879 316.613 345.695C318.282 344.539 324.619 340.19 326.663 340.466C325.763 341.769 323.307 344.484 323.344 346.888C323.365 346.987 323.42 347.076 323.501 347.14C323.581 347.204 323.681 347.239 323.785 347.239C323.888 347.239 323.989 347.204 324.069 347.14C324.149 347.076 324.204 346.987 324.225 346.888C324.225 344.338 327.638 341.126 327.694 340.374C327.75 339.622 326.963 339.622 326.419 339.622C324.094 339.622 319.144 342.943 317.25 344.227C320.213 339.823 323.269 338.502 328.2 334.08C328.707 333.621 328.407 333.236 328.088 333.199C327.263 333.107 319.013 334.502 310.257 342.613C313.05 334.557 319.332 331.052 319.913 329.327C320.025 328.979 319.763 328.667 319.069 328.758C312.094 329.621 306.207 335.933 302.588 341.86V183.5C304.275 183.5 339.507 180.784 339.507 180.784C339.774 180.767 340.027 180.655 340.216 180.469C340.406 180.284 340.52 180.037 340.538 179.775L342.413 151.993C342.413 143.809 341.55 134.854 337.5 127.826ZM48.2441 347.769L46.8753 354.302L34.1816 352.962C34.7816 349.292 34.9878 347.457 35.1941 344.741C38.5071 345.42 41.8785 345.788 45.2628 345.842C45.0378 346.668 44.8128 347.127 45.2628 347.53C45.7128 347.934 45.7503 347.769 48.2441 347.769ZM182.25 123.55C181.732 123.578 181.212 123.578 180.694 123.55C180.507 123.55 174.357 122.816 174.169 122.816C173.232 122.816 172.819 124.229 174.3 124.486C178.05 125.128 181.35 125.147 181.8 125.275C184.275 125.917 184.444 127.11 180.525 126.982C176.607 126.853 170.907 125.404 170.194 125.734C168.555 126.438 166.992 127.299 165.525 128.303C164.81 125.048 163.411 121.974 161.419 119.275C162.525 118.908 166.482 118.247 166.482 118.247C166.579 118.236 166.67 118.195 166.742 118.128C166.813 118.062 166.86 117.975 166.875 117.88C167.16 116.229 167.619 114.612 168.244 113.054C168.563 112.357 169.238 111.036 170.119 111.036C170.382 111.036 170.325 111.861 170.307 112.118C169.919 114.016 169.399 115.886 168.75 117.715C168.727 117.82 168.729 117.928 168.755 118.032C168.782 118.136 168.833 118.232 168.903 118.314C168.974 118.395 169.063 118.46 169.163 118.502C169.263 118.545 169.372 118.564 169.482 118.559C172.594 118.214 175.724 118.036 178.857 118.027C179.925 118.027 183.488 118.247 183.713 119.275C183.825 119.77 183.6 119.844 183.075 119.954C180.178 120.185 177.264 120.142 174.375 119.825C174.183 119.798 173.987 119.833 173.817 119.926C173.648 120.019 173.514 120.164 173.438 120.339C173.438 120.339 173.307 121.33 174.188 121.44C178.107 121.917 180.15 121.44 182.325 122.082C182.832 122.229 183.938 122.614 183.9 123.055C183.863 123.495 182.682 123.514 182.25 123.55ZM194.382 116.908C194.367 116.918 194.35 116.926 194.332 116.931C194.314 116.935 194.296 116.936 194.277 116.934C194.259 116.931 194.241 116.925 194.226 116.916C194.21 116.907 194.196 116.895 194.185 116.88C194.174 116.866 194.166 116.849 194.161 116.832C194.156 116.814 194.155 116.796 194.158 116.778C194.161 116.76 194.167 116.743 194.176 116.727C194.186 116.712 194.198 116.698 194.213 116.687C194.459 116.471 194.668 116.217 194.832 115.935C195.825 114.1 190.913 114.284 188.832 114.284C188.803 114.273 188.778 114.254 188.761 114.23C188.743 114.205 188.734 114.176 188.734 114.146C188.734 114.116 188.743 114.087 188.761 114.062C188.778 114.038 188.803 114.019 188.832 114.008C195.45 112.779 196.988 115.348 194.382 116.908ZM166.369 96.7226C166.435 96.8242 166.527 96.9078 166.635 96.9656C166.743 97.0233 166.865 97.0534 166.988 97.0529C168.019 97.0529 167.869 97.6585 167.888 97.7686C168.057 98.3191 167.438 98.7228 168.019 99.1999C168.6 99.677 169.294 98.943 169.894 99.1999C170.007 99.1999 170.213 100.301 170.625 100.411C171.038 100.521 175.388 102.613 173.719 100.026C169.294 93.2361 176.85 89.4927 180.807 97.3832C181.144 98.0071 183.957 81.2352 183.957 81.2352C204.713 78.5194 212.794 85.4741 213.825 87.5109C213.056 91.1945 211.997 94.8141 210.657 98.3374C210.159 97.9273 209.575 97.6306 208.945 97.4687C208.316 97.3069 207.658 97.2839 207.019 97.4016C206.357 97.5245 205.722 97.7605 205.144 98.0989C205.057 98.1232 204.983 98.1804 204.94 98.2578C204.896 98.3352 204.885 98.4266 204.91 98.5118C204.935 98.5969 204.993 98.6689 205.072 98.712C205.151 98.755 205.245 98.7655 205.332 98.7411C205.913 98.7411 206.888 98.8512 207.075 98.8696C208.238 98.8696 209.682 99.1265 209.925 100.227C207.512 106.683 204.076 112.727 199.744 118.137C199.875 117.587 199.988 117.018 200.082 116.449C200.419 114.412 199.744 111.458 195.619 109.531C198.113 110.393 199.613 110.907 200.944 108.98C203.007 105.989 204.357 97.9704 204.413 97.6768C204.428 97.6359 204.434 97.5925 204.432 97.5491C204.429 97.5057 204.418 97.4632 204.399 97.424C204.38 97.3848 204.353 97.3497 204.32 97.3207C204.287 97.2916 204.248 97.2692 204.207 97.2548C204.165 97.2403 204.12 97.2341 204.076 97.2364C204.032 97.2387 203.988 97.2496 203.948 97.2683C203.908 97.287 203.872 97.3133 203.843 97.3456C203.813 97.378 203.79 97.4157 203.775 97.4566C201.788 101.53 200.869 106.008 199.538 108.063C199.088 108.76 198.844 108.797 197.663 108.613C193.744 108.063 193.444 107.916 193.35 108.357C193.352 108.502 193.413 108.64 193.519 108.742L193.182 108.632C182.888 105.788 175.425 113.917 175.613 116.577C173.438 116.706 171.413 116.944 170.269 117.073C171 114.614 172.575 109.733 169.932 109.861C167.288 109.99 166.35 114.981 165.994 117.44C164.323 117.799 162.681 118.277 161.082 118.871C160.125 117.44 160.332 117.532 159.375 117.587C156.719 113.344 155.462 108.405 155.775 103.439C156.092 100.498 157.278 97.7113 159.188 95.4198L166.369 96.7226ZM158.475 95.0344C156.937 96.4969 155.759 98.2832 155.031 100.258C154.304 102.232 154.045 104.343 154.275 106.43C154.483 110.451 155.986 114.306 158.569 117.44H157.032C152.888 114.467 151.407 101.09 156.863 94.4289L158.475 95.0344ZM134.794 88.4835L156.169 94.4656C149.475 100.943 150.994 113.917 156 117.733C145.482 118.192 137.7 118.339 128.907 120.247C135.807 116.064 137.457 108.026 136.8 100.062C136.8 99.9747 136.765 99.8907 136.701 99.8288C136.638 99.7668 136.552 99.732 136.463 99.732C136.373 99.732 136.287 99.7668 136.224 99.8288C136.161 99.8907 136.125 99.9747 136.125 100.062C135.582 108.136 133.988 115.164 127.5 119.844C125.344 121.403 126.413 120.669 120.132 122.559C120.045 122.586 119.972 122.646 119.93 122.725C119.888 122.804 119.879 122.896 119.907 122.981C119.934 123.067 119.995 123.138 120.076 123.179C120.156 123.22 120.251 123.228 120.338 123.202C134.682 119.11 140.963 119.367 159.619 118.743C162.994 123.881 164.175 125.771 165 133.092C161.644 136.634 149.869 144.102 143.757 147.424C122.475 158.874 97.4816 164.838 80.3441 148.213C43.7441 112.779 98.7753 78.4277 134.794 88.4835ZM161.888 137.496C160.913 140.084 155.025 153.553 152.719 156.764C142.05 171.609 138.957 172.49 138.75 172.71C136.909 172.844 135.065 172.476 133.425 171.646C138.432 165.15 146.25 159.645 153.019 143.717C156.394 141.57 159.582 139.295 161.888 137.496ZM116.4 337.163L114.525 343.64L102.263 341.53C103.085 338.024 103.711 334.478 104.138 330.905C107.609 331.627 111.132 332.081 114.675 332.263C113.344 336.264 113.213 336.282 113.532 336.722C113.85 337.163 114.375 336.998 116.4 337.163ZM188.757 212.493C183.751 211.168 178.992 209.075 174.657 206.29C162.962 198.713 154.222 187.496 149.85 174.453C153.38 167.691 156.322 160.651 158.644 153.406C158.679 153.304 158.671 153.192 158.622 153.096C158.572 152.999 158.486 152.926 158.382 152.892C158.277 152.858 158.163 152.866 158.065 152.914C157.966 152.962 157.891 153.047 157.857 153.149C150.824 171.574 140.316 188.542 126.882 203.171C109.069 216.548 58.9316 205.153 36.6191 168.306C39.0566 158.636 54.6003 133.441 66.6191 122.431C66.0003 130.872 69.5628 140.12 79.1441 149.405C98.8503 168.471 128.569 159.149 151.875 144.414C144.694 159.094 136.707 164.452 131.532 171.37C131.469 171.45 131.423 171.54 131.397 171.637C131.371 171.733 131.364 171.834 131.378 171.933C131.392 172.033 131.426 172.128 131.478 172.214C131.53 172.3 131.6 172.375 131.682 172.435C133.504 173.69 135.725 174.269 137.944 174.068C138.74 173.906 139.489 173.574 140.138 173.095C144.446 169.653 148.179 165.573 151.2 161.003C156.248 153.513 160.145 145.34 162.769 136.744C164 135.82 165.148 134.794 166.2 133.68C166.297 133.54 166.337 133.37 166.313 133.202C166.125 131.588 165.919 130.23 165.675 129.019C167.261 128.096 168.916 127.292 170.625 126.615C171.525 126.615 174.375 127.349 176.944 127.789C176.775 127.385 183.657 140.029 181.407 165.572C181.407 166.489 188.269 185.482 201.844 200.749C196.943 204.047 192.538 208 188.757 212.493ZM290.269 104.356C293.532 103.916 307.8 103.934 308.138 103.953C308.344 105.971 308.944 111.384 308.944 111.384L296.307 112.394V137.735C295.269 137.266 294.131 137.049 292.989 137.1C291.847 137.151 290.734 137.469 289.744 138.028C290.119 122.945 290.288 104.907 290.269 104.356ZM289.05 143.79C289.172 142.401 289.797 141.099 290.813 140.12C290.872 140.068 290.949 140.038 291.028 140.038C291.108 140.038 291.185 140.068 291.244 140.12C290.736 141.241 290.322 142.401 290.007 143.589C290.007 144.579 290.682 148.396 289.763 146.928C289.125 146.01 288.87 144.887 289.05 143.79ZM254.832 163.975L256.388 164.104C256.575 164.144 256.74 164.248 256.854 164.399C256.968 164.549 257.022 164.735 257.005 164.922C256.989 165.108 256.905 165.283 256.767 165.412C256.629 165.542 256.448 165.618 256.257 165.627L254.682 165.498C254.507 165.447 254.356 165.338 254.255 165.189C254.154 165.041 254.108 164.863 254.126 164.686C254.143 164.508 254.223 164.342 254.352 164.216C254.481 164.09 254.65 164.011 254.832 163.994V163.975ZM242.119 136.34C244.144 126.101 254.25 123.257 253.107 124.082C246.525 128.945 245.344 131.331 243.488 136.927C242.7 139.276 241.463 153.809 240.675 153.809C240.188 153.828 240.863 142.763 242.119 136.34ZM248.457 164.654L246.9 164.361C246.801 164.34 246.706 164.301 246.622 164.244C246.538 164.188 246.466 164.116 246.41 164.033C246.354 163.949 246.316 163.856 246.297 163.758C246.278 163.66 246.279 163.559 246.3 163.462C246.321 163.364 246.362 163.271 246.419 163.189C246.477 163.107 246.55 163.036 246.635 162.982C246.721 162.927 246.816 162.89 246.916 162.871C247.016 162.853 247.119 162.854 247.219 162.874L248.738 163.168C248.939 163.204 249.118 163.318 249.234 163.483C249.35 163.648 249.394 163.852 249.357 164.049C249.319 164.246 249.204 164.42 249.035 164.534C248.866 164.648 248.658 164.691 248.457 164.654ZM239.888 160.746L241.313 161.278C241.507 161.346 241.665 161.487 241.753 161.669C241.841 161.852 241.851 162.061 241.782 162.25C241.712 162.44 241.568 162.595 241.382 162.681C241.195 162.767 240.982 162.777 240.788 162.709L239.307 162.177C239.121 162.096 238.974 161.948 238.897 161.764C238.82 161.579 238.819 161.373 238.894 161.188C238.969 161.003 239.115 160.854 239.3 160.771C239.485 160.689 239.696 160.68 239.888 160.746ZM211.613 222.347C211.633 221.271 211.343 220.212 210.775 219.29C210.208 218.368 209.387 217.621 208.407 217.135C206.765 216.221 204.846 215.902 202.988 216.236C202.834 215.92 202.745 215.577 202.725 215.227C202.725 214.53 203.232 214.346 203.963 214.328C206.503 214.517 208.969 215.256 211.182 216.493C211.606 217.482 212.188 218.399 212.907 219.209C212.841 220.366 212.386 221.469 211.613 222.347ZM247.5 214.695C238.969 222.512 227.944 226.604 217.913 220.824C211.069 216.897 210.9 211.263 214.163 204.309C219.582 192.62 228.9 181.078 236.382 175.352C236.494 175.352 272.25 184.527 272.25 184.527C269.7 189.739 250.557 211.979 247.5 214.695ZM262.5 164.342H264.038C264.223 164.371 264.393 164.463 264.515 164.603C264.637 164.742 264.704 164.92 264.704 165.104C264.704 165.288 264.637 165.466 264.515 165.605C264.393 165.745 264.223 165.837 264.038 165.865H262.5C262.341 165.816 262.203 165.718 262.104 165.586C262.006 165.454 261.953 165.295 261.953 165.131C261.953 164.968 262.006 164.809 262.104 164.677C262.203 164.545 262.341 164.447 262.5 164.397V164.342ZM271.875 165.535L270.319 165.664C270.129 165.652 269.95 165.573 269.815 165.442C269.68 165.31 269.598 165.136 269.584 164.95C269.571 164.764 269.626 164.58 269.741 164.431C269.855 164.282 270.02 164.179 270.207 164.141L271.744 164.012C271.958 163.995 272.17 164.062 272.333 164.198C272.497 164.334 272.599 164.528 272.616 164.737C272.633 164.946 272.565 165.154 272.426 165.314C272.287 165.474 272.089 165.573 271.875 165.59V165.535ZM340.107 151.773L338.363 178.6C335.344 178.821 272.738 184.289 272.738 184.289C272.944 183.041 276.207 124.523 260.4 119.917C264.694 119.917 276.919 119.697 288.375 119.018C288.375 125.33 288.825 138.34 288.825 138.524C287.683 139.411 286.848 140.622 286.434 141.991C286.021 143.359 286.049 144.82 286.514 146.172C286.98 147.525 287.861 148.704 289.037 149.549C290.212 150.393 291.626 150.863 293.084 150.892C294.542 150.922 295.974 150.51 297.185 149.714C298.395 148.918 299.325 147.776 299.848 146.443C300.37 145.11 300.46 143.653 300.105 142.268C299.75 140.884 298.967 139.64 297.863 138.707V119.275C300.938 119.385 317.307 119.99 323.269 120.523C325.89 120.736 328.408 121.616 330.575 123.073C332.742 124.531 334.483 126.517 335.625 128.835C340.894 138.194 340.182 151.828 340.182 151.828L340.107 151.773Z" fill="white"/>
</g>
</svg>
