<svg width="529" height="517" viewBox="0 0 529 517" fill="none" xmlns="http://www.w3.org/2000/svg">
<g opacity="0.5">
<path d="M409.975 24.9973C398.628 24.5579 388.815 35.3373 390.455 45.8583C391.23 49.525 393.149 52.8666 395.949 55.4222C398.749 57.9779 402.291 59.6219 406.087 60.1275C416.667 61.4717 428.199 52.8378 427.802 42.0325C427.472 37.5552 425.476 33.3509 422.192 30.2126C418.908 27.0744 414.562 25.2193 409.975 24.9973ZM417.064 52.4242L409.129 47.2542L398.787 53.5616L402.304 44.0229L396.538 40.3781L404.262 39.1373L409.129 31.5115L412.064 37.5346L421.058 37.1468L414.419 43.4284L417.064 52.4242ZM299.229 162.519C301.001 162.08 303.17 160.529 302.932 158.564C302.694 156.6 300.525 155.592 298.779 155.514C295.975 155.514 293.172 158.099 293.648 160.141C294.124 162.183 296.928 163.062 299.229 162.519ZM221.254 445.913C223.858 443.794 226.178 441.362 228.158 438.675C231.57 433.996 236.569 427.197 234.691 419.804C233.501 415.048 229.11 408.844 222.815 408.637C216.52 408.43 211.441 414.945 209.934 419.701C207.844 426.189 210.965 432.083 213.055 435.986C215.08 439.798 217.869 443.174 221.254 445.913ZM216.89 422.131C216.89 421.108 217.2 420.109 217.781 419.259C218.363 418.408 219.189 417.746 220.156 417.354C221.122 416.963 222.186 416.861 223.212 417.06C224.238 417.26 225.181 417.752 225.921 418.475C226.66 419.198 227.164 420.119 227.368 421.122C227.572 422.125 227.468 423.165 227.067 424.109C226.667 425.054 225.989 425.861 225.119 426.43C224.249 426.998 223.226 427.301 222.18 427.301C220.777 427.301 219.431 426.756 218.439 425.787C217.447 424.817 216.89 423.502 216.89 422.131ZM403.204 445.189C403.521 435.34 397.914 428.697 393.893 428.697C389.873 428.697 384.266 435.34 384.557 445.189H403.204ZM405.637 440.433L412.064 440.562C412.619 438.29 412.299 435.897 411.165 433.841C408.943 430.041 405.373 428.309 402.966 431.954C404.702 434.456 405.632 437.409 405.637 440.433ZM375.59 440.562L382.017 440.433C382.025 437.413 382.945 434.464 384.662 431.954C382.229 428.309 378.658 430.067 376.463 433.841C375.335 435.9 375.025 438.293 375.59 440.562ZM393.893 426.68C395.134 426.789 396.379 426.525 397.461 425.924C398.544 425.322 399.412 424.411 399.95 423.314C400.489 422.216 400.671 420.984 400.472 419.782C400.274 418.581 399.705 417.467 398.841 416.59C397.977 415.714 396.859 415.116 395.638 414.878C394.417 414.639 393.15 414.771 392.008 415.255C390.865 415.74 389.902 416.554 389.246 417.589C388.59 418.624 388.274 419.83 388.339 421.045C388.382 422.491 388.974 423.87 390.002 424.912C391.029 425.954 392.416 426.585 393.893 426.68ZM380.086 428.335C381.176 428.237 382.188 427.741 382.918 426.945C383.649 426.149 384.045 425.113 384.027 424.044C383.951 423.291 383.651 422.576 383.166 421.986C382.681 421.396 382.03 420.957 381.294 420.722C380.558 420.486 379.768 420.465 379.02 420.661C378.272 420.857 377.598 421.261 377.081 421.824C376.564 422.388 376.225 423.086 376.107 423.833C375.988 424.581 376.094 425.347 376.413 426.037C376.731 426.727 377.248 427.311 377.9 427.719C378.553 428.127 379.312 428.341 380.086 428.335ZM407.7 428.335C408.79 428.237 409.801 427.741 410.532 426.945C411.263 426.149 411.659 425.113 411.641 424.044C411.564 423.291 411.265 422.576 410.78 421.986C410.295 421.396 409.644 420.957 408.908 420.722C408.172 420.486 407.382 420.465 406.634 420.661C405.886 420.857 405.212 421.261 404.695 421.824C404.178 422.388 403.839 423.086 403.72 423.833C403.602 424.581 403.708 425.347 404.027 426.037C404.345 426.727 404.862 427.311 405.514 427.719C406.166 428.127 406.926 428.341 407.7 428.335ZM233.844 169.964C231.984 170.104 230.128 169.65 228.554 168.672C229.257 166.402 230.417 164.292 231.966 162.468C232.082 162.301 232.134 162.099 232.112 161.899C232.09 161.699 231.996 161.512 231.847 161.373C231.699 161.234 231.504 161.15 231.298 161.138C231.092 161.125 230.889 161.184 230.723 161.304C229.798 162.235 225.777 167.922 226.544 169.757C227.311 171.593 233.553 172.601 234.955 171.282C235.134 171.139 235.247 170.931 235.27 170.706C235.292 170.48 235.222 170.255 235.074 170.08C234.927 169.906 234.715 169.795 234.484 169.773C234.253 169.752 234.023 169.82 233.844 169.964ZM249.397 183.044C255.197 182.859 260.773 180.816 265.267 177.228C265.048 179.001 264.45 180.709 263.512 182.241C262.573 183.773 261.314 185.095 259.818 186.12C259.643 186.223 259.517 186.39 259.467 186.584C259.417 186.778 259.449 186.983 259.554 187.154C259.659 187.326 259.83 187.449 260.028 187.498C260.226 187.546 260.436 187.516 260.612 187.413C262.942 186.157 264.85 184.268 266.103 181.973C267.357 179.679 267.902 177.079 267.674 174.488C267.661 174.263 267.581 174.047 267.445 173.865C267.308 173.684 267.121 173.545 266.905 173.466C266.689 173.386 266.455 173.37 266.23 173.418C266.005 173.467 265.799 173.578 265.637 173.738C261.392 178.199 255.564 180.908 249.344 181.312C249.082 181.326 248.836 181.439 248.658 181.627C248.48 181.815 248.385 182.064 248.392 182.32C248.455 182.532 248.588 182.717 248.77 182.848C248.951 182.979 249.172 183.048 249.397 183.044ZM250.64 125.761C250.346 125.761 250.063 125.875 249.855 126.079C249.646 126.282 249.529 126.558 249.529 126.846C249.529 127.134 249.646 127.41 249.855 127.614C250.063 127.818 250.346 127.932 250.64 127.932C252.776 128.034 254.861 128.603 256.742 129.596C258.623 130.589 260.253 131.981 261.511 133.671C261.641 133.822 261.823 133.923 262.023 133.955C262.223 133.987 262.428 133.948 262.601 133.845C262.774 133.742 262.903 133.581 262.965 133.393C263.027 133.204 263.018 133 262.939 132.818C261.702 130.691 259.914 128.92 257.756 127.681C255.597 126.443 253.143 125.781 250.64 125.761ZM219.032 127.518C217.273 128.971 215.011 129.711 212.711 129.586C212.474 129.575 212.241 129.651 212.058 129.799C211.875 129.947 211.755 130.156 211.722 130.386C211.688 130.616 211.744 130.85 211.879 131.041C212.013 131.233 212.215 131.369 212.446 131.422C213.869 131.714 215.342 131.681 216.75 131.327C218.158 130.973 219.464 130.306 220.566 129.38C221.624 128.397 220.223 126.665 219.032 127.518ZM216.599 153.963C216.599 152.8 215.964 148.043 215.991 146.932C215.991 146.692 215.893 146.462 215.719 146.292C215.546 146.122 215.31 146.027 215.065 146.027C214.824 146.02 214.589 146.105 214.411 146.264C214.234 146.424 214.126 146.645 214.113 146.88C213.969 149.334 213.969 151.794 214.113 154.247C214.151 154.57 214.319 154.864 214.58 155.065C214.709 155.164 214.856 155.238 215.015 155.282C215.173 155.326 215.338 155.339 215.501 155.32C215.665 155.301 215.822 155.252 215.966 155.173C216.109 155.095 216.236 154.99 216.338 154.864C216.44 154.738 216.515 154.593 216.56 154.439C216.605 154.284 216.618 154.123 216.599 153.963ZM253.92 153.343C253.92 152.49 253.391 149.077 253.417 148.173C253.417 147.933 253.32 147.703 253.146 147.533C252.973 147.363 252.737 147.268 252.492 147.268C252.246 147.268 252.011 147.363 251.837 147.533C251.663 147.703 251.566 147.933 251.566 148.173C251.566 149.103 251.301 152.696 251.407 153.627C251.412 153.799 251.454 153.968 251.529 154.124C251.604 154.279 251.712 154.417 251.845 154.53C251.978 154.643 252.134 154.727 252.302 154.778C252.47 154.829 252.647 154.845 252.822 154.825C252.997 154.805 253.166 154.75 253.318 154.663C253.47 154.576 253.602 154.459 253.705 154.32C253.808 154.18 253.88 154.021 253.917 153.853C253.955 153.685 253.955 153.511 253.92 153.343Z" fill="white"/>
<path d="M130.397 266.256C130.369 266.34 130.369 266.43 130.397 266.514C141.958 291.967 160.797 313.613 184.649 328.848C208.501 344.083 236.349 352.257 264.842 352.388C347.472 352.388 415.184 284.428 411.719 201.243C410.473 171.398 399.427 142.738 380.217 119.505C365.256 101.533 346.086 87.3468 324.329 78.1453C324.608 77.2132 324.82 76.263 324.963 75.3018C326.445 65.8665 322.318 59.5591 314.992 53.1742C311.31 50.0731 307.441 47.19 303.407 44.5403C299.402 41.6077 294.774 39.5934 289.864 38.6465C287.251 38.1312 284.55 38.2255 281.981 38.9217C279.412 39.6179 277.047 40.8963 275.079 42.6532C274.338 43.4029 273.703 44.592 272.91 45.0573C271.753 45.3996 270.532 45.4791 269.339 45.2899C261.248 45.2888 253.243 46.9049 245.815 50.0389C238.387 53.173 231.694 57.7587 226.146 63.5142C222.823 64.0606 219.685 65.3884 217.003 67.3834C214.322 69.3783 212.176 71.9805 210.752 74.9657C131.667 107.046 98.0224 191.291 130.397 266.256ZM219.719 287.918C216.635 277.982 215.294 267.608 215.751 257.234C216.148 248.6 216.783 234.176 226.331 228.127C229.309 226.107 232.558 224.498 235.986 223.345C232.944 239.811 238.842 256.381 245.984 271.426C241.461 273.003 223.871 285.359 219.719 287.97V287.918ZM240.879 223.293C240.641 220.708 239.424 212.953 239.239 211.738C239.203 211.199 239.026 210.679 238.725 210.226C238.424 209.774 238.009 209.404 237.52 209.153C236.647 208.714 232.759 207.421 231.727 206.904C219.534 201.062 210.435 187.155 211.599 166.862C214.816 167.32 218.093 167.171 221.253 166.423C225.406 165.208 227.998 161.382 228.923 155.075C229.522 154.54 230.23 154.137 231.001 153.891C231.772 153.646 232.588 153.565 233.393 153.653C235.036 153.79 236.627 154.285 238.049 155.101C238.35 157.153 239.138 159.108 240.351 160.809C241.563 162.51 243.166 163.911 245.031 164.898C249.22 166.875 254.025 167.205 258.455 165.82C262.885 164.435 266.601 161.439 268.836 157.453C269.968 155.245 270.676 152.853 270.926 150.396C275.428 150.662 279.945 150.287 284.336 149.284C284.336 150.603 284.336 152.981 285.209 153.446C288.119 154.868 293.144 143.442 300.206 143.442C302.419 143.58 304.506 144.499 306.078 146.027C307.296 146.908 308.288 148.052 308.977 149.371C309.665 150.69 310.031 152.147 310.046 153.627C309.88 154.931 309.45 156.19 308.783 157.33C308.116 158.47 307.223 159.47 306.157 160.271C302.998 163.175 298.855 164.841 294.519 164.95C294.429 164.96 294.342 164.992 294.267 165.042C294.192 165.093 294.131 165.161 294.089 165.24C294.047 165.319 294.026 165.407 294.027 165.496C294.028 165.585 294.052 165.673 294.096 165.751C298.424 172.765 301.468 180.463 303.089 188.499C301.661 203.725 301.053 210.213 300.762 213.367C298.328 241.802 288.304 265.429 272.169 289.236C268.554 294.234 265.52 299.609 263.123 305.263C254.21 277.888 232.15 252.245 237.731 223.164C238.194 222.98 238.672 222.833 239.16 222.724C239.16 223.121 239.239 223.457 239.398 223.732C239.417 223.828 239.455 223.918 239.51 223.999C239.565 224.079 239.635 224.149 239.717 224.203C239.8 224.257 239.892 224.294 239.989 224.313C240.086 224.333 240.186 224.333 240.284 224.314C240.381 224.295 240.473 224.258 240.556 224.205C240.639 224.151 240.709 224.082 240.765 224.002C240.82 223.921 240.859 223.831 240.878 223.736C240.898 223.641 240.898 223.543 240.879 223.448V223.293ZM258.547 115.188C257.164 114.092 255.611 113.219 253.945 112.603C264.525 111.647 272.698 108.7 279.919 100.402C280.713 100.816 285.209 102.987 285.897 103.427C293.567 115.085 289.362 119.841 286.558 134.188C285.712 138.505 284.865 143.003 284.389 146.958C280.006 148.045 275.5 148.584 270.979 148.561C271.191 146.519 271.296 144.321 271.587 142.202C272.131 141.988 272.587 141.603 272.883 141.109C273.178 140.614 273.298 140.038 273.222 139.47C273.147 138.902 272.88 138.374 272.464 137.971C272.049 137.567 271.508 137.309 270.926 137.238L239.186 136.489C238.706 136.517 238.243 136.673 237.847 136.94C237.451 137.206 237.137 137.573 236.938 138.001C236.74 138.429 236.664 138.902 236.72 139.369C236.776 139.836 236.961 140.279 237.255 140.651C237.071 144.679 237.204 148.714 237.652 152.723C236.323 152.072 234.863 151.717 233.377 151.681C231.892 151.645 230.416 151.93 229.056 152.516C229.279 148.935 229.137 145.341 228.632 141.788C228.993 141.462 229.262 141.051 229.412 140.594C229.563 140.137 229.59 139.649 229.492 139.179C229.393 138.709 229.172 138.271 228.851 137.909C228.529 137.546 228.116 137.271 227.654 137.109C227.389 137.109 227.813 137.109 210.858 136.696C211.07 131.526 211.149 117.179 213.503 110.173C226.993 120.022 243.418 123.098 258.468 116.016C258.567 115.935 258.63 115.82 258.645 115.695C258.66 115.57 258.625 115.444 258.547 115.343V115.188ZM269.921 142.408C269.233 146.415 269.524 150.629 268.017 154.377C266.448 158.208 263.427 161.3 259.584 163.01C255.741 164.719 251.372 164.914 247.385 163.554C245.434 162.912 243.71 161.739 242.417 160.173C241.124 158.607 240.315 156.713 240.085 154.713C239.433 150.436 239.158 146.111 239.265 141.788C243.55 142.176 265.901 142.486 269.921 142.563V142.408ZM226.834 142.408C227.548 148.923 227.918 160.503 221.993 163.709C220.233 164.456 218.332 164.834 216.413 164.82C214.734 164.963 213.044 164.885 211.387 164.588C209.677 164.311 208.077 163.578 206.766 162.47C205.455 161.361 204.482 159.92 203.955 158.306C202.703 152.89 202.187 147.336 202.421 141.788L226.834 142.408ZM263.546 335.482C257.278 325.711 235.404 292.623 229.638 284.351C234.764 279.924 240.454 276.162 246.566 273.158C248.338 276.466 259.791 299.447 262.145 308.65C262.205 308.854 262.332 309.034 262.506 309.162C262.68 309.29 262.892 309.359 263.11 309.359C263.328 309.359 263.54 309.29 263.714 309.162C263.888 309.034 264.015 308.854 264.075 308.65C267.778 294.639 276.904 288.306 287.59 266.54C293.607 269.829 299.082 273.985 303.83 278.871C298.884 287.375 272.434 325.375 263.546 335.611V335.482ZM312.109 282.696C296.768 268.711 290.499 265.506 288.568 264.782C296.005 249.577 300.754 233.25 302.613 216.494C310.284 222.311 318.219 228.024 325.307 234.357C323.773 241.414 315.362 272.925 312.109 282.696ZM323.879 79.748C390.983 109.475 427.034 180.175 401.563 255.269C388.523 249.763 338.347 234.796 326.868 233.064C323.641 230.066 308.353 218.459 302.878 214.401C302.878 213.16 302.666 216.779 304.782 191.678C304.782 191.394 310.68 162.726 313.167 156.471C314.499 153.162 316.119 149.971 318.007 146.932C321.099 141.468 322.039 135.087 320.652 128.992C320.135 127.057 319.237 125.24 318.007 123.641C320.692 121.071 322.533 117.777 323.297 114.18C324.011 108.726 321.234 103.427 318.536 98.8511C320.523 95.7953 321.654 92.2833 321.816 88.6662C321.743 87.2944 321.345 85.958 320.652 84.7629C322.037 83.3207 323.1 81.6129 323.773 79.748H323.879ZM214.693 73.0528C222.628 62.0666 238.498 64.8325 251.908 67.4692C268.111 70.6982 283.875 75.7556 298.884 82.5398C299.052 82.6255 299.248 82.6423 299.429 82.5866C299.61 82.5308 299.761 82.4071 299.849 82.2425C299.937 82.078 299.954 81.8861 299.897 81.7092C299.84 81.5322 299.713 81.3847 299.545 81.299C285.033 74.325 269.701 69.1161 253.892 65.789C246.354 64.2121 237.335 62.3768 229.505 63.204C238.523 54.9143 249.995 49.6294 262.277 48.1076C270.662 47.0736 273.068 48.7538 275.343 45.9879C276.472 44.4594 277.936 43.1965 279.628 42.2913C283.992 40.0682 290.367 39.7063 297.984 43.9457C302.096 46.2469 306.03 48.8388 309.755 51.7007C313.488 54.3409 316.796 57.5125 319.568 61.1101C322.17 64.4695 323.422 68.6451 323.085 72.846C322.96 76.5355 321.625 80.0879 319.277 82.9792C318.242 81.8118 317.11 80.731 315.891 79.748C309.596 74.578 288.436 59.9986 284.151 57.4394C283.972 57.3297 283.756 57.294 283.55 57.34C283.344 57.3861 283.166 57.5102 283.053 57.685C282.941 57.8598 282.905 58.0711 282.952 58.2723C282.999 58.4734 283.126 58.6481 283.305 58.7578C289.309 62.4285 307.824 75.9739 312.4 79.7738C315.362 82.1779 318.219 84.3493 319.065 86.9084C320.335 90.8635 318.007 94.6634 316.42 98.3341C316.34 98.5065 316.318 98.6989 316.356 98.8844C316.394 99.0698 316.49 99.239 316.632 99.3681C319.012 103.556 321.763 109.424 320.996 114.18C320.257 117.126 318.69 119.812 316.473 121.935C305.628 109.32 279.787 95.1804 262.594 88.8472C242.439 81.3248 216.994 81.299 210.065 84.1166C210.768 80.1442 212.347 76.369 214.693 73.0528ZM209.403 77.9902C208.567 80.4081 207.982 82.9023 207.658 85.435C205.621 86.2622 203.796 89.6227 202.368 95.0253C200.648 102.212 199.141 108.416 202.817 114.49C204.478 117.141 206.798 119.338 209.562 120.875C209.245 123.46 208.425 132.896 208.504 136.825L201.548 136.67H201.362C200.846 136.77 200.372 137.018 200.001 137.383C199.629 137.747 199.378 138.212 199.278 138.717C199.179 139.223 199.236 139.745 199.443 140.219C199.649 140.692 199.995 141.094 200.437 141.374C200.32 146.932 200.656 152.49 201.442 157.996C201.844 159.978 202.797 161.813 204.197 163.3C205.597 164.787 207.389 165.867 209.377 166.423C208.641 175.742 210.573 185.078 214.958 193.385C219.062 201.146 225.958 207.149 234.319 210.239C236.964 211.092 236.964 210.988 237.229 212.384C237.229 212.384 238.34 218.899 238.71 220.863C230.901 222.126 223.8 226.044 218.661 231.927C187.916 237.641 158.526 248.887 131.984 265.092C124.426 247.842 120.436 229.3 120.246 210.535C120.055 191.771 123.668 173.155 130.875 155.762C138.082 138.368 148.74 122.541 162.237 109.193C175.733 95.8451 191.799 85.2403 209.509 77.9902H209.403ZM126.959 35.5962C128.519 35.4411 128.334 33.1404 126.959 33.3214C120.769 33.5023 97.0437 34.2778 90.6428 34.2261C90.4671 34.2584 90.3084 34.3498 90.1942 34.4843C90.0801 34.6188 90.0176 34.7881 90.0176 34.9629C90.0176 35.1376 90.0801 35.3069 90.1942 35.4414C90.3084 35.576 90.4671 35.6673 90.6428 35.6996C96.5676 35.9839 120.928 36.1907 126.959 35.5962ZM124.314 41.6968C121.907 41.6968 96.5412 43.6355 91.4628 43.7131C91.2593 43.7131 91.0642 43.7921 90.9204 43.9326C90.7765 44.0732 90.6957 44.2639 90.6957 44.4627C90.6957 44.6616 90.7765 44.8522 90.9204 44.9928C91.0642 45.1334 91.2593 45.2124 91.4628 45.2124C95.589 45.2124 121.431 44.5403 124.578 43.9457C124.86 43.8861 125.11 43.7259 125.278 43.4965C125.446 43.267 125.521 42.9846 125.488 42.7042C125.455 42.4237 125.317 42.1653 125.1 41.9791C124.883 41.7929 124.602 41.6923 124.314 41.6968ZM128.519 51.9075C128.519 51.9075 96.0651 53.0966 92.9704 53.1225C92.7683 53.1573 92.5851 53.2606 92.4532 53.4142C92.3212 53.5678 92.2489 53.762 92.2489 53.9626C92.2489 54.1632 92.3212 54.3574 92.4532 54.511C92.5851 54.6647 92.7683 54.7679 92.9704 54.8027C104.873 54.8027 116.775 55.2422 128.599 54.3116C128.893 54.2608 129.159 54.1079 129.348 53.8809C129.536 53.6539 129.635 53.3681 129.625 53.0759C129.615 52.7837 129.498 52.5047 129.295 52.2901C129.092 52.0755 128.817 51.9397 128.519 51.9075ZM306.819 437.434L304.861 436.452C304.793 436.414 304.715 436.393 304.637 436.393C304.558 436.393 304.48 436.414 304.412 436.452C301.849 438.578 299.791 441.225 298.381 444.207C298.342 444.301 298.339 444.405 298.374 444.5C298.408 444.595 298.476 444.675 298.566 444.724C300.455 445.683 302.548 446.196 304.676 446.223C311.712 446.223 316.156 440.33 320.123 434.849C323.562 430.041 327.873 424.07 325.73 418.28C324.997 416.347 323.723 414.654 322.054 413.394C321.985 413.332 321.896 413.298 321.803 413.298C321.709 413.298 321.62 413.332 321.551 413.394C318.82 415.421 316.655 418.088 315.256 421.149C315.213 421.21 315.19 421.282 315.19 421.356C315.19 421.43 315.213 421.502 315.256 421.563L317.399 423.553C314.925 428.865 311.318 433.598 306.819 437.434ZM300.233 434.022C298.43 436.016 296.81 438.162 295.392 440.433C294.705 441.906 296.715 442.63 297.244 441.726C298.722 439.496 300.348 437.363 302.111 435.341C302.666 434.772 301.529 433.169 300.233 434.022ZM313.563 419.262C313.73 419.267 313.895 419.235 314.046 419.167C314.197 419.1 314.331 419 314.436 418.874C315.924 416.651 317.549 414.518 319.303 412.489C319.885 411.895 318.748 410.318 317.399 411.197C315.614 413.183 314.012 415.32 312.611 417.582C312.509 417.749 312.454 417.939 312.451 418.133C312.448 418.327 312.497 418.519 312.593 418.689C312.69 418.859 312.83 419.002 313 419.102C313.17 419.203 313.365 419.258 313.563 419.262ZM392.464 386.174C392.632 386.176 392.799 386.14 392.95 386.068C393.102 385.996 393.234 385.891 393.337 385.76C393.439 385.63 393.509 385.478 393.542 385.316C393.574 385.155 393.567 384.988 393.522 384.83L394.13 366.735C394.13 365.339 394.262 363.607 392.622 362.702C390.983 361.797 132.143 361.203 132.434 361.203C132.343 361.207 132.254 361.232 132.176 361.277C132.098 361.322 132.032 361.386 131.984 361.461C131.171 368.324 130.844 375.234 131.006 382.141C131.315 382.767 131.813 383.286 132.432 383.627C133.051 383.969 133.762 384.118 134.47 384.054C138.094 384.054 392.464 386.174 392.464 386.174ZM391.935 366.786C391.935 367.381 391.935 367.019 391.459 383.977C379.08 383.615 135.528 381.754 133.703 381.65C132.883 381.366 132.883 380.59 132.936 379.375L133.439 363.374C146.426 363.736 390.268 364.356 391.273 364.434C392.279 364.512 392.014 365.571 391.935 366.786ZM155.366 461.578C155.675 461.578 155.971 461.458 156.189 461.245C156.407 461.032 156.53 460.743 156.53 460.441C156.53 460.139 156.407 459.85 156.189 459.637C155.971 459.423 155.675 459.304 155.366 459.304C149.441 459.64 125.451 460.286 119.05 460.208C118.874 460.241 118.716 460.332 118.602 460.466C118.487 460.601 118.425 460.77 118.425 460.945C118.425 461.12 118.487 461.289 118.602 461.424C118.716 461.558 118.874 461.649 119.05 461.682C124.948 461.966 149.256 462.147 155.366 461.578ZM152.589 467.679C150.208 467.679 124.843 469.618 119.738 469.695C119.534 469.695 119.339 469.774 119.195 469.915C119.052 470.055 118.971 470.246 118.971 470.445C118.971 470.644 119.052 470.834 119.195 470.975C119.339 471.116 119.534 471.195 119.738 471.195C124.525 471.195 149.811 470.497 152.853 469.928C153.136 469.868 153.385 469.708 153.553 469.479C153.721 469.249 153.796 468.967 153.763 468.686C153.73 468.406 153.592 468.147 153.375 467.961C153.158 467.775 152.877 467.674 152.589 467.679ZM156.874 477.916C156.874 477.916 124.472 479.079 121.298 479.105C121.096 479.139 120.913 479.243 120.781 479.396C120.649 479.55 120.577 479.744 120.577 479.945C120.577 480.145 120.649 480.34 120.781 480.493C120.913 480.647 121.096 480.75 121.298 480.785C133.148 480.785 145.103 481.224 156.9 480.294C157.06 480.292 157.218 480.26 157.365 480.198C157.512 480.137 157.645 480.048 157.757 479.936C157.868 479.825 157.956 479.693 158.016 479.548C158.076 479.403 158.105 479.248 158.104 479.092C158.102 478.936 158.069 478.781 158.006 478.638C157.943 478.494 157.852 478.364 157.738 478.255C157.624 478.145 157.489 478.059 157.34 478.001C157.192 477.943 157.033 477.914 156.874 477.916ZM239.609 461.578C239.918 461.578 240.214 461.458 240.432 461.245C240.65 461.032 240.773 460.743 240.773 460.441C240.773 460.139 240.65 459.85 240.432 459.637C240.214 459.423 239.918 459.304 239.609 459.304C233.632 459.614 209.668 460.286 203.293 460.208C203.118 460.241 202.959 460.332 202.845 460.466C202.731 460.601 202.668 460.77 202.668 460.945C202.668 461.12 202.731 461.289 202.845 461.424C202.959 461.558 203.118 461.649 203.293 461.682C209.218 461.966 233.473 462.147 239.609 461.578ZM236.832 467.679C234.451 467.679 209.086 469.618 203.981 469.695C203.778 469.695 203.583 469.774 203.439 469.915C203.295 470.055 203.214 470.246 203.214 470.445C203.214 470.644 203.295 470.834 203.439 470.975C203.583 471.116 203.778 471.195 203.981 471.195C208.742 471.195 234.028 470.497 237.07 469.928C237.35 469.869 237.598 469.71 237.766 469.484C237.934 469.257 238.011 468.978 237.981 468.699C237.952 468.421 237.818 468.163 237.606 467.974C237.394 467.786 237.118 467.681 236.832 467.679ZM241.143 477.916C241.143 477.916 208.716 479.079 205.568 479.105C205.366 479.139 205.183 479.243 205.051 479.396C204.919 479.55 204.847 479.744 204.847 479.945C204.847 480.145 204.919 480.34 205.051 480.493C205.183 480.647 205.366 480.75 205.568 480.785C217.418 480.785 229.373 481.224 241.17 480.294C241.492 480.29 241.801 480.162 242.026 479.936C242.252 479.711 242.377 479.407 242.373 479.092C242.37 478.776 242.238 478.475 242.008 478.255C241.777 478.034 241.466 477.912 241.143 477.916ZM326.445 461.578C326.753 461.578 327.049 461.458 327.267 461.245C327.486 461.032 327.608 460.743 327.608 460.441C327.608 460.139 327.486 459.85 327.267 459.637C327.049 459.423 326.753 459.304 326.445 459.304C320.467 459.64 296.53 460.286 290.102 460.208C289.926 460.241 289.768 460.332 289.654 460.466C289.54 460.601 289.477 460.77 289.477 460.945C289.477 461.12 289.54 461.289 289.654 461.424C289.768 461.558 289.926 461.649 290.102 461.682C296.053 461.966 320.308 462.147 326.445 461.578ZM323.667 467.679C321.313 467.679 295.921 469.618 290.843 469.695C290.639 469.695 290.444 469.774 290.3 469.915C290.157 470.055 290.076 470.246 290.076 470.445C290.076 470.644 290.157 470.834 290.3 470.975C290.444 471.116 290.639 471.195 290.843 471.195C295.604 471.195 320.89 470.497 323.958 469.928C324.244 469.869 324.496 469.707 324.665 469.474C324.834 469.242 324.908 468.956 324.871 468.673C324.834 468.39 324.69 468.13 324.467 467.946C324.244 467.762 323.959 467.667 323.667 467.679ZM327.979 477.916C327.979 477.916 295.551 479.079 292.403 479.105C292.201 479.139 292.018 479.243 291.886 479.396C291.754 479.55 291.682 479.744 291.682 479.945C291.682 480.145 291.754 480.34 291.886 480.493C292.018 480.647 292.201 480.75 292.403 480.785C304.253 480.785 316.208 481.224 328.005 480.294C328.328 480.29 328.636 480.162 328.862 479.936C329.087 479.711 329.212 479.407 329.209 479.092C329.205 478.776 329.074 478.475 328.843 478.255C328.612 478.034 328.301 477.912 327.979 477.916ZM410.899 461.578C411.208 461.578 411.504 461.458 411.722 461.245C411.941 461.032 412.063 460.743 412.063 460.441C412.063 460.139 411.941 459.85 411.722 459.637C411.504 459.423 411.208 459.304 410.899 459.304C404.975 459.614 380.984 460.286 374.557 460.208C374.381 460.241 374.223 460.332 374.109 460.466C373.994 460.601 373.932 460.77 373.932 460.945C373.932 461.12 373.994 461.289 374.109 461.424C374.223 461.558 374.381 461.649 374.557 461.682C380.508 461.966 404.684 462.147 410.899 461.578ZM408.122 467.679C405.768 467.679 380.376 469.618 375.298 469.695C375.094 469.695 374.899 469.774 374.755 469.915C374.611 470.055 374.531 470.246 374.531 470.445C374.531 470.644 374.611 470.834 374.755 470.975C374.899 471.116 375.094 471.195 375.298 471.195C380.059 471.195 405.345 470.497 408.413 469.928C408.699 469.869 408.951 469.707 409.12 469.474C409.289 469.242 409.362 468.956 409.326 468.673C409.289 468.39 409.145 468.13 408.922 467.946C408.699 467.762 408.414 467.667 408.122 467.679ZM412.434 477.916C412.434 477.916 380.006 479.079 376.858 479.105C376.656 479.139 376.473 479.243 376.341 479.396C376.209 479.55 376.137 479.744 376.137 479.945C376.137 480.145 376.209 480.34 376.341 480.493C376.473 480.647 376.656 480.75 376.858 480.785C388.681 480.785 400.663 481.224 412.46 480.294C412.783 480.29 413.091 480.162 413.316 479.936C413.542 479.711 413.667 479.407 413.663 479.092C413.66 478.776 413.528 478.475 413.298 478.255C413.067 478.034 412.756 477.912 412.434 477.916ZM160.841 447.335L154.705 447.206C154.705 444.155 154.493 436.297 154.387 433.867C155.184 433.216 155.699 432.293 155.826 431.285C155.954 430.278 155.686 429.26 155.075 428.439C154.837 428.103 155.075 428.18 147.59 428.439V423.269C148.055 422.623 148.367 421.885 148.504 421.107C148.642 420.329 148.6 419.531 148.383 418.771C148.353 418.657 148.284 418.557 148.188 418.486C148.092 418.416 147.974 418.379 147.854 418.383L138.438 418.667C138.279 416.703 137.592 409.646 137.327 409.18C137.147 408.845 136.845 408.587 136.481 408.457C139.76 403.829 134.603 402.201 135.608 399.823C136.031 398.815 134.497 398.117 133.889 399.047C132.401 400.994 131.257 403.169 130.503 405.484C130.526 406.17 130.722 406.84 131.072 407.435C131.423 408.03 131.918 408.532 132.513 408.896C132.129 409.046 131.806 409.313 131.591 409.658C131.376 410.003 131.282 410.407 131.323 410.809V418.848L123.785 419.081C123.676 419.083 123.571 419.119 123.485 419.184C123.399 419.25 123.337 419.34 123.309 419.443C123.017 420.273 122.947 421.161 123.105 422.025C123.262 422.889 123.642 423.699 124.208 424.38C124.208 425.854 124.393 427.87 124.552 429.318C116.934 429.628 117.225 429.524 116.987 429.783C115.083 432.006 113.866 435.858 116.114 437.538V446.921H111.671C111.453 446.921 111.245 447.006 111.091 447.156C110.937 447.306 110.851 447.51 110.851 447.723C110.851 447.935 110.937 448.139 111.091 448.289C111.245 448.44 111.453 448.524 111.671 448.524C111.962 448.524 160.497 449.093 160.947 449.041C161.178 449.027 161.395 448.924 161.549 448.755C161.702 448.585 161.781 448.363 161.767 448.136C161.753 447.91 161.647 447.699 161.474 447.548C161.3 447.398 161.073 447.321 160.841 447.335ZM136.534 418.771H133.227V410.602C134.085 410.35 134.977 410.228 135.872 410.24C135.925 411.326 136.401 417.09 136.534 418.771ZM132.46 405.329C132.934 404.296 133.491 403.302 134.127 402.356C134.999 404.01 136.269 404.941 135.528 406.57C135.21 407.134 134.828 407.663 134.391 408.146C133.227 407.345 132.249 406.414 132.46 405.277V405.329ZM131.878 423.553C132.234 424.287 132.796 424.907 133.498 425.341C134.201 425.776 135.015 426.006 135.846 426.006C136.677 426.006 137.491 425.776 138.193 425.341C138.896 424.907 139.457 424.287 139.813 423.553C140.528 424.221 141.411 424.693 142.373 424.92C143.334 425.147 144.34 425.121 145.289 424.846V428.645L126.403 429.369C126.403 428.103 126.271 426.784 126.165 425.595C127.222 425.788 128.313 425.695 129.32 425.326C130.327 424.957 131.212 424.326 131.878 423.501V423.553ZM118.098 446.818V438.107C119.284 438.194 120.475 438.028 121.589 437.622C122.703 437.216 123.714 436.579 124.552 435.754C125.522 436.604 126.78 437.075 128.083 437.075C129.386 437.075 130.643 436.604 131.614 435.754C134.682 439.037 139.284 437.512 141.824 433.867C142.325 434.563 142.981 435.138 143.742 435.552C144.503 435.966 145.35 436.206 146.219 436.256C147.088 436.305 147.958 436.163 148.763 435.839C149.568 435.515 150.288 435.018 150.869 434.384C151.43 434.53 152.012 434.574 152.589 434.513C152.589 437.253 152.589 444.181 152.774 447.076C144.654 447.025 123.414 446.87 118.098 446.87V446.818Z" fill="white"/>
<path d="M475.941 155.72C471.762 152.825 474.725 153.135 468.641 133.567C466.578 126.923 464.277 118.936 458.061 116.377C458.061 97.0925 458.061 16.7507 458.194 14.0106C458.302 13.8373 458.361 13.6387 458.365 13.4355C458.369 13.2322 458.316 13.0317 458.214 12.8549C458.111 12.6781 457.962 12.5314 457.782 12.43C457.601 12.3287 457.396 12.2764 457.188 12.2787C407.198 12.2787 96.437 13.6487 68.8761 13.9589C68.7094 13.9623 68.546 14.0041 68.3991 14.0809C68.2521 14.1577 68.1258 14.2673 68.0304 14.4008C67.935 14.5344 67.8732 14.6881 67.8501 14.8493C67.827 15.0106 67.8432 15.175 67.8974 15.329C67.2362 49.3217 66.284 234.925 66.0459 305.702C52.0108 317.751 40.9896 332.784 33.8298 349.647C20.9222 380.486 20.1552 403.932 31.5816 419.003C39.1463 429.084 54.2492 440.406 66.2311 435.211C65.8608 484.481 65.755 498.879 66.0459 503.041C66.1782 504.98 66.4162 504.695 66.7072 504.695C66.9981 504.695 439.837 504.023 456.368 503.842C456.575 503.842 456.779 503.786 456.956 503.682C457.133 503.577 457.277 503.427 457.374 503.248C457.506 502.989 458.088 387.724 458.537 357.144C461.764 357.057 464.927 356.245 467.78 354.77C470.633 353.295 473.1 351.197 474.989 348.639C481.466 340.717 486.805 331.968 490.859 322.634C496.837 307.253 501.148 296.163 503.661 278.973C509.216 241.103 500.884 199.743 484.141 165.44C481.152 159.262 481.575 159.624 475.941 155.72ZM58.1903 417.891C53.2177 415.642 48.6947 405.509 50.5198 396.772C51.9586 391.032 55.2174 385.884 59.8302 382.063C61.9371 380.022 64.25 378.194 66.7336 376.609V385.527C64.7535 386.855 62.9729 388.448 61.4436 390.257C61.3247 390.441 61.2794 390.661 61.3165 390.875C61.3537 391.089 61.4705 391.282 61.6446 391.417C61.8188 391.552 62.0378 391.619 62.2595 391.605C62.4812 391.591 62.69 391.498 62.8455 391.343C65.4447 388.837 68.4357 386.751 71.7062 385.165C74.0074 384.157 74.4835 384.622 73.928 386.716C73.4498 389.235 72.1837 391.547 70.3044 393.334C68.4282 394.808 66.3548 396.026 64.1415 396.953C62.9438 397.455 61.8081 398.088 60.7559 398.84C60.6161 398.976 60.5317 399.158 60.518 399.351C60.5044 399.543 60.5625 399.735 60.6817 399.889C60.8008 400.043 60.973 400.15 61.1665 400.19C61.36 400.23 61.5617 400.2 61.7346 400.106C63.8506 398.736 70.4895 396.72 74.1396 394.212C76.7846 392.429 77.0227 393.773 76.1234 396.436C74.2719 401.786 67.8445 404.552 63.5861 407.913C63.4381 408.059 63.3469 408.25 63.3283 408.454C63.3097 408.659 63.3648 408.863 63.4842 409.032C63.6035 409.201 63.7795 409.323 63.9817 409.379C64.1839 409.434 64.3995 409.418 64.5912 409.335C65.7814 408.688 66.9717 407.887 68.6645 406.75C70.3573 405.612 75.1447 403.26 76.8904 404.165C77.0876 404.254 77.2546 404.396 77.3718 404.574C77.489 404.753 77.5514 404.961 77.5517 405.173C77.8162 407.034 76.2292 408.844 74.6157 410.86C67.2097 420.114 61.0998 419.261 58.1903 417.891ZM455.337 501.49C432.325 501.619 86.0157 502.472 68.0032 502.679C68.2148 495.312 68.0032 448.73 68.1355 419.313C71.7303 416.643 75.0441 413.629 78.0278 410.317C78.7684 409.309 81.0695 405.819 79.2709 403.079C78.8693 402.491 78.2971 402.035 77.6278 401.767C76.9585 401.5 76.2227 401.435 75.515 401.58C77.3397 399.725 78.4918 397.337 78.7948 394.781C78.7948 393.98 79.0329 392.196 77.4723 391.447C76.9259 391.272 76.3456 391.223 75.7766 391.304C75.2077 391.384 74.6655 391.592 74.1925 391.912C74.4306 391.55 74.6157 391.188 74.8273 390.8C75.7795 388.965 77.102 384.751 76.044 383.2C74.5893 381.107 70.8863 382.838 68.6645 384.131C68.8232 142.692 70.0928 56.2754 69.9605 15.9752C95.5377 15.9752 440.022 14.6052 456.13 14.5018C455.919 28.8485 455.575 127.57 455.575 127.57C451.183 128.276 446.976 129.822 443.196 132.119C442.163 132.607 441.299 133.38 440.71 134.342C440.51 134.68 440.386 135.055 440.346 135.443C440.307 135.831 440.352 136.223 440.48 136.593C440.607 136.962 440.814 137.301 441.087 137.586C441.359 137.871 441.691 138.096 442.059 138.246C440.975 138.883 440.066 139.771 439.414 140.831C439.15 141.835 439.273 142.899 439.761 143.819C440.249 144.74 441.067 145.452 442.059 145.82C439.255 148.276 439.811 152.592 445.471 153.394C448.917 153.866 452.422 153.718 455.813 152.954C457.374 175.78 455.072 486.885 455.337 501.49ZM458.511 158.486C458.352 156.599 458.167 154.609 457.929 152.489C459.624 151.987 461.271 151.338 462.849 150.55C463.96 150.008 463.06 148.379 461.949 148.922C457.741 150.834 453.122 151.721 448.486 151.507C446.767 151.507 443.884 151.507 443.196 149.878C442.509 148.25 444.175 147.035 445.312 146.725C450.303 147.454 455.401 146.545 459.807 144.14C460.017 144.03 460.175 143.843 460.244 143.62C460.314 143.397 460.289 143.156 460.177 142.95C460.065 142.745 459.874 142.591 459.646 142.523C459.417 142.455 459.171 142.479 458.961 142.589C454.983 144.456 450.531 145.139 446.159 144.553C443.038 144.14 441.583 143.286 441.636 141.968C441.636 141.348 444.281 139.383 445.339 138.944C450.023 139.594 454.779 139.594 459.463 138.944C460.653 138.789 460.495 137.005 459.304 137.16C455.76 137.6 444.387 137.315 443.302 136.385C443.188 136.312 443.093 136.212 443.028 136.095C442.963 135.977 442.929 135.846 442.929 135.712C442.929 135.579 442.963 135.447 443.028 135.33C443.093 135.213 443.188 135.113 443.302 135.04C446.106 132.197 456.104 129.327 458.775 128.914C458.986 128.89 459.178 128.785 459.309 128.623C459.441 128.46 459.501 128.254 459.476 128.048C459.452 127.842 459.345 127.655 459.178 127.526C459.012 127.398 458.801 127.339 458.59 127.363H458.141V118.548C462.902 121.314 464.753 127.647 466.234 132.766C472.9 155.488 469.091 153.988 475.889 158.46C476.973 159.132 477.984 159.911 478.904 160.787C472.159 164.871 464.515 163.372 458.511 158.564V158.486Z" fill="white"/>
<path d="M284.205 283.291C283.593 283.291 282.995 283.468 282.486 283.801C281.977 284.133 281.58 284.605 281.346 285.158C281.112 285.711 281.051 286.319 281.17 286.905C281.289 287.492 281.584 288.031 282.017 288.454C282.45 288.877 283.001 289.165 283.601 289.282C284.202 289.398 284.824 289.339 285.389 289.11C285.955 288.881 286.438 288.493 286.778 287.996C287.118 287.498 287.3 286.914 287.3 286.315C287.3 285.513 286.974 284.744 286.393 284.177C285.813 283.61 285.026 283.291 284.205 283.291ZM275.08 298.077C274.4 298.077 273.735 298.274 273.17 298.644C272.604 299.013 272.163 299.538 271.903 300.152C271.643 300.766 271.575 301.441 271.707 302.093C271.84 302.745 272.168 303.344 272.648 303.814C273.129 304.284 273.742 304.604 274.409 304.734C275.076 304.863 275.767 304.797 276.396 304.542C277.024 304.288 277.561 303.857 277.939 303.305C278.317 302.752 278.518 302.102 278.518 301.438C278.518 300.546 278.156 299.692 277.511 299.061C276.866 298.431 275.992 298.077 275.08 298.077ZM266.88 311.054C266.357 311.054 265.846 311.205 265.411 311.49C264.976 311.774 264.637 312.177 264.437 312.65C264.237 313.122 264.184 313.642 264.286 314.143C264.388 314.645 264.64 315.105 265.01 315.467C265.38 315.828 265.851 316.074 266.364 316.174C266.877 316.274 267.409 316.223 267.893 316.027C268.376 315.831 268.789 315.5 269.08 315.075C269.37 314.65 269.525 314.15 269.525 313.639C269.525 312.953 269.247 312.296 268.751 311.811C268.255 311.326 267.582 311.054 266.88 311.054Z" fill="white"/>
</g>
</svg>
