<svg width="493" height="593" viewBox="0 0 493 593" fill="none" xmlns="http://www.w3.org/2000/svg">
<path d="M268.799 127.673C268.042 127.516 267.273 127.417 266.5 127.376C266.326 127.365 266.154 127.416 266.015 127.52C265.876 127.623 265.78 127.772 265.744 127.939C264.776 131.616 268.769 131.735 269.404 128.503C269.431 128.315 269.383 128.124 269.271 127.969C269.158 127.815 268.99 127.709 268.799 127.673ZM271.068 116.317C269.767 116.107 268.431 116.277 267.227 116.804C266.023 117.331 265.002 118.192 264.292 119.282C264.107 119.55 264.027 119.876 264.069 120.198C264.111 120.52 264.271 120.816 264.52 121.031C264.768 121.245 265.088 121.364 265.419 121.364C265.751 121.364 266.07 121.245 266.319 121.031C267.495 120.108 268.993 119.671 270.493 119.815C273.639 120.26 273.549 116.702 271.068 116.317ZM275.938 139.355C276.345 139.301 276.718 139.105 276.988 138.802C277.258 138.5 277.407 138.111 277.407 137.709C277.407 137.307 277.258 136.919 276.988 136.616C276.718 136.313 276.345 136.117 275.938 136.064H274.517C274.678 132.851 275.113 129.658 275.817 126.516C275.9 126.171 275.843 125.807 275.656 125.502C275.47 125.198 275.169 124.976 274.819 124.885C274.483 124.801 274.126 124.847 273.822 125.012C273.518 125.177 273.291 125.45 273.186 125.775C271.858 129.114 271.151 132.658 271.098 136.241C271.098 137.398 271.098 139.384 273.609 139.444C274.387 139.469 275.165 139.439 275.938 139.355ZM289.974 122.158C288.644 121.044 287.044 120.284 285.327 119.951C283.611 119.619 281.836 119.725 280.173 120.26C279.785 120.539 279.524 120.956 279.445 121.421C279.366 121.886 279.475 122.363 279.75 122.751C281.081 124.589 284.892 122.454 288.825 125.063C289.149 125.238 289.523 125.303 289.889 125.25C290.255 125.196 290.593 125.027 290.852 124.767C291.275 124.115 291.033 123.255 289.974 122.158ZM283.682 141.638C282.427 142.637 280.966 143.356 279.398 143.745C277.831 144.134 276.196 144.184 274.607 143.891C274.242 143.824 273.865 143.902 273.559 144.108C273.253 144.314 273.042 144.63 272.974 144.988C272.906 145.346 272.985 145.716 273.195 146.016C273.405 146.316 273.728 146.522 274.093 146.589C276.224 147.043 278.43 147.033 280.557 146.562C282.684 146.091 284.68 145.169 286.405 143.862C288.583 141.756 286.163 139.058 283.682 141.638ZM286.072 129.422C286.094 129.323 286.096 129.22 286.078 129.12C286.059 129.02 286.021 128.924 285.965 128.839C285.909 128.754 285.836 128.68 285.75 128.622C285.665 128.564 285.569 128.524 285.467 128.503C284.65 128.349 283.817 128.3 282.987 128.355C282.835 128.356 282.688 128.406 282.567 128.497C282.447 128.588 282.361 128.715 282.321 128.859C281.323 131.942 284.741 134.462 286.072 129.422Z" fill="white" fill-opacity="0.5"/>
<path fill-rule="evenodd" clip-rule="evenodd" d="M279.66 169.005C275.909 169.005 275.485 170.576 275.788 174.935C276.211 180.865 276.181 181.161 281.172 181.161C286.164 181.161 286.587 181.161 286.648 174.876C286.708 168.59 285.377 169.005 279.66 169.005ZM258.485 323.659C258.485 323.832 258.555 323.998 258.68 324.121C258.805 324.243 258.974 324.312 259.15 324.312C259.327 324.312 259.496 324.243 259.621 324.121C259.746 323.998 259.816 323.832 259.816 323.659C256.27 276.087 263.512 228.335 281.021 183.83C281.475 182.674 279.66 181.814 279.236 183C265.217 217.798 257.726 254.792 257.124 292.201C257.124 302.697 257.608 313.193 258.485 323.659ZM97.9178 305.78C92.3821 306.551 86.8463 306.818 81.2803 307.115C78.569 300.378 75.1633 293.931 71.1163 287.872C68.7266 284.907 67.6678 293.416 63.0396 309.457L44.1636 313.845C43.2863 314.053 42.1671 316.217 43.2863 317.018C46.7953 319.538 53.7226 323.481 57.6853 325.646C55.9308 330.538 52.7243 339.018 51.6353 343.614C51.3631 344.652 53.2688 346.579 54.3881 345.66L73.4758 331.487C79.6722 335.13 86.1445 338.302 92.8358 340.975C93.1029 341.094 93.3981 341.139 93.6893 341.104C93.9805 341.07 94.2565 340.958 94.4874 340.781C94.7182 340.603 94.895 340.367 94.9985 340.099C95.102 339.83 95.1282 339.538 95.0743 339.255C93.1872 333.221 90.7261 327.374 87.7236 321.791C92.0493 317.463 96.1028 312.896 100.277 308.39C101.427 306.878 99.2791 305.603 97.9178 305.78ZM84.6986 321.643C86.9673 326.743 89.4176 331.724 91.1721 337.002C88.7521 335.964 73.3548 327.751 72.4171 328.374L55.3561 341.479C57.1711 335.905 58.9558 330.331 60.7708 324.786C61.3456 322.918 48.3986 317.077 46.2508 315.891C49.2758 315.268 62.9791 312.926 64.8546 311.681C65.4293 311.295 69.9668 295.818 70.9046 293.001C72.4171 295.344 79.2536 309.427 80.4938 309.487C85.6121 309.754 90.7445 309.575 95.8306 308.953C94.3181 310.465 84.2751 320.516 84.7893 321.702L84.6986 321.643ZM73.2036 245.858C74.9883 246.836 75.4421 244.168 75.2606 243.13L71.3583 226.289L84.8498 217.898C86.4531 216.89 88.2076 214.34 85.7573 213.925C79.5561 212.857 73.2943 212.057 67.0628 211.138C65.187 204.391 62.8836 197.767 60.1658 191.302C60.0472 191.05 59.8574 190.836 59.6189 190.686C59.3803 190.537 59.103 190.457 58.8197 190.457C58.5364 190.457 58.2591 190.537 58.0205 190.686C57.782 190.836 57.5921 191.05 57.4736 191.302C55.6586 195.571 52.6336 205.148 51.2118 209.892C46.1903 210.159 34.1206 210.545 30.0368 211.227C29.1293 211.523 28.0706 213.302 28.9478 214.192L41.8948 225.696C40.5638 231.448 39.3236 237.289 38.1741 243.1C37.9623 244.197 39.3236 245.413 40.4126 244.761C46.1903 241.381 51.8773 237.823 57.5643 234.324C62.5858 238.297 67.8796 242.063 73.2036 245.858ZM44.2543 224.51C40.483 220.704 36.4394 217.166 32.1543 213.925L51.7866 213.065C53.7528 213.065 58.2601 197.825 59.1071 195.482C60.5893 199.989 63.1606 207.728 64.0983 210.693C65.0361 213.658 63.8261 213.183 67.2746 213.658L82.3996 216.089L69.3921 224.717C68.1518 225.548 71.6911 239.542 72.1146 241.707L58.1391 231.715C56.5963 230.618 43.0141 239.987 40.9571 241.321C41.9553 237.467 45.3736 228.068 44.2543 224.51ZM174.511 406.205C171.94 406.442 158.932 407.243 156.694 407.806L149.192 395.59C148.647 394.582 146.772 389.334 144.684 390.046C144.2 390.046 143.898 390.431 143.626 391.647C143.111 393.722 142.658 398.615 141.327 410.89C135.277 412.343 129.378 413.855 123.479 415.693C122.602 415.96 121.694 417.976 122.693 418.658C127.838 421.953 133.239 424.847 138.846 427.316C137.818 431.615 137.364 436.033 136.668 440.362C136.154 443.742 134.762 448.96 140.631 444.513C144.982 441.219 149.031 437.558 152.731 433.572C157.026 435.558 166.555 439.976 170.639 441.251C171.032 441.4 173.664 441.548 173.21 439.858C170.713 434.014 167.675 428.406 164.135 423.105C167.924 419.025 171.488 414.749 174.813 410.297C176.265 408.725 177.022 405.997 174.511 406.205ZM161.806 423.61L169.126 437.486C167.16 436.685 152.61 430.073 151.975 430.518C147.77 434.58 143.898 438.227 139.391 442.022C139.814 439.265 142.416 425.982 141.266 425.24C136.093 422.779 131.102 420.318 126.141 417.62C128.44 417.087 143.293 414.151 143.807 412.58C144.805 409.466 145.652 399.979 146.197 396.154C148.715 400.941 151.758 405.444 155.272 409.585C156.603 411.186 169.883 409.585 172.363 409.259C170.609 411.157 160.717 421.653 161.806 423.61ZM502.723 148.724C507.816 151.3 513.169 153.347 518.695 154.832L520.389 172.919C520.541 174.164 522.749 174.401 523.233 173.601L533.881 157.145C540.475 158.361 546.979 159.932 553.513 161.504C555.661 162.008 557.415 160.318 554.995 157.323C551.063 152.83 547.454 148.075 544.196 143.091C544.892 141.875 552.485 129.096 552.696 127.584C552.68 127.1 552.498 126.635 552.18 126.264C551.862 125.893 551.426 125.637 550.942 125.538C550.549 125.538 535.817 131.29 534.335 131.854C532.61 130.43 520.843 119.697 520.329 118.63C519.27 116.613 517.516 116.436 517.304 118.304L516.941 137.754L502.754 144.929C501.786 145.433 501.755 148.25 502.723 148.724ZM519.573 138.94C520.178 135.441 520.117 126.872 520.208 122.573C524.056 126.916 528.321 130.888 532.943 134.433C534.395 135.53 545.92 130.579 548.643 129.452L541.806 141.994C541.806 146.53 548.673 154.803 551.819 158.094C549.429 157.471 533.276 153.053 532.217 154.625C529.192 159.547 525.683 164.854 522.628 169.776L521.841 157.916C521.388 151.304 520.843 152.638 515.973 150.948L504.569 146.797C507.291 145.878 519.21 141.015 519.573 138.94ZM449.544 425.448C449.544 423.936 440.862 412.313 439.38 410.623C439.894 409.793 447.457 395.442 447.91 393.871C448.667 390.906 446.761 390.431 445.309 390.906C439.652 393.04 434.661 394.256 429.034 396.005C424.457 390.075 419.899 384.145 415.361 378.215C413.577 376.14 412.336 380.765 412.336 382.04C411.943 387.525 410.975 395.976 411.126 400.868L393.884 408.785C392.25 409.585 393.884 411.423 394.428 411.75L410.431 417.502C410.431 423.432 409.311 432.327 409.856 437.575C409.856 438.553 411.973 439.205 412.609 438.464C417.388 433.038 421.986 427.464 426.584 421.86C433.661 424.41 440.907 426.481 448.273 428.057C450.058 428.472 450.996 426.13 449.544 425.448ZM425.162 419.014C420.927 424.114 416.723 429.273 412.639 434.521C412.79 431.763 414 417.324 413.335 415.545C412.972 414.596 399.571 410.801 397.635 410.178C399.178 409.555 412.336 404.1 413.456 403.121C414.575 402.143 415.21 385.183 415.392 382.604L427.219 398.763C428.581 400.067 441.739 395.442 444.341 394.434C441.901 399.633 439.44 404.802 436.96 409.941C436.294 411.927 444.19 422.305 445.642 424.41C443.222 423.787 425.737 418.302 425.162 419.014ZM575.323 255.82L564.101 242.3C565.916 238.327 570.151 226.289 570.725 224.184C570.76 223.807 570.657 223.431 570.435 223.122C570.214 222.813 569.888 222.59 569.515 222.494C568.275 222.078 554.905 227.979 552.908 228.75C548.51 224.05 544.399 219.1 540.596 213.925C539.568 212.413 538.055 214.221 537.783 214.874C537.511 215.526 536.755 233.197 536.603 235.629L516.638 243.13C515.277 243.693 515.943 246.362 516.82 246.599L536.21 251.64V271.386C536.21 272.721 537.178 277.316 539.084 275.182C543.894 268.896 549.127 262.225 553.906 255.909C566.884 257.362 571.421 259.26 575.081 258.4C575.382 258.355 575.659 258.213 575.867 257.996C576.076 257.779 576.205 257.5 576.232 257.203C576.26 256.906 576.186 256.608 576.021 256.358C575.856 256.107 575.611 255.918 575.323 255.82ZM552.424 253.27C548.189 258.993 543.561 265.13 539.326 270.793C539.326 266.613 539.114 253.685 538.6 251.254C540.899 248.289 521.841 245.324 519.633 244.761C521.962 243.931 538.6 238.831 538.872 237.289C539.87 231.017 540.446 224.688 540.596 218.343C542.018 220.418 549.913 231.833 552.303 231.062C553.634 232.071 564.403 227.445 566.944 226.229C566.279 228.335 560.894 242.092 561.771 243.426C564.796 247.37 568.245 251.61 571.3 255.553C568.275 255.553 553.15 252.588 552.364 253.27H552.424ZM540.143 348.121C541.232 346.223 547.493 335.608 547.796 334.244C547.738 333.914 547.613 333.598 547.428 333.315C547.244 333.032 547.004 332.789 546.722 332.598C546.44 332.408 546.123 332.274 545.788 332.205C545.453 332.137 545.107 332.135 544.771 332.199C539.205 333.978 533.76 335.638 528.164 337.298C522.779 332.258 517.243 327.217 511.677 322.295C511.493 322.139 511.275 322.025 511.04 321.964C510.805 321.902 510.558 321.894 510.319 321.94C510.08 321.985 509.855 322.084 509.66 322.228C509.466 322.372 509.307 322.557 509.197 322.77C508.471 324.519 510.256 341.953 510.679 344.859L491.985 354.11C491.501 354.377 489.958 356.66 491.591 357.075L513.765 360.455C513.955 368.207 514.969 375.918 516.79 383.463C517.485 384.768 519.996 384.027 520.45 383.256L531.884 362.708C537.148 363.776 543.984 365.08 549.248 366.148C552.454 366.889 554.784 365.347 552.606 363.183C548.401 358.231 544.105 353.28 540.143 348.121ZM531.068 360.307C529.313 360.84 520.843 377.919 519.542 380.41C519.058 377.652 516.82 358.291 515.489 357.787C514.158 357.282 497.551 355.385 495.796 355.237C498.004 354.229 513.523 347.854 513.553 345.986C513.553 339.374 512.736 332.91 512.524 326.328C517.284 330.973 522.073 335.559 526.893 340.085C528.224 341.42 541.595 336.587 543.833 335.757C541.806 339.581 537.783 345.007 537.783 349.218C541.133 354.035 544.791 358.64 548.734 363.005C545.739 362.353 532.58 359.566 530.947 360.307H531.068ZM347.662 557.42C347.359 555.167 347.662 543.307 347.269 541.468C350.116 541.544 352.962 541.265 355.739 540.638C356.918 539.689 362.666 375.695 361.244 347.557C349.356 354.288 316.323 371.544 300.744 368.905C290.913 367.245 272.944 354.881 266.35 348.417C261.268 343.406 261.238 335.964 261.752 329.382L246.627 328.937C245.912 335.79 243.271 342.315 238.999 347.785C234.726 353.255 228.99 357.456 222.427 359.921C212.535 417.887 203.914 479.974 201.887 540.786C201.887 541.468 205.82 541.705 208.905 541.794C208.663 543.722 207.09 555.582 207.393 556.619C201.07 559.347 180.742 568.124 180.168 575.803C179.714 580.517 233.105 577.374 233.377 575.803C233.861 573.461 233.377 561.423 231.774 559.495C232.984 553.565 234.164 547.635 235.344 541.705C240.94 541.468 245.296 541.705 245.508 540.697C254.946 503.546 271.976 469.033 282.503 432.089C280.235 418.273 277.754 402.202 275.969 388.356C272.037 386.63 268.443 384.241 265.352 381.299C262.569 378.66 266.501 377.533 268.8 378.838C275.122 382.455 280.174 383.967 280.356 385.213C286.406 422.305 306.28 508.824 314.931 540.519C315.143 541.261 318.561 541.201 322.07 541.439C322.827 546.865 323.643 552.587 324.672 557.983C323.22 558.28 321.647 573.312 323.069 574.35C326.094 576.455 371.469 579.331 372.437 576.752C373.405 574.172 362.182 564.032 347.662 557.42ZM230.262 558.843C223.123 558.072 215.651 559.229 208.784 556.768C209.775 551.817 210.502 546.819 210.962 541.794H233.256C231.687 547.367 230.684 553.077 230.262 558.843ZM326.184 557.954C325.64 552.439 324.884 546.983 324.067 541.498C331.351 541.913 338.654 541.913 345.938 541.498C345.364 546.771 345.364 552.088 345.938 557.361C339.381 558.091 332.774 558.289 326.184 557.954Z" fill="white" fill-opacity="0.5"/>
<path fill-rule="evenodd" clip-rule="evenodd" d="M453.748 25.5877C453.355 22.2372 451.056 23.4529 450.118 24.6982C422.167 60.6637 394.065 96.4809 366.477 132.684C336.136 95.1763 294.694 48.4775 258.938 15.1212C258.152 14.4096 256.367 15.1212 256.064 15.9811C241.393 59.5073 227.508 108.459 215.983 153.231C178.624 133.514 128.258 111.721 88.3282 95.3541C87.4207 94.9984 83.9419 94.5239 84.4562 96.6884C108.323 202.094 143.141 313.934 155.392 347.35C156.239 349.722 156.935 349.988 159.416 349.662C177.263 347.646 195.716 344.088 213.563 341.182L214.289 350.789C214.864 358.498 221.035 354.762 225.391 351.856C232.344 347.869 237.499 341.449 239.82 333.888C242.543 324.638 242.21 281.141 242.845 268.866C245.023 269.904 249.893 265.693 248.532 260.86C249.517 259.975 250.16 258.783 250.353 257.487C250.546 256.191 250.277 254.869 249.591 253.744C254.582 249.653 249.803 243.693 245.174 241.529C247.594 220.003 253.675 186.735 260.572 172.474L262.296 171.792C262.135 175.276 262.277 178.768 262.719 182.229C262.747 182.561 262.862 182.881 263.051 183.158C263.241 183.435 263.499 183.659 263.802 183.811C264.105 183.962 264.443 184.035 264.783 184.023C265.122 184.011 265.454 183.914 265.744 183.741C268.446 181.952 271.032 180.001 273.488 177.9C273.191 175.51 273.12 173.098 273.277 170.695C270.58 168.274 267.519 166.274 264.202 164.765C262.145 163.935 262.417 168.382 262.356 169.331C224.604 183.83 184.916 219.202 173.724 258.459C168.46 276.931 170.336 319.983 200.949 315.001C212.777 313.044 224.877 299.109 231.895 288.109C236.825 280.341 238.943 286.359 235.525 291.726C229.563 300.672 222.331 308.738 214.047 315.683C213.422 323.079 213.25 330.505 213.533 337.921C195.383 340.886 176.719 344.414 158.357 347.172C150.28 320.487 121.089 238.356 88.2072 98.1116C126.746 114.33 176.477 137.339 213.533 155.633C217.586 157.649 217.586 158.123 218.645 154.12C230.745 109.942 244.025 61.1677 258.605 18.531C295.904 56.6016 330.903 94.0199 364.48 135.56C365.055 136.271 366.689 137.072 367.505 136.093C395.819 100.335 423.619 64.192 451.6 28.1672C460.494 114.389 466.332 203.843 465.304 292.794C445.339 296.747 425.364 300.572 405.378 304.268C421.35 277.761 405.227 241.588 388.529 219.113C368.306 191.837 338.765 172.583 305.281 164.854C305.281 155.218 304.646 146.085 309.788 137.368C311.331 134.729 313.751 132.357 313.237 129.126C319.983 123.729 323.492 113.796 325.125 105.702C327.908 91.9741 316.05 94.9391 308.185 97.0146C298.112 99.6534 281.232 95.8286 271.583 93.16C265.775 91.559 251.194 87.8824 249.107 96.4809C247.383 103.449 257.577 109.883 263.234 111.78C258.363 127.94 254.159 159.695 271.099 163.193C271.099 164.201 270.887 165.21 270.796 166.158C271.522 166.455 272.218 166.781 272.853 167.107C272.853 165.951 273.277 161.563 271.764 161.177C260.632 157.619 260.572 143.387 261.237 134.107C261.816 126.745 262.928 119.432 264.565 112.225C271.884 114.036 279.604 113.496 286.587 110.683C290.822 109.112 300.774 102.885 305.19 106.414C308.972 109.379 299.655 112.937 300.895 125.271C301.712 133.514 306.279 126.516 309.728 127.554C310.184 127.717 310.576 128.016 310.848 128.41C311.119 128.805 311.257 129.273 311.24 129.748C311.513 134.433 301.53 137.754 303.012 163.875C300.32 163.164 291.275 169.568 289.097 171.11C289.421 173.666 289.35 176.254 288.886 178.789C293.242 181.428 300.804 184.541 301.591 184.067C302.952 183.266 305.342 171.822 304.918 167.137C308.215 167.878 311.482 168.768 314.689 169.776C304.404 181.636 282.896 223.946 279.992 240.936C277.847 240.731 275.686 241.103 273.74 242.012C271.795 242.921 270.139 244.333 268.951 246.095C265.533 251.521 263.203 262.521 267.711 267.65C269.193 269.105 271.056 270.131 273.095 270.615C269.362 290.994 267.208 311.62 266.652 332.317C266.652 337.387 266.864 341.212 271.522 345.393C278.056 351.323 292.697 361.908 301.288 363.183C314.235 365.347 350.565 348.654 363.27 339.463C364.53 338.272 365.295 336.667 365.418 334.956C365.825 332.127 365.896 329.261 365.63 326.417C337.113 322.649 310.556 310.096 289.793 290.57C286.768 287.605 289.339 284.195 292.637 287.13C318.924 310.495 373.949 338.632 402.656 307.885C424.154 303.932 445.641 299.821 467.119 295.551C468.571 295.284 468.329 293.624 468.329 292.378C468.879 203.243 464.011 114.155 453.748 25.5877ZM231.048 212.116C231.38 210.663 235.857 206.957 237.824 205.415C236.009 204.259 232.288 201.62 232.621 199.9C233.256 196.668 242.18 184.66 244.388 181.873C245.87 180.035 248.956 182.377 247.413 184.245C243.697 189.042 240.456 194.175 237.733 199.574C242.059 203.547 243.601 203.28 243.783 204.941C243.783 207.55 238.035 210.871 235.585 213.065C235.888 219.331 236.2 225.607 236.523 231.892C236.523 234.383 232.832 234.413 232.621 231.892C232.409 229.372 230.594 214.043 231.048 212.116ZM241.151 240.432C238.764 240.086 236.33 240.248 234.012 240.906C236.433 238.042 238.132 234.659 238.973 231.033C239.82 228.068 241.575 228.542 241.998 230.795C242.384 234.031 242.096 237.309 241.151 240.432ZM244.358 243.397C248.199 245.235 250.982 248.289 248.502 252.44C247.292 251.046 243.39 247.37 241.454 248.378C241.35 248.433 241.261 248.511 241.192 248.605C241.124 248.699 241.077 248.807 241.057 248.921C241.037 249.035 241.043 249.152 241.075 249.263C241.107 249.374 241.164 249.477 241.242 249.564C241.726 250.097 251.134 253.893 247.625 259.141C246.747 257.658 243.662 254.96 241.847 255.346C241.748 255.36 241.653 255.393 241.568 255.445C241.483 255.497 241.41 255.565 241.353 255.646C241.296 255.727 241.257 255.818 241.238 255.914C241.219 256.011 241.22 256.11 241.242 256.205C241.605 257.955 246.173 257.747 246.687 262.135C246.804 263.273 246.511 264.415 245.859 265.362C245.207 266.31 244.237 267.004 243.117 267.324C244.69 264.359 240.425 262.046 238.005 264.359C237.672 264.656 237.672 265.545 239.094 265.13C239.53 265.011 239.99 265.011 240.425 265.13C237.4 273.402 227.206 268.54 225.3 260.801C224.153 255.834 225.021 250.624 227.72 246.273C233.649 242.922 237.37 240.165 244.358 243.515V243.397ZM187.76 255.257C187.394 255.415 186.983 255.441 186.6 255.331C186.217 255.221 185.885 254.981 185.664 254.655C185.443 254.329 185.347 253.936 185.393 253.547C185.439 253.158 185.624 252.797 185.915 252.529C194.301 246.553 203.843 242.316 213.956 240.076C216.017 231.98 218.707 224.05 222.003 216.356C222.759 214.547 225.814 215.763 225.028 217.542C222.301 224.675 220.047 231.975 218.282 239.394C219.633 239.255 220.964 239.167 222.275 239.127C223.939 239.127 224.574 241.677 222.789 242.092C210.262 244.009 198.31 248.571 187.76 255.464V255.257ZM233.558 280.696C218.191 278.235 208.663 260.89 221.791 246.243L226.147 246.095C221.912 251.195 221.458 263.529 228.234 269.014C229.397 269.974 230.762 270.671 232.231 271.056C233.701 271.44 235.238 271.502 236.735 271.238C236.087 274.576 235.02 277.823 233.558 280.904V280.696ZM292.848 235.895C295.51 232.307 305.795 218.105 308.457 215.14C307.096 213.806 303.799 210.307 304.253 208.172C304.318 207.838 304.477 207.527 304.712 207.276C304.947 207.024 305.249 206.842 305.584 206.749L315.294 203.073L321.344 180.064C321.383 179.816 321.474 179.578 321.611 179.366C321.749 179.154 321.93 178.973 322.143 178.833C322.356 178.694 322.596 178.599 322.848 178.556C323.101 178.512 323.36 178.521 323.608 178.581C323.857 178.641 324.091 178.751 324.294 178.904C324.497 179.057 324.665 179.25 324.788 179.471C324.91 179.691 324.985 179.934 325.007 180.184C325.028 180.435 324.997 180.687 324.913 180.924C323.976 184.838 320.769 204.288 318.168 206.245C315.509 207.776 312.635 208.915 309.637 209.625C311.936 211.641 314.507 213.717 312.844 216.474C312.057 217.868 298.142 235.599 295.934 238.326C294.512 240.165 291.457 237.971 292.848 236.103V235.895ZM283.592 234.235C289.43 224.094 289.128 233.019 288.613 238C288.477 239.53 288.694 241.071 289.249 242.507C286.797 241.501 284.189 240.909 281.535 240.758C281.747 238.466 282.448 236.244 283.592 234.235ZM269.223 266.138C265.2 262.61 268.013 251.106 270.947 246.836C274.638 241.558 282.563 241.558 287.978 243.871C283.876 246.772 280.737 250.795 278.956 255.437C277.175 260.078 276.831 265.131 277.965 269.963C274.831 269.242 271.864 267.944 269.223 266.138ZM288.916 280.548L279.841 271.653C276.816 258.222 283.289 247.399 291.759 244.138C294.603 244.345 297.809 244.138 300.653 244.138C292.848 253.478 286.284 268.125 288.765 280.548H288.916ZM378.123 258.696C356.676 248.035 332.959 242.498 308.911 242.537C306.794 242.537 306.975 239.572 308.911 239.364C317.851 238.963 326.809 239.44 335.652 240.787C335.35 239.69 333.988 234.679 333.595 233.286C333.427 232.893 333.424 232.45 333.589 232.055C333.753 231.66 334.071 231.346 334.472 231.181C334.874 231.016 335.325 231.013 335.728 231.175C336.131 231.336 336.452 231.647 336.62 232.041C338.08 235.113 339.255 238.309 340.129 241.588C354.032 244.201 367.348 249.221 379.454 256.413C381.36 257.243 379.787 259.497 378.123 258.696Z" fill="white" fill-opacity="0.5"/>
</svg>
