<svg width="655" height="795" viewBox="0 0 655 795" fill="none" xmlns="http://www.w3.org/2000/svg">
<path d="M574.7 241.322C573.533 242.714 572.286 244.041 570.965 245.297C570.823 245.46 570.733 245.66 570.705 245.872C570.677 246.084 570.713 246.3 570.808 246.493C570.903 246.685 571.054 246.848 571.242 246.96C571.43 247.072 571.647 247.129 571.868 247.125C576.629 244.298 580.393 240.14 582.664 235.2C583.239 233.531 580.571 232.02 579.708 233.849C577.451 238.658 568.912 238.937 566.655 238.181C566.344 238.071 566.001 238.084 565.701 238.218C565.401 238.352 565.168 238.596 565.054 238.897C564.939 239.197 564.953 239.529 565.092 239.82C565.23 240.111 565.482 240.336 565.793 240.447C568.651 241.405 571.701 241.705 574.7 241.322ZM559.799 221.049C557.867 222.714 555.824 224.255 553.683 225.66C553.281 225.912 552.952 226.261 552.729 226.671C552.507 227.082 552.397 227.542 552.41 228.005C552.41 229.436 557.583 233.173 557.624 233.213C557.841 233.369 558.108 233.446 558.378 233.43C558.649 233.414 558.904 233.307 559.101 233.126C559.297 232.946 559.421 232.704 559.451 232.443C559.481 232.183 559.416 231.92 559.266 231.702C558.978 231.185 557.336 229.238 556.31 227.926C560.949 223.434 563.042 221.963 561.482 220.85C561.22 220.693 560.911 220.627 560.605 220.663C560.299 220.699 560.015 220.835 559.799 221.049ZM556.228 218.624C557.87 217.909 557.459 216.08 559.43 211.31C559.508 211.138 559.55 210.953 559.554 210.764C559.559 210.576 559.524 210.389 559.454 210.214C559.383 210.039 559.278 209.878 559.143 209.743C559.009 209.607 558.848 209.498 558.67 209.422C558.492 209.347 558.301 209.305 558.107 209.301C557.912 209.297 557.719 209.331 557.538 209.399C557.357 209.467 557.192 209.569 557.051 209.699C556.911 209.83 556.799 209.985 556.72 210.158C554.422 214.808 552.616 215.762 553.354 217.392C553.444 217.667 553.592 217.92 553.79 218.134C553.989 218.349 554.232 218.52 554.504 218.637C554.775 218.754 555.07 218.813 555.367 218.811C555.664 218.808 555.958 218.745 556.228 218.624ZM573.14 223.673C574.782 222.957 574.413 221.089 576.342 216.359C576.5 216.011 576.509 215.616 576.366 215.262C576.224 214.908 575.942 214.623 575.583 214.47C575.224 214.318 574.816 214.309 574.451 214.447C574.085 214.585 573.791 214.858 573.633 215.206C571.745 219.181 569.528 220.85 570.226 222.44C570.32 222.716 570.473 222.97 570.675 223.185C570.877 223.4 571.124 223.571 571.399 223.687C571.674 223.803 571.971 223.862 572.271 223.86C572.571 223.857 572.868 223.793 573.14 223.673ZM238.46 156.654C236.489 142.463 236.859 142.145 235.586 142.145C163.831 142.145 167.649 141.668 167.649 143.139V156.296C167.649 156.853 168.1 157.529 168.675 157.529C241.292 157.767 238.706 158.165 238.46 156.654ZM261.407 142.145C241.785 142.145 242.934 142.145 242.483 142.463C242.031 142.781 242.113 142.185 244.002 156.893C244.002 158.125 244.207 157.767 261.407 157.767C261.679 157.767 261.94 157.662 262.132 157.476C262.325 157.29 262.433 157.037 262.433 156.773V143.099C262.422 142.843 262.31 142.6 262.118 142.422C261.927 142.244 261.672 142.145 261.407 142.145ZM616.9 142.384L590.874 144.133C590.747 144.133 590.62 144.158 590.503 144.206C590.386 144.254 590.28 144.325 590.192 144.415C590.103 144.504 590.035 144.609 589.99 144.725C589.945 144.84 589.924 144.963 589.93 145.087V160.112C589.93 160.376 590.038 160.629 590.23 160.815C590.423 161.001 590.684 161.106 590.956 161.106H616.941C617.213 161.106 617.474 161.001 617.667 160.815C617.859 160.629 617.967 160.376 617.967 160.112C617.967 143.099 618.419 142.344 616.9 142.384ZM181.154 213.139V201.413C181.154 201.149 181.046 200.896 180.853 200.71C180.661 200.524 180.4 200.419 180.128 200.419H170.071C169.798 200.419 169.537 200.524 169.345 200.71C169.152 200.896 169.044 201.149 169.044 201.413C169.044 214.57 169.044 213.934 169.373 214.331C169.701 214.729 169.373 214.649 180.169 214.133C180.43 214.113 180.676 214.001 180.857 213.818C181.039 213.635 181.145 213.393 181.154 213.139ZM239.773 197.756C183.617 200.578 185.711 199.982 185.711 201.413C185.711 213.576 185.711 212.98 185.998 213.338C186.285 213.695 183.124 213.656 239.814 212.861C240.087 212.861 240.348 212.756 240.54 212.57C240.733 212.383 240.841 212.13 240.841 211.867V198.749C240.847 198.614 240.823 198.478 240.772 198.352C240.72 198.226 240.64 198.113 240.539 198.019C240.438 197.924 240.318 197.852 240.186 197.807C240.054 197.762 239.913 197.744 239.773 197.756ZM323.023 197.716V209.243C323.023 209.507 323.131 209.76 323.323 209.946C323.516 210.132 323.777 210.237 324.049 210.237C338.17 210.237 337.472 210.237 337.924 209.879C338.376 209.522 338.293 209.879 336.446 197.557C336.446 196.364 335.83 196.722 324.131 196.722C323.99 196.711 323.847 196.729 323.713 196.774C323.579 196.819 323.456 196.89 323.352 196.983C323.248 197.077 323.165 197.19 323.108 197.316C323.051 197.442 323.022 197.578 323.023 197.716ZM383.489 210.038C383.941 209.522 383.818 210.038 382.381 198.352C382.381 197.12 384.434 197.557 344.164 196.841C344.018 196.84 343.873 196.869 343.74 196.927C343.607 196.984 343.488 197.068 343.391 197.173C343.294 197.279 343.221 197.403 343.177 197.537C343.133 197.672 343.12 197.814 343.137 197.954C344.697 210.356 344.41 210.356 345.641 210.356C385.87 210.356 383.038 210.674 383.489 210.038ZM390.961 210.237C408.448 210.714 407.381 210.794 407.832 210.237C408.284 209.681 408.161 210.515 408.161 197.597C408.15 197.329 408.033 197.077 407.834 196.891C407.635 196.706 407.369 196.603 407.093 196.603C388.046 197.318 389.154 197.12 388.744 197.597C388.333 198.074 388.457 197.597 389.975 209.243C389.993 209.495 390.102 209.732 390.282 209.913C390.462 210.095 390.702 210.21 390.961 210.237ZM185.505 261.038C187.927 246.33 187.927 247.125 187.476 246.648C187.024 246.171 187.722 246.251 173.355 247.006C173.097 247.026 172.856 247.139 172.681 247.324C172.506 247.508 172.41 247.749 172.41 248V261.753C172.41 262.017 172.519 262.269 172.711 262.456C172.903 262.642 173.164 262.747 173.437 262.747L184.725 261.872C184.93 261.831 185.116 261.728 185.256 261.578C185.396 261.428 185.484 261.239 185.505 261.038ZM204.717 260.163C204.717 245.734 204.717 246.529 204.388 246.092C204.06 245.654 204.635 245.813 193.264 246.29C192.073 246.29 192.32 246.29 190.719 260.044C190.701 260.184 190.715 260.326 190.758 260.461C190.802 260.596 190.875 260.72 190.972 260.825C191.069 260.93 191.188 261.014 191.322 261.072C191.455 261.129 191.599 261.158 191.745 261.157H203.69C203.963 261.157 204.224 261.052 204.416 260.866C204.609 260.679 204.717 260.427 204.717 260.163ZM225.242 245.575C225.242 259.964 225.242 259.169 225.529 259.607C225.816 260.044 219.741 260.243 326.307 254.558C326.45 254.549 326.589 254.511 326.715 254.447C326.842 254.382 326.954 254.293 327.042 254.184C327.131 254.076 327.196 253.95 327.232 253.816C327.268 253.682 327.274 253.542 327.251 253.406L324.624 237.188C324.583 236.938 324.446 236.713 324.24 236.558C324.034 236.403 323.775 236.33 323.515 236.353C220.357 245.177 225.242 244.144 225.242 245.575ZM361.528 252.014C361.528 233.133 361.528 234.246 361.199 233.809C360.871 233.372 362.636 233.292 331.438 236.273C331.159 236.313 330.905 236.454 330.73 236.668C330.554 236.883 330.47 237.154 330.494 237.426C333.121 254.081 332.793 254.161 334.024 254.161L360.543 253.008C360.808 252.998 361.058 252.889 361.242 252.703C361.425 252.518 361.528 252.271 361.528 252.014ZM384.146 234.524V251.537C384.146 251.801 384.254 252.054 384.447 252.24C384.639 252.426 384.9 252.531 385.173 252.531H411.321C411.594 252.531 411.855 252.426 412.047 252.24C412.24 252.054 412.348 251.801 412.348 251.537C412.348 232.06 412.348 233.372 412.019 232.934C411.691 232.497 413.62 232.537 385.131 233.531C384.866 233.541 384.616 233.65 384.432 233.835C384.249 234.021 384.146 234.268 384.146 234.524ZM515.424 185.195C486.689 186.904 487.633 186.347 487.633 187.699V203.082C487.633 203.346 487.741 203.598 487.934 203.785C488.126 203.971 488.387 204.076 488.66 204.076H515.506C515.778 204.076 516.039 203.971 516.232 203.785C516.424 203.598 516.533 203.346 516.533 203.082C516.533 186.188 516.984 185.115 515.424 185.195ZM196.63 314.501C197.902 294.865 197.943 296.455 197.533 296.018C197.122 295.58 198.764 295.7 175.284 295.7C175.012 295.7 174.751 295.804 174.558 295.991C174.366 296.177 174.258 296.43 174.258 296.693V314.462C174.258 314.725 174.366 314.978 174.558 315.164C174.751 315.351 175.012 315.455 175.284 315.455H195.604C195.866 315.446 196.116 315.344 196.305 315.168C196.494 314.992 196.61 314.755 196.63 314.501ZM250.611 294.587C250.346 294.597 250.095 294.706 249.911 294.891C249.728 295.077 249.625 295.324 249.625 295.58V310.646C249.625 310.909 249.734 311.162 249.926 311.348C250.118 311.535 250.38 311.639 250.652 311.639H266.825C267.098 311.639 267.359 311.535 267.551 311.348C267.744 311.162 267.852 310.909 267.852 310.646V294.984C267.841 294.717 267.724 294.464 267.525 294.279C267.326 294.094 267.06 293.99 266.784 293.99L250.611 294.587ZM345.477 291.526C270.068 293.434 273.927 293.235 273.927 294.666C273.927 311.56 273.927 310.566 274.214 311.003C274.502 311.441 270.109 311.48 345.559 309.731C345.821 309.712 346.066 309.6 346.248 309.417C346.43 309.233 346.535 308.992 346.544 308.738V292.52C346.551 292.384 346.527 292.249 346.475 292.123C346.423 291.997 346.344 291.883 346.243 291.789C346.142 291.695 346.022 291.623 345.889 291.577C345.757 291.532 345.617 291.514 345.477 291.526ZM410.993 291.168C409.269 307.545 409.228 306.551 409.679 307.068C410.131 307.585 407.504 307.386 442.273 307.386C442.444 307.402 442.616 307.376 442.774 307.31C442.931 307.245 443.07 307.142 443.176 307.012C443.282 306.881 443.353 306.727 443.381 306.563C443.41 306.4 443.396 306.231 443.34 306.074C439.728 289.578 440.097 289.499 438.866 289.538C410.131 290.174 411.116 289.936 410.993 291.168ZM451.099 307.187H462.921C463.18 307.188 463.429 307.094 463.619 306.925C463.81 306.755 463.927 306.523 463.947 306.273C465.672 288.028 465.713 289.181 465.22 288.704C464.727 288.227 465.959 288.346 446.789 289.459C446.641 289.472 446.498 289.515 446.369 289.587C446.241 289.659 446.13 289.756 446.044 289.873C445.958 289.991 445.899 290.124 445.872 290.265C445.845 290.407 445.849 290.552 445.885 290.691C450.401 307.664 449.99 307.187 451.099 307.187ZM292.933 135.388C277.622 146.478 275.487 147.551 275.405 148.943C275.405 151.049 283.615 158.165 283.902 158.244C284.13 158.365 284.393 158.41 284.65 158.373C284.907 158.336 285.144 158.218 285.326 158.038C285.507 157.857 285.623 157.624 285.655 157.375C285.687 157.125 285.634 156.872 285.503 156.654C284.231 155.024 281.111 150.93 280.126 149.579C282.137 147.671 290.675 140.675 294.698 137.654C296.176 136.541 294.411 134.315 292.933 135.388ZM350.896 134.354C350.643 134.163 350.329 134.064 350.008 134.076C349.687 134.088 349.381 134.21 349.145 134.42C348.908 134.63 348.756 134.914 348.716 135.223C348.676 135.531 348.75 135.843 348.925 136.103C352.602 140.857 355.935 145.851 358.901 151.049C358.901 151.447 352.907 158.522 350.485 162.14C350.319 162.374 350.252 162.661 350.298 162.942C350.344 163.223 350.499 163.476 350.732 163.65C350.964 163.815 351.244 163.904 351.532 163.904C351.82 163.904 352.1 163.815 352.333 163.65C354.631 161.305 361.158 154.11 362.061 152.759C364.524 148.903 356.643 140.396 350.896 134.354ZM310.215 137.097C309.493 136.87 308.728 136.794 307.973 136.876C307.218 136.958 306.49 137.195 305.837 137.571C305.184 137.948 304.622 138.455 304.187 139.058C303.753 139.662 303.457 140.349 303.319 141.072C302.987 144.148 302.85 147.241 302.908 150.334H298.803C298.397 150.395 298.027 150.595 297.759 150.898C297.492 151.2 297.344 151.585 297.344 151.983C297.344 152.382 297.492 152.767 297.759 153.069C298.027 153.372 298.397 153.572 298.803 153.633L303.114 154.269C303.085 156.397 303.237 158.524 303.565 160.629C303.935 162.776 307.054 162.338 307.301 160.351C307.465 158.446 307.465 156.532 307.301 154.627C309.23 154.627 311.118 154.627 311.406 152.798C311.693 150.97 309.23 150.692 307.301 150.533C306.931 142.265 307.793 141.032 307.957 140.834C309.066 139.999 310.831 140.834 309.189 143.338C308.997 143.613 308.924 143.95 308.985 144.277C309.047 144.604 309.238 144.895 309.517 145.087C311.488 146.518 314.649 139.124 310.215 137.097ZM323.639 149.857C321.862 149.976 320.079 149.976 318.302 149.857C317.954 149.857 317.62 149.991 317.373 150.229C317.127 150.468 316.988 150.791 316.988 151.129C316.988 151.466 317.127 151.79 317.373 152.028C317.62 152.267 317.954 152.401 318.302 152.401L322.407 152.918C324.665 153.236 323.433 152.361 324.049 157.648C324.049 158.207 324.278 158.742 324.686 159.138C325.094 159.533 325.648 159.755 326.225 159.755C326.802 159.755 327.355 159.533 327.763 159.138C328.171 158.742 328.4 158.207 328.4 157.648C328.377 156.319 328.281 154.992 328.113 153.673H330.453C330.997 153.673 331.519 153.463 331.904 153.091C332.289 152.718 332.505 152.212 332.505 151.685C332.505 151.158 332.289 150.653 331.904 150.28C331.519 149.907 330.997 149.698 330.453 149.698C327.046 149.698 327.538 149.936 327.456 149.3C327.128 147.472 326.799 145.604 326.635 143.775C326.635 143.438 326.497 143.114 326.25 142.876C326.004 142.637 325.67 142.503 325.322 142.503C324.973 142.503 324.639 142.637 324.393 142.876C324.146 143.114 324.008 143.438 324.008 143.775C323.803 146.319 323.639 148.903 323.639 149.857Z" fill="white" fill-opacity="0.5"/>
<path d="M344.82 149.062C344.61 147.413 344.487 145.754 344.45 144.093C344.395 143.789 344.231 143.514 343.987 143.316C343.743 143.117 343.435 143.009 343.116 143.009C342.798 143.009 342.489 143.117 342.245 143.316C342.001 143.514 341.837 143.789 341.782 144.093C341.782 145.882 341.536 147.551 341.371 149.34C339.799 149.435 338.223 149.435 336.651 149.34C336.286 149.398 335.954 149.58 335.714 149.853C335.475 150.126 335.343 150.472 335.343 150.831C335.343 151.189 335.475 151.535 335.714 151.809C335.954 152.082 336.286 152.263 336.651 152.321C338.17 152.321 339.565 152.56 341.125 152.679C340.797 156.177 340.468 159.715 343.219 159.715C345.969 159.715 345.641 156.137 345.312 152.838C347.57 152.838 350.526 152.838 350.444 150.771C350.361 148.704 347.201 148.863 344.82 149.062ZM261.406 172.395C256.234 173.707 253.196 178.675 252.703 185.632C252.498 191.395 254.181 198.709 248.968 202.088C248.606 202.323 248.324 202.655 248.156 203.044C247.988 203.433 247.942 203.861 248.024 204.274C248.763 207.772 255.249 202.764 253.935 217.63C253.439 219.521 253.45 221.503 253.967 223.388C254.485 225.274 255.491 227 256.891 228.403C258.184 229.291 259.67 229.881 261.235 230.129C262.8 230.377 264.403 230.276 265.922 229.834C266.204 229.764 266.455 229.605 266.633 229.381C266.812 229.158 266.909 228.884 266.909 228.601C266.909 228.319 266.812 228.045 266.633 227.822C266.455 227.598 266.204 227.439 265.922 227.369C263.089 226.972 259.805 227.369 258.327 225.024C257.074 221.807 256.887 218.292 257.794 214.967C258.205 212.829 258.072 210.625 257.407 208.548C256.742 206.47 255.564 204.58 253.976 203.042C260.996 194.734 252.047 178.238 262.186 174.899C262.45 174.743 262.653 174.507 262.763 174.228C262.873 173.949 262.885 173.642 262.795 173.355C262.706 173.069 262.521 172.819 262.27 172.645C262.019 172.472 261.715 172.384 261.406 172.395ZM312.924 175.217C309.845 171.918 305.535 173.508 302.251 172.951C302.059 172.912 301.862 172.91 301.67 172.945C301.477 172.98 301.294 173.051 301.13 173.154C300.966 173.257 300.825 173.391 300.714 173.547C300.604 173.703 300.526 173.879 300.486 174.064C300.445 174.25 300.443 174.441 300.479 174.627C300.515 174.813 300.588 174.991 300.695 175.15C300.801 175.308 300.939 175.445 301.101 175.552C301.262 175.659 301.444 175.735 301.635 175.774C305.083 176.41 308.942 175.456 310.379 178.477C313.088 184.28 306.889 199.266 312.226 205.626C307.464 211.231 313.129 220.095 308.86 224.11C307.258 225.482 305.167 226.195 303.031 226.097C302.713 226.043 302.385 226.104 302.11 226.268C301.836 226.433 301.633 226.69 301.542 226.99C301.451 227.29 301.476 227.612 301.615 227.895C301.753 228.177 301.994 228.401 302.292 228.522C303.475 228.893 304.722 229.034 305.962 228.937C307.201 228.84 308.409 228.506 309.515 227.956C310.621 227.406 311.604 226.649 312.408 225.73C313.211 224.811 313.819 223.747 314.196 222.599C314.745 220.271 314.745 217.852 314.196 215.524C312.842 206.023 317.029 208.607 317.111 205.785C317.193 202.963 313.293 205.149 313.991 196.921C315.099 186.148 316.536 179.073 312.924 175.217Z" fill="white" fill-opacity="0.5"/>
<path d="M271.628 191.118C270.316 191.035 269.006 191.303 267.841 191.892C266.676 192.481 265.699 193.368 265.019 194.457C264.053 195.329 263.334 196.426 262.932 197.644C262.529 198.862 262.456 200.16 262.72 201.413C263.622 203.367 265.193 204.96 267.167 205.923C269.141 206.886 271.398 207.16 273.557 206.7C272.613 210.675 271.505 212.503 266.209 211.47C265.841 211.447 265.476 211.552 265.18 211.765C264.884 211.979 264.676 212.287 264.592 212.635C264.509 212.983 264.555 213.348 264.723 213.666C264.891 213.984 265.171 214.234 265.511 214.371C270.355 215.484 274.953 214.371 276.431 209.919C281.028 198.75 276.431 192.032 271.628 191.118ZM270.109 203.043C267.441 202.128 266.784 201.055 266.579 200.26C266.373 199.465 266.948 198.034 268.097 196.722C269.247 195.411 269.986 194.496 271.135 194.934C275.486 196.722 275.035 204.831 270.109 203.162V203.043ZM291.085 200.817C284.148 199.624 279.879 207.574 282.875 211.311C284.316 212.666 286.245 213.424 288.253 213.424C290.261 213.424 292.19 212.666 293.631 211.311C293.631 212.304 293.631 213.417 293.877 214.014C293.886 214.289 294.001 214.55 294.198 214.749C294.395 214.947 294.661 215.067 294.944 215.087C295.231 215.087 295.507 214.979 295.714 214.787C295.92 214.594 296.042 214.331 296.052 214.053C296.052 212.543 296.791 205.706 296.627 205.229C296.223 204.065 295.489 203.034 294.509 202.254C293.529 201.474 292.343 200.976 291.085 200.817ZM292.727 205.626C292.727 206.819 291.209 208.727 290.47 209.124C288.417 210.198 286.365 210.118 285.872 209.403C285.379 208.687 286.98 204.275 289.484 204.275C290.429 204.275 292.522 204.672 292.727 205.626ZM534.06 142.424C528.108 141.39 522.525 148.744 524.865 154.945C525.412 156.735 526.592 158.281 528.198 159.313C529.804 160.345 531.734 160.797 533.65 160.59C544.98 159.437 542.64 143.974 534.06 142.424ZM533.65 156.575C528.437 157.767 526.589 151.368 529.545 147.671C529.944 147.113 530.47 146.652 531.082 146.321C531.694 145.99 532.375 145.799 533.075 145.763C534.057 145.934 534.984 146.325 535.782 146.905C536.581 147.485 537.228 148.237 537.673 149.102C538.162 150.609 538.013 152.243 537.258 153.644C536.504 155.046 535.206 156.1 533.65 156.575ZM557.377 143.696C557.007 146.558 554.626 157.211 554.585 159.993C554.641 160.45 554.853 160.876 555.187 161.204C555.521 161.531 555.959 161.741 556.43 161.8C556.901 161.86 557.38 161.765 557.789 161.531C558.198 161.297 558.516 160.938 558.69 160.51C559.347 157.728 559.758 146.717 560.086 143.974C560.414 142.185 557.623 141.987 557.377 143.696ZM544.898 159.198C544.646 159.127 544.381 159.11 544.122 159.148C543.863 159.186 543.615 159.278 543.396 159.418C543.178 159.558 542.993 159.743 542.855 159.959C542.718 160.175 542.63 160.417 542.599 160.669C542.229 163.929 538.206 164.922 539.479 166.632C539.655 166.881 539.919 167.06 540.222 167.133C540.525 167.206 540.845 167.169 541.121 167.029C542.329 166.499 543.41 165.73 544.294 164.772C545.177 163.813 545.844 162.687 546.252 161.464C546.32 161.229 546.339 160.983 546.307 160.741C546.276 160.499 546.194 160.266 546.068 160.055C545.942 159.844 545.773 159.659 545.572 159.512C545.371 159.365 545.142 159.258 544.898 159.198ZM516.163 156.297C516.163 155.411 515.799 154.562 515.153 153.936C514.506 153.309 513.629 152.958 512.714 152.958C511.8 152.958 510.923 153.309 510.276 153.936C509.629 154.562 509.266 155.411 509.266 156.297C509.266 157.182 509.629 158.031 510.276 158.658C510.923 159.284 511.8 159.636 512.714 159.636C513.629 159.636 514.506 159.284 515.153 158.658C515.799 158.031 516.163 157.182 516.163 156.297ZM416.616 207.455C416.616 208.34 416.98 209.19 417.626 209.816C418.273 210.442 419.15 210.794 420.065 210.794C420.979 210.794 421.856 210.442 422.503 209.816C423.149 209.19 423.513 208.34 423.513 207.455C423.513 206.569 423.149 205.72 422.503 205.094C421.856 204.468 420.979 204.116 420.065 204.116C419.15 204.116 418.273 204.468 417.626 205.094C416.98 205.72 416.616 206.569 416.616 207.455ZM209.355 310.05C209.408 309.583 209.358 309.111 209.21 308.665C209.062 308.218 208.818 307.807 208.495 307.457C208.171 307.108 207.776 306.828 207.333 306.637C206.891 306.446 206.412 306.347 205.927 306.347C205.443 306.347 204.964 306.446 204.521 306.637C204.079 306.828 203.683 307.108 203.36 307.457C203.036 307.807 202.792 308.218 202.644 308.665C202.496 309.111 202.447 309.583 202.5 310.05C202.447 310.516 202.496 310.988 202.644 311.435C202.792 311.881 203.036 312.293 203.36 312.642C203.683 312.991 204.079 313.271 204.521 313.462C204.964 313.654 205.443 313.752 205.927 313.752C206.412 313.752 206.891 313.654 207.333 313.462C207.776 313.271 208.171 312.991 208.495 312.642C208.818 312.293 209.062 311.881 209.21 311.435C209.358 310.988 209.408 310.516 209.355 310.05ZM233.574 307.227C233.574 308.113 233.938 308.962 234.584 309.588C235.231 310.215 236.108 310.566 237.023 310.566C237.937 310.566 238.814 310.215 239.461 309.588C240.107 308.962 240.471 308.113 240.471 307.227C240.471 306.342 240.107 305.493 239.461 304.866C238.814 304.24 237.937 303.888 237.023 303.888C236.108 303.888 235.231 304.24 234.584 304.866C233.938 305.493 233.574 306.342 233.574 307.227ZM393.464 299.436C392.609 299.527 391.819 299.919 391.245 300.539C390.67 301.159 390.353 301.963 390.353 302.795C390.353 303.628 390.67 304.431 391.245 305.051C391.819 305.671 392.609 306.064 393.464 306.154C394.319 306.064 395.109 305.671 395.684 305.051C396.258 304.431 396.575 303.628 396.575 302.795C396.575 301.963 396.258 301.159 395.684 300.539C395.109 299.919 394.319 299.527 393.464 299.436ZM433.57 209.363C434.026 209.374 434.479 209.295 434.903 209.131C435.326 208.967 435.711 208.721 436.033 208.409C436.356 208.097 436.609 207.724 436.779 207.314C436.948 206.904 437.029 206.465 437.018 206.024C436.925 205.196 436.519 204.431 435.879 203.875C435.239 203.319 434.409 203.011 433.549 203.011C432.689 203.011 431.86 203.319 431.22 203.875C430.579 204.431 430.174 205.196 430.081 206.024C430.069 206.469 430.152 206.911 430.324 207.324C430.496 207.737 430.753 208.111 431.08 208.424C431.407 208.737 431.796 208.982 432.225 209.143C432.653 209.304 433.111 209.379 433.57 209.363ZM212.31 119.846C213.05 119.762 213.732 119.418 214.227 118.88C214.722 118.341 214.996 117.645 214.996 116.924C214.996 116.203 214.722 115.507 214.227 114.969C213.732 114.43 213.05 114.086 212.31 114.003C211.571 114.086 210.889 114.43 210.394 114.969C209.899 115.507 209.625 116.203 209.625 116.924C209.625 117.645 209.899 118.341 210.394 118.88C210.889 119.418 211.571 119.762 212.31 119.846ZM227.458 119.846C228.197 119.762 228.88 119.418 229.375 118.88C229.87 118.341 230.143 117.645 230.143 116.924C230.143 116.203 229.87 115.507 229.375 114.969C228.88 114.43 228.197 114.086 227.458 114.003C226.718 114.086 226.036 114.43 225.541 114.969C225.046 115.507 224.773 116.203 224.773 116.924C224.773 117.645 225.046 118.341 225.541 118.88C226.036 119.418 226.718 119.762 227.458 119.846ZM243.837 119.806C244.576 119.722 245.259 119.379 245.754 118.84C246.249 118.301 246.522 117.606 246.522 116.885C246.522 116.163 246.249 115.468 245.754 114.929C245.259 114.39 244.576 114.047 243.837 113.963C243.097 114.047 242.415 114.39 241.92 114.929C241.425 115.468 241.152 116.163 241.152 116.885C241.152 117.606 241.425 118.301 241.92 118.84C242.415 119.379 243.097 119.722 243.837 119.806ZM228.772 283.218C228.879 283.008 228.927 282.774 228.913 282.539C228.898 282.305 228.821 282.078 228.688 281.882C228.556 281.685 228.372 281.525 228.157 281.418C227.941 281.311 227.7 281.26 227.458 281.271C226.391 281.271 226.185 282.344 225.364 283.894C219.658 294.865 211.982 309.732 211.407 311.719C211.254 312.14 211.273 312.601 211.46 313.009C211.647 313.417 211.987 313.74 212.412 313.912C212.837 314.085 213.314 314.094 213.745 313.938C214.176 313.781 214.529 313.471 214.732 313.071C216.169 310.884 227.335 285.882 228.772 283.218ZM240.389 279.561C240.266 279.355 240.09 279.183 239.878 279.064C239.665 278.945 239.423 278.882 239.178 278.882C238.932 278.882 238.691 278.945 238.478 279.064C238.265 279.183 238.089 279.355 237.967 279.561C231.193 293.196 220.849 312.633 220.438 314.144C220.378 314.424 220.382 314.714 220.451 314.992C220.519 315.271 220.65 315.531 220.834 315.755C221.018 315.979 221.251 316.161 221.516 316.288C221.781 316.415 222.072 316.483 222.368 316.489C223.969 316.489 224.502 315.972 238.459 285.246C240.43 281.072 241.004 280.476 240.389 279.561ZM364.565 312.872C360.56 307.245 358.277 300.636 357.979 293.808C357.681 286.98 359.381 280.209 362.882 274.275C363.078 273.99 363.149 273.642 363.08 273.306C363.01 272.971 362.806 272.676 362.512 272.486C362.218 272.296 361.859 272.227 361.512 272.294C361.166 272.361 360.861 272.559 360.665 272.844C355.911 278.864 353.505 286.318 353.873 293.889C354.241 301.46 357.359 308.662 362.677 314.223C362.888 314.372 363.144 314.452 363.405 314.451C363.667 314.45 363.921 314.368 364.132 314.217C364.342 314.067 364.498 313.855 364.576 313.613C364.653 313.371 364.65 313.112 364.565 312.872Z" fill="white" fill-opacity="0.5"/>
<path d="M398.677 270.061C395.803 271.134 401.879 274.433 400.935 293.394C400.114 309.294 393.997 314.342 394.982 315.932C395.088 316.08 395.229 316.2 395.394 316.284C395.558 316.367 395.741 316.41 395.926 316.41C396.112 316.41 396.295 316.367 396.459 316.284C396.624 316.2 396.765 316.08 396.871 315.932C401.249 309.261 403.866 301.648 404.488 293.766C405.111 285.885 403.722 277.975 400.442 270.736C400.298 270.422 400.032 270.176 399.702 270.049C399.372 269.923 399.004 269.927 398.677 270.061ZM365.673 292.639C359.023 297.25 364.646 304.564 371.42 302.735V313.507C371.42 315.137 369.696 315.972 368.669 314.581C368.472 314.323 368.182 314.148 367.856 314.089C367.531 314.03 367.195 314.092 366.915 314.262C366.635 314.433 366.431 314.7 366.346 315.01C366.26 315.319 366.298 315.649 366.453 315.932C366.943 316.711 367.676 317.319 368.546 317.667C369.417 318.015 370.379 318.086 371.294 317.869C372.209 317.652 373.028 317.158 373.634 316.46C374.24 315.761 374.6 314.894 374.663 313.984C374.663 312.712 375.935 295.302 374.252 293.195C373.73 292.608 373.092 292.127 372.377 291.781C371.661 291.435 370.881 291.23 370.083 291.178C369.284 291.126 368.483 291.228 367.726 291.479C366.969 291.73 366.271 292.124 365.673 292.639ZM370.476 295.143C370.92 295.584 371.199 296.157 371.266 296.77C371.333 297.383 371.184 298 370.845 298.522C369.942 299.476 366.74 299.158 366.288 297.568C365.837 295.978 368.998 294.149 370.476 295.143ZM382.955 291.963C381.542 292.236 380.261 292.949 379.305 293.992C378.349 295.035 377.772 296.353 377.66 297.743C377.548 299.134 377.909 300.521 378.687 301.695C379.465 302.869 380.618 303.765 381.97 304.246C383.088 304.651 384.311 304.696 385.457 304.373C386.604 304.051 387.612 303.379 388.332 302.457C388.479 302.207 388.537 301.918 388.497 301.633C388.458 301.348 388.322 301.084 388.113 300.881C387.903 300.678 387.63 300.547 387.336 300.508C387.042 300.47 386.743 300.526 386.485 300.668C385.377 301.304 381.477 301.304 381.19 298.204C381.123 297.589 381.252 296.969 381.561 296.427C381.869 295.886 382.342 295.449 382.914 295.176C383.487 294.903 384.133 294.807 384.764 294.901C385.395 294.994 385.982 295.273 386.444 295.699C386.732 295.963 387.117 296.105 387.514 296.094C387.91 296.082 388.286 295.919 388.558 295.64C388.83 295.36 388.977 294.988 388.965 294.604C388.954 294.22 388.785 293.856 388.496 293.593C387.776 292.91 386.896 292.406 385.931 292.122C384.967 291.839 383.946 291.784 382.955 291.963ZM187.393 120.839C187.799 120.968 188.236 120.967 188.642 120.839C189.048 120.71 189.401 120.46 189.65 120.124C190.594 118.891 193.304 107.602 194.125 104.899C194.234 104.557 194.197 104.186 194.024 103.87C193.851 103.553 193.555 103.316 193.201 103.21C192.847 103.105 192.465 103.14 192.137 103.307C191.81 103.475 191.565 103.762 191.456 104.104C187.516 115.274 184.273 119.885 187.393 120.839ZM308.326 487.096C304.96 490.785 301.368 494.276 297.571 497.55C297.361 497.75 297.194 497.988 297.081 498.251C296.967 498.513 296.908 498.795 296.908 499.08C296.908 499.365 296.967 499.647 297.081 499.91C297.194 500.173 297.361 500.411 297.571 500.611C300.732 503.353 304.057 505.858 307.094 508.561C307.317 508.728 307.592 508.819 307.874 508.819C308.157 508.819 308.431 508.728 308.654 508.561C308.831 508.354 308.928 508.094 308.928 507.825C308.928 507.557 308.831 507.297 308.654 507.09C306.479 504.347 304.303 501.644 302.004 499.14C305.17 495.955 308.08 492.54 310.707 488.924C311.979 487.374 309.475 485.665 308.326 487.096ZM447.444 501.763C447.937 501.763 447.444 501.763 452.74 498.385C462.551 491.707 463.536 491.269 463.248 489.361C462.879 486.579 459.143 486.142 449.086 481.411C448.705 481.206 448.255 481.155 447.836 481.271C447.416 481.386 447.061 481.659 446.849 482.028C446.637 482.397 446.584 482.832 446.704 483.238C446.823 483.645 447.104 483.988 447.485 484.194C449.374 485.227 455.326 488.845 457.625 490.196C451.672 495.602 446.623 500.094 446.623 500.094C446.515 500.249 446.451 500.428 446.437 500.614C446.422 500.801 446.458 500.987 446.541 501.156C446.624 501.324 446.751 501.469 446.909 501.576C447.068 501.682 447.252 501.747 447.444 501.763ZM417.806 494.966C423.307 494.966 428.52 494.092 433.816 493.853C434.197 493.853 434.562 493.707 434.832 493.446C435.101 493.185 435.252 492.831 435.252 492.462C435.252 492.093 435.101 491.739 434.832 491.478C434.562 491.217 434.197 491.071 433.816 491.071C428.438 491.071 423.307 490.236 417.806 490.594C417.207 490.594 416.633 490.824 416.21 491.234C415.786 491.644 415.548 492.2 415.548 492.78C415.548 493.36 415.786 493.916 416.21 494.326C416.633 494.736 417.207 494.966 417.806 494.966ZM387.306 496.079C389.933 496.079 401.263 494.926 402.495 494.847C402.865 494.847 403.22 494.705 403.481 494.451C403.743 494.198 403.89 493.854 403.89 493.495C403.89 493.137 403.743 492.793 403.481 492.54C403.22 492.286 402.865 492.144 402.495 492.144C401.263 492.144 389.933 491.428 387.306 491.746C386.765 491.818 386.269 492.076 385.909 492.475C385.55 492.873 385.352 493.384 385.352 493.913C385.352 494.442 385.55 494.953 385.909 495.351C386.269 495.749 386.765 496.008 387.306 496.079ZM350.115 493.535C349.829 493.54 349.547 493.6 349.285 493.711C349.023 493.821 348.786 493.981 348.588 494.18C348.39 494.38 348.234 494.615 348.13 494.872C348.026 495.13 347.975 495.405 347.98 495.682C347.98 498.027 350.484 497.908 352.085 497.908C356.798 497.699 361.497 497.261 366.165 496.596C366.53 496.538 366.862 496.356 367.102 496.083C367.341 495.81 367.473 495.464 367.473 495.105C367.473 494.747 367.341 494.4 367.102 494.127C366.862 493.854 366.53 493.673 366.165 493.615C363.415 493.813 352.742 493.456 350.115 493.535ZM333.572 495.721C330.534 495.721 318.958 495.205 316.002 495.721C315.458 495.721 314.936 495.931 314.551 496.304C314.166 496.676 313.95 497.182 313.95 497.709C313.95 498.236 314.166 498.742 314.551 499.114C314.936 499.487 315.458 499.696 316.002 499.696C319.081 500.094 330.575 498.981 333.572 498.862C334.002 498.862 334.414 498.696 334.718 498.402C335.022 498.107 335.193 497.708 335.193 497.292C335.193 496.875 335.022 496.476 334.718 496.181C334.414 495.887 334.002 495.721 333.572 495.721ZM174.79 60.8167C173.838 59.6672 172.601 58.7705 171.193 58.2105C169.786 57.6506 168.255 57.4456 166.743 57.615C165.232 57.7843 163.79 58.3223 162.551 59.1787C161.313 60.0351 160.32 61.1817 159.664 62.5113C159.008 63.8409 158.712 65.3098 158.803 66.7806C158.893 68.2513 159.368 69.6758 160.182 70.9205C160.996 72.1652 162.123 73.1895 163.458 73.8973C164.792 74.6052 166.29 74.9735 167.812 74.9677C169.517 74.9935 171.194 74.5447 172.643 73.6747C174.093 72.8048 175.254 71.5502 175.989 70.06C176.724 68.5698 177.002 66.9067 176.789 65.2682C176.577 63.6297 175.883 62.0847 174.79 60.8167ZM172.532 68.7667C172.015 69.7013 171.209 70.4561 170.227 70.9254C169.245 71.3948 168.136 71.5553 167.055 71.3845C165.974 71.2137 164.976 70.7202 164.199 69.9729C163.422 69.2256 162.905 68.2619 162.721 67.2165C162.524 66.4666 162.504 65.6835 162.661 64.9248C162.818 64.1662 163.15 63.4515 163.63 62.8334C164.111 62.2153 164.729 61.7096 165.438 61.3537C166.148 60.9978 166.931 60.8007 167.73 60.777C168.661 60.853 169.558 61.1478 170.345 61.6357C171.132 62.1235 171.784 62.7898 172.245 63.5768C172.706 64.3638 172.962 65.2478 172.991 66.1521C173.019 67.0565 172.82 67.9539 172.409 68.7667H172.532ZM213.459 61.8105C212.276 60.3129 210.619 59.232 208.741 58.7332C206.863 58.2344 204.868 58.3451 203.061 59.0485C201.255 59.7519 199.736 61.0092 198.737 62.6279C197.739 64.2466 197.315 66.1376 197.532 68.0115C197.715 69.8889 198.512 71.6608 199.807 73.0696C201.101 74.4785 202.826 75.4508 204.73 75.8454C206.635 76.2399 208.619 76.036 210.396 75.2634C212.172 74.4908 213.648 73.1897 214.609 71.5492C215.328 69.9734 215.6 68.2405 215.398 66.5289C215.196 64.8173 214.527 63.1886 213.459 61.8105ZM203.607 62.6452C204.633 61.992 205.865 61.7134 207.083 61.859C208.302 62.0046 209.427 62.5651 210.257 63.4402C211.022 64.3126 211.514 65.3786 211.674 66.5124C211.834 67.6463 211.656 68.8008 211.16 69.84C210.636 70.7327 209.847 71.4525 208.896 71.906C207.944 72.3596 206.874 72.5261 205.824 72.384C204.735 72.2054 203.725 71.7181 202.923 70.9838C202.12 70.2494 201.56 69.301 201.314 68.2585C201.068 67.2159 201.146 66.1262 201.54 65.127C201.934 64.1278 202.625 63.2641 203.525 62.6452H203.607ZM252.005 62.844C251.054 61.6958 249.819 60.7998 248.413 60.2396C247.008 59.6795 245.479 59.4735 243.969 59.641C242.459 59.8085 241.017 60.3439 239.779 61.1972C238.541 62.0506 237.546 63.1939 236.888 64.5205C236.23 65.8471 235.93 67.3136 236.016 68.783C236.102 70.2523 236.572 71.6765 237.38 72.9225C238.189 74.1685 239.311 75.1955 240.641 75.9077C241.971 76.6199 243.466 76.994 244.986 76.995C246.694 77.0285 248.377 76.5854 249.833 75.7185C251.288 74.8516 252.456 73.5975 253.196 72.1058C253.936 70.614 254.217 68.9477 254.006 67.3055C253.795 65.6632 253.1 64.1145 252.005 62.844ZM249.706 70.794C249.219 71.5507 248.54 72.1736 247.733 72.6031C246.925 73.0325 246.018 73.254 245.097 73.2464C244.176 73.2389 243.273 73.0024 242.474 72.5598C241.674 72.1171 241.005 71.4831 240.532 70.7185C240.058 69.9538 239.795 69.0842 239.768 68.1929C239.741 67.3015 239.95 66.4184 240.377 65.628C240.803 64.8377 241.432 64.1666 242.203 63.6791C242.974 63.1916 243.862 62.9041 244.78 62.844C245.731 62.8762 246.659 63.1382 247.479 63.6061C248.298 64.074 248.984 64.733 249.474 65.5231C249.963 66.3132 250.241 67.2094 250.282 68.1299C250.322 69.0505 250.125 69.9663 249.706 70.794Z" fill="white" fill-opacity="0.5"/>
<path d="M602.081 129.068C603.251 126.752 603.791 124.185 603.647 121.61C603.503 119.036 602.681 116.54 601.26 114.36C597.935 109.59 591.244 109.749 585.866 109.868C569.241 110.266 178.978 98.6985 178.568 98.6588C176.188 98.1027 173.678 98.4437 171.548 99.6128C165.021 104.224 165.227 120.641 172.575 124.775C174.747 125.723 177.157 126.04 179.512 125.689L589.355 136.302C591.948 136.294 594.491 135.62 596.727 134.349C598.963 133.078 600.81 131.256 602.081 129.068ZM201.761 103.707C199.527 108.751 197.675 113.945 196.219 119.249C196.208 119.486 196.247 119.722 196.333 119.943C196.418 120.165 196.55 120.367 196.718 120.538C196.887 120.709 197.09 120.845 197.315 120.937C197.54 121.03 197.781 121.078 198.026 121.078C199.873 121.078 200.201 119.448 202.993 109.67C204.512 104.184 204.922 104.025 204.183 103.27C263.008 105.059 589.15 113.843 589.807 113.883C594.856 113.883 597.606 115.394 598.715 118.216C599.551 120.119 599.783 122.221 599.381 124.253C598.979 126.285 597.961 128.155 596.457 129.624C594.643 130.855 592.597 131.728 590.434 132.192C588.271 132.656 586.035 132.702 583.855 132.327C559.922 131.532 175.694 122.032 175.284 121.952C169.906 120.68 169.455 108.398 172.739 103.588C173.929 101.879 175.735 101.958 178.568 102.316C205.25 103.588 202.131 102.674 201.761 103.707ZM336.898 340.021C336.898 336.046 340.346 337.795 189.118 341.73C188.25 341.67 187.38 341.812 186.58 342.144C185.78 342.476 185.074 342.988 184.52 343.638C182.96 345.904 185.67 467.698 185.752 468.851C185.773 469.353 185.994 469.828 186.369 470.177C186.744 470.525 187.244 470.719 187.763 470.719C187.763 470.719 203.896 470.162 218.017 469.765C341.947 466.307 340.346 464.597 340.223 462.968C339.894 459.907 336.939 342.128 336.898 340.021ZM187.927 346.381C187.927 346.103 188.707 345.864 189.118 345.824C194.577 345.824 327.949 341.849 332.793 341.849C333.162 353.774 336.61 455.216 336.898 461.378C315.798 462.689 205.168 466.466 189.816 466.784C187.394 434.308 187.681 348.766 187.927 346.381Z" fill="white" fill-opacity="0.5"/>
<path d="M194.947 456.488C198.148 454.223 258.287 405.251 260.298 403.661C276.184 415.943 320.847 450.486 330.37 457.959C331.848 459.112 333.737 457.045 332.3 455.852C315.305 442.178 272.121 408.152 263.377 401.156C267.482 398.056 319.082 356.239 325.65 351.111C327.045 349.958 325.239 347.971 323.802 349.044C306.849 362.241 266.825 393.524 260.175 398.732C247.449 388.993 206.358 358.346 196.465 351.429C196.191 351.275 195.868 351.221 195.556 351.28C195.244 351.338 194.965 351.504 194.769 351.746C194.574 351.989 194.476 352.292 194.493 352.599C194.511 352.906 194.643 353.196 194.864 353.417C208.945 364.547 256.029 400.401 257.096 401.117C243.632 411.968 197.245 449.771 192.894 454.024C192.557 454.287 192.341 454.67 192.295 455.087C192.249 455.505 192.376 455.923 192.648 456.25C192.92 456.577 193.315 456.785 193.746 456.83C194.177 456.875 194.609 456.752 194.947 456.488ZM489.111 442.536C475.523 431.724 447.281 407.954 441.903 403.422C453.931 393.167 491.163 359.697 498.634 353.099C498.912 352.846 499.074 352.496 499.086 352.127C499.098 351.758 498.957 351.4 498.696 351.131C498.435 350.862 498.074 350.705 497.693 350.694C497.312 350.682 496.942 350.818 496.664 351.071C491.122 356.04 440.59 399.447 438.948 400.878C432.298 395.273 379.959 350.475 377.906 348.806C377.65 348.613 377.328 348.519 377.004 348.542C376.68 348.566 376.377 348.704 376.152 348.932C375.928 349.159 375.798 349.459 375.789 349.773C375.779 350.088 375.89 350.394 376.1 350.634C379.507 354.013 426.674 396.029 435.664 403.7C430.861 407.675 383.284 448.419 378.194 452.792C378.004 452.937 377.868 453.138 377.807 453.365C377.746 453.591 377.764 453.831 377.857 454.047C377.95 454.263 378.113 454.444 378.322 454.562C378.532 454.68 378.775 454.728 379.015 454.7C380.944 454.7 434.72 409.385 438.496 406.205C447.486 413.558 479.095 438.482 487.058 444.643C488.7 445.756 490.589 443.729 489.111 442.536ZM84.3168 636.794C84.3168 636.794 196.096 630.593 198.107 630.434C198.428 630.412 198.738 630.317 199.014 630.157C199.29 629.997 199.523 629.777 199.694 629.514C199.866 629.251 199.972 628.953 200.003 628.643C200.034 628.334 199.989 628.021 199.872 627.731C200.078 601.496 202.91 552.206 201.186 549.662C200.627 549 199.892 548.498 199.06 548.21C198.228 547.923 197.331 547.862 196.465 548.033L84.9325 553.359C84.4095 553.379 83.9143 553.592 83.548 553.954C83.1817 554.316 82.9721 554.8 82.9621 555.307C82.2642 570.929 80.8275 633.694 81.197 634.807C81.3872 635.444 81.806 635.994 82.378 636.358C82.9499 636.723 83.6375 636.877 84.3168 636.794ZM197.738 552.842C197.738 556.102 197.533 570.054 196.178 626.539C184.889 626.976 87.6418 632.581 85.343 632.7C85.343 624.313 86.7387 566.636 87.1081 557.175L196.712 551.849C196.981 551.858 197.236 551.966 197.426 552.151C197.616 552.335 197.728 552.582 197.738 552.842ZM235.668 625.823C236.202 627.692 238.049 627.771 239.978 627.612C359.516 618.629 353.358 621.769 354.179 620.298C354.508 619.662 353.892 622.922 355.329 581.343C355.329 576.215 356.93 542.507 355.616 540.56C355.064 539.89 354.329 539.383 353.495 539.095C352.661 538.807 351.761 538.75 350.895 538.93C350.321 538.93 245.069 543.938 239.404 544.256C238.873 544.267 238.368 544.475 237.993 544.838C237.618 545.201 237.403 545.691 237.392 546.204C236.735 560.872 235.258 624.472 235.668 625.823ZM239.773 623.597C239.773 614.972 241.21 557.175 241.538 548.072L351.716 542.746C352.661 542.746 352.661 536.903 350.731 617.357C339.319 617.834 242.195 623.438 239.65 623.597H239.773ZM378.235 616.124C378.809 617.953 380.616 618.032 382.586 617.873C502.124 608.85 495.966 612.03 496.787 610.559C497.116 609.963 496.5 612.984 497.937 571.644C497.937 566.397 499.538 532.848 498.224 530.821C497.671 530.151 496.937 529.644 496.103 529.356C495.269 529.068 494.369 529.011 493.503 529.191L382.011 534.518C381.481 534.528 380.976 534.736 380.601 535.099C380.226 535.462 380.01 535.952 380 536.465C379.302 551.888 377.865 614.654 378.235 616.124ZM384.023 538.413L494.201 533.087C495.145 533.087 495.104 527.323 493.216 607.697C481.927 608.095 384.639 613.7 382.381 613.859C382.258 613.302 383.653 547.993 384.023 538.254V538.413Z" fill="white" fill-opacity="0.5"/>
<path d="M191.868 554.75C179.553 564.012 147.41 586.153 142.854 589.373C139.118 587.186 97.042 562.78 92.4855 560.037C92.1915 559.853 91.8339 559.789 91.4913 559.86C91.1488 559.93 90.8493 560.13 90.6587 560.415C90.4682 560.699 90.4023 561.046 90.4754 561.377C90.5485 561.709 90.7548 561.999 91.0487 562.184C97.1652 566.159 131.442 587.226 139.2 591.917C136.737 593.626 94.579 623.001 92.075 624.989C91.8592 625.155 91.7031 625.384 91.6288 625.641C91.5546 625.898 91.566 626.172 91.6615 626.423C91.7569 626.674 91.9315 626.889 92.1604 627.038C92.3894 627.187 92.6611 627.263 92.937 627.254C94.3327 627.254 142.197 595.097 143.305 594.302C152.952 599.747 187.557 618.39 191.375 620.338C191.62 620.49 191.914 620.549 192.202 620.505C192.489 620.461 192.75 620.317 192.935 620.099C193.056 619.827 193.081 619.524 193.007 619.237C192.933 618.95 192.763 618.694 192.524 618.509C177.254 609.764 161.819 600.701 146.877 591.917C155.785 585.517 193.51 557.016 193.51 557.016C193.82 556.805 194.031 556.484 194.096 556.122C194.162 555.761 194.076 555.389 193.858 555.088C193.641 554.788 193.309 554.583 192.935 554.52C192.562 554.457 192.178 554.54 191.868 554.75ZM348.391 544.574C345.189 546.761 295.888 579.912 292.153 582.496C283.245 576.573 254.264 557.016 247.737 552.127C246.341 551.093 244.658 553.2 246.012 554.234C257.055 562.661 282.342 580.826 288.458 585.08C279.304 591.678 248.517 612.269 242.646 617.913C242.5 618.05 242.399 618.225 242.356 618.418C242.312 618.61 242.329 618.811 242.404 618.994C242.479 619.177 242.608 619.335 242.776 619.447C242.943 619.558 243.141 619.62 243.344 619.622C243.919 619.622 246.916 617.993 291.906 587.385C301.964 593.825 334.475 612.587 341.782 616.363C342.008 616.455 342.259 616.466 342.493 616.394C342.726 616.322 342.924 616.172 343.053 615.97C343.182 615.769 343.232 615.529 343.195 615.295C343.157 615.061 343.035 614.848 342.849 614.693C336.774 610.718 298.639 586.868 295.642 584.801C303.031 579.753 346.872 548.589 349.828 546.522C350.095 546.338 350.275 546.058 350.329 545.745C350.383 545.432 350.306 545.111 350.115 544.853C349.925 544.594 349.636 544.42 349.313 544.368C348.989 544.316 348.658 544.39 348.391 544.574ZM440.589 571.048C450.77 577.646 481.639 598.515 488.29 603.444C488.427 603.556 488.586 603.641 488.757 603.694C488.929 603.747 489.109 603.766 489.288 603.752C489.467 603.737 489.642 603.688 489.801 603.608C489.961 603.528 490.103 603.418 490.219 603.285C490.335 603.152 490.422 602.998 490.477 602.832C490.531 602.666 490.552 602.492 490.536 602.318C490.521 602.145 490.471 601.976 490.388 601.821C490.305 601.666 490.192 601.529 490.055 601.417C484.759 597.442 452.124 573.83 444.448 568.583C448.553 566 486.36 540.758 490.876 537.857C491.032 537.763 491.168 537.64 491.275 537.495C491.382 537.35 491.459 537.187 491.501 537.013C491.543 536.84 491.549 536.66 491.519 536.484C491.49 536.308 491.424 536.14 491.327 535.988C491.23 535.837 491.103 535.706 490.954 535.602C490.804 535.498 490.635 535.423 490.456 535.383C490.277 535.342 490.091 535.336 489.91 535.365C489.728 535.394 489.554 535.457 489.398 535.551C485.703 537.896 442.601 564.33 440.138 565.88C431.641 560.713 403.193 544.574 395.558 541.156C395.264 541.019 394.926 541.001 394.618 541.105C394.31 541.21 394.057 541.428 393.916 541.712C393.013 543.382 393.218 542.189 436.279 568.345C424.252 576.295 387.019 601.854 383.243 604.716C383.037 604.924 382.902 605.188 382.858 605.473C382.814 605.758 382.862 606.049 382.996 606.306C383.172 606.556 383.439 606.733 383.744 606.799C384.049 606.865 384.369 606.817 384.638 606.664C389.072 604.199 440.589 571.048 440.589 571.048Z" fill="white" fill-opacity="0.5"/>
<path d="M800.475 686.283C795.959 685.29 771.74 682.11 645.019 664.023C642.343 660.38 640.265 656.357 638.861 652.098C638.328 640.173 635.167 602.331 634.14 594.938C632.088 580.23 627.942 565.523 628.27 550.378C632.663 549.464 637.014 548.47 641.201 547.357C641.558 547.247 641.87 547.03 642.092 546.737C642.313 546.444 642.433 546.09 642.432 545.727C642.487 530.865 641.362 516.021 639.066 501.327C645.963 493.933 645.716 480.021 645.47 468.692C645.47 458.357 645.84 451.122 645.799 381.242C658.401 371.662 655.527 350.396 654.009 339.584C657.662 337.119 657.826 337.119 657.867 336.523C657.552 332.647 656.724 328.826 655.404 325.155C654.534 323.227 653.263 321.495 651.669 320.066C653.064 318.079 653.311 317.92 653.023 317.284C650.684 312.633 648.918 309.334 646.62 305.796V270.936C653.988 271.721 661.411 270.022 667.637 266.126C667.863 266.01 668.035 265.817 668.122 265.585C668.208 265.352 668.202 265.097 668.105 264.869C668.007 264.64 667.826 264.455 667.595 264.35C667.364 264.244 667.101 264.225 666.857 264.297C661.274 265.609 657.252 264.973 654.871 262.35C649 255.99 653.762 239.215 656.102 233.253C661.603 218.386 668.417 217.869 670.059 207.177C670.992 199.471 669.225 191.685 665.042 185.068C660.858 178.45 654.501 173.386 646.989 170.686C646.989 170.368 648.097 110.067 648.138 108.199C648.549 91.0668 649.083 67.6143 629.297 59.863C624.832 58.4164 620.118 57.8355 615.422 58.1538C614.56 58.1538 180.825 44.7183 177.788 44.5195C169.593 43.6075 161.308 43.768 153.158 44.9965C132.633 49.2895 132.345 68.8465 132.222 81.5665C132.222 82.6398 132.468 193.622 132.633 299.238C118.799 298.92 63.6685 298.84 52.1335 299.238C42.4046 299.238 33.9073 299.913 28.4887 303.928C25.843 305.953 23.6966 308.524 22.2054 311.453C20.7143 314.382 19.9158 317.596 19.8682 320.862C19.8682 359.777 23.9732 593.268 21.7565 671.019C21.4691 681.116 26.1488 689.066 34.0715 691.411C29.1865 697.811 34.0715 705.085 41.05 708.106C95.1128 719.395 251.965 751.831 264.362 751.831C270.725 751.831 590.135 721.74 781.14 703.893C792.142 703.893 803.02 698.447 801.665 688.589C801.173 686.204 801.173 686.442 800.475 686.283ZM629.666 592.275C632.211 611.792 633.032 631.627 634.551 651.264C630.321 652.826 625.645 652.826 621.415 651.264C609.1 628.646 589.601 597.959 592.68 571.287C593.624 562.701 593.993 558.924 588.944 551.769C593.337 551.491 597.811 551.094 602.491 550.378C603.353 550.378 603.681 550.378 606.596 534.876C612.466 552.366 612.466 553.558 613.903 553.24L624.494 551.054C623.96 565.006 627.696 578.64 629.666 592.275ZM509.02 687.198C514.849 693.319 530.941 684.415 538.207 679.844C538.367 679.751 538.495 679.616 538.575 679.453C538.655 679.29 538.684 679.108 538.658 678.93C538.53 678.102 538.58 677.258 538.806 676.451C539.033 675.643 539.429 674.89 539.972 674.239C540.079 674.083 540.219 673.95 540.381 673.848C540.543 673.745 540.725 673.675 540.916 673.643C541.573 673.643 542.845 674.796 543.461 676.982C544.077 679.168 549.988 677.856 551.671 676.982C552.369 676.584 552.41 676.664 551.671 665.057C570.39 668.436 607.294 674.597 620.635 676.982C621.045 678.691 621.456 680.361 621.907 681.951C576.753 685.926 261.406 713.194 253.484 713.751C248.845 712.717 153.814 696.3 150.489 695.744C236.941 688.867 462.757 670.98 522.608 666.011C514.644 677.618 507.871 679.128 507.583 680.48C507.23 681.627 507.176 682.842 507.427 684.014C507.678 685.187 508.225 686.28 509.02 687.198ZM502.042 522.672C478.643 523.428 175.242 533.842 157.016 529.47C142.32 527.681 135.424 515.398 136.491 492.979C136.738 481.054 135.711 132.685 135.506 86.4955C202.253 89.437 600.972 100.209 644.157 100.567C644.157 107.921 643.459 144.292 643.007 169.374C629.297 165.956 612.343 168.937 614.806 181.975C614.849 182.191 614.964 182.386 615.134 182.532C616.686 183.706 617.981 185.167 618.942 186.832C619.904 188.496 620.513 190.329 620.735 192.224C620.957 194.119 620.786 196.037 620.233 197.868C619.68 199.698 618.756 201.403 617.515 202.884C616.53 203.997 619.28 208.846 617.967 225.859C616.201 248.715 628.311 265.609 642.145 269.783C642.145 274.95 641.94 294.189 641.94 298.721C627.531 276.978 619.937 273.201 595.964 258.136C594.732 257.341 594.691 259.448 599.125 243.111C601.962 242.229 604.559 240.743 606.726 238.762C608.893 236.781 610.573 234.355 611.645 231.663C612.551 222.408 612.551 213.092 611.645 203.838C612.74 200.298 612.994 196.565 612.39 192.917C611.786 189.269 610.339 185.8 608.156 182.77C604.407 176.637 598.764 171.798 592.023 168.937C578.928 163.611 566.777 168.937 556.022 173.508C543.707 179.113 544.446 182.492 545.965 195.45C545.982 196.484 546.247 197.499 546.739 198.416C547.23 199.334 547.935 200.128 548.797 200.737C545.924 210.078 541.778 227.29 544.898 236.512C546.093 239.82 547.962 242.862 550.395 245.457C552.828 248.052 555.775 250.146 559.06 251.617C558.773 252.81 558.157 255.036 557.705 256.705C555.694 256.188 551.999 255.314 549.824 254.837C535.99 248.596 523.429 241.481 509.225 242.912C508.127 243.062 507.084 243.472 506.188 244.104C504.109 242.169 501.672 240.632 499.004 239.573C496.787 235.598 459.924 178.358 459.473 177.682C457.625 174.86 456.065 172.395 457.42 169.533C458.775 166.671 462.387 161.583 461.977 157.37L495.638 157.171C496.726 157.171 497.77 156.752 498.54 156.007C499.31 155.261 499.743 154.25 499.743 153.196V142.225C499.743 141.171 499.31 140.16 498.54 139.414C497.77 138.669 496.726 138.25 495.638 138.25H373.555C372.466 138.25 371.422 138.669 370.652 139.414C369.882 140.16 369.45 141.171 369.45 142.225V155.025C369.45 156.079 369.882 157.09 370.652 157.835C371.422 158.581 372.466 159 373.555 159L419.9 158.562C424.413 166.119 431.143 172.206 439.235 176.052C440.959 176.927 440.795 177.046 444.12 194.099C449.539 221.566 455.121 249.987 472.855 272.685C472.527 273.48 472.28 274.275 471.993 275.07C471.908 275.334 471.89 275.615 471.939 275.888C471.988 276.161 472.104 276.419 472.276 276.64C472.449 276.861 472.673 277.04 472.931 277.161C473.188 277.282 473.472 277.341 473.758 277.335C475.115 277.298 476.465 277.541 477.718 278.048C478.971 278.555 480.098 279.315 481.024 280.277C480.326 288.028 481.886 292.202 491.368 299.079C493.749 300.788 509.8 309.255 514.028 311.401C512.14 318.635 510.539 326.029 509.02 333.462C465.959 334.854 371.749 335.688 369.45 337.437C368.765 337.962 368.215 338.633 367.845 339.399C367.474 340.165 367.293 341.004 367.315 341.85C366.659 357.75 365.263 448.539 365.386 452.712C365.386 460.662 366.741 465.512 375.484 464.637C381.847 464.637 460.499 462.69 492.764 461.895C492.272 467.142 492.107 467.221 492.764 467.658C496.455 470.372 500.629 472.407 505.079 473.661C502.159 489.834 501.126 506.275 502 522.672H502.042ZM574.7 281.43C564.889 282.543 549.331 281.032 546.54 272.287C545.472 268.312 549.372 261.197 551.466 258.732L558.608 260.362C559.043 260.459 559.5 260.389 559.883 260.167C560.266 259.944 560.545 259.587 560.661 259.17C561.195 256.944 561.851 254.559 562.303 252.81C563.904 253.326 565.628 253.962 565.997 252.492C566.041 252.335 566.052 252.172 566.03 252.011C566.008 251.85 565.953 251.695 565.87 251.555C565.786 251.414 565.674 251.292 565.541 251.193C565.408 251.095 565.256 251.023 565.094 250.981C552.779 247.682 546.088 235.956 548.674 222.321C549.964 213.333 551.801 204.427 554.175 195.649C557.748 199.531 562.534 202.175 567.803 203.18C573.072 204.185 578.535 203.494 583.362 201.214C582.339 208.492 582.93 215.898 585.096 222.937C587.262 229.977 590.953 236.488 595.923 242.037C591.12 257.937 590.956 257.937 592.187 259.686C593.419 261.435 597.565 263.105 602.286 266.603C595.231 274.596 585.437 279.86 574.7 281.43ZM574.7 288.585C572.565 288.585 574.7 284.808 576.465 284.808C578.23 284.808 576.096 288.465 574.7 288.585ZM562.098 287.591C562.098 289.658 557.993 291.208 556.515 290.175C555.037 289.141 557.295 286.716 559.511 286.2C560.039 286.064 560.601 286.134 561.076 286.394C561.552 286.654 561.903 287.083 562.057 287.591H562.098ZM548.305 283.974C548.137 284.116 547.936 284.218 547.719 284.269C547.502 284.321 547.275 284.322 547.058 284.271C546.841 284.22 546.64 284.12 546.471 283.978C546.302 283.837 546.171 283.658 546.088 283.457C545.637 281.35 548.88 280.197 549.536 281.032C550.193 281.867 549.701 282.821 548.264 283.974H548.305ZM609.182 344.791C609.448 344.897 609.673 345.08 609.827 345.315C609.982 345.55 610.057 345.825 610.044 346.103C609.969 346.371 609.811 346.61 609.59 346.788C609.37 346.966 609.098 347.073 608.812 347.097C596.497 346.023 587.261 338.272 584.716 323.525C584.651 323.193 584.724 322.849 584.921 322.57C585.117 322.29 585.42 322.097 585.763 322.034C586.106 321.971 586.461 322.042 586.749 322.232C587.038 322.422 587.237 322.716 587.302 323.048C588.632 328.218 591.354 332.955 595.19 336.774C599.027 340.594 603.84 343.36 609.141 344.791H609.182ZM448.266 158.324C448.512 159.318 445.598 159.675 443.053 166.473C442.988 166.785 443.043 167.11 443.207 167.386C443.371 167.663 443.634 167.871 443.946 167.974C444.258 168.076 444.598 168.065 444.902 167.942C445.206 167.819 445.453 167.594 445.598 167.307C447.773 161.583 452.864 162.657 451.878 158.006C449.949 148.983 452.248 144.332 455.45 145.246C456.065 145.246 455.737 153.196 457.749 155.223C461.32 159.198 454.834 165.161 453.643 169.573C453.315 171.012 453.329 172.504 453.684 173.936C454.04 175.369 454.728 176.704 455.696 177.841C456.476 178.994 493.298 236.592 495.761 240.328C487.085 248.591 479.812 258.129 474.21 268.59C454.341 241.441 450.442 207.296 443.75 176.132C442.921 174.445 441.45 173.135 439.645 172.475C433.274 169.275 427.913 164.468 424.129 158.562L448.266 158.324ZM496.007 245.019C497.854 243.031 498.06 242.634 498.757 242.793C500.438 243.612 502.009 244.627 503.437 245.814C498.593 249.51 485.334 264.417 481.845 275.825C480.096 274.674 478.078 273.964 475.975 273.758C479.751 262.707 488.043 253.724 496.007 245.019ZM493.134 458.397C459.883 458.953 376.223 461.219 370.969 460.464C369.45 459.152 369.532 456.25 369.573 453.905C369.573 453.468 370.723 348.09 371.338 341.333C371.338 339.981 361.158 340.578 508.117 337.08C500.81 375.438 497.198 417.096 493.134 458.397ZM508.24 474.615C512.691 475.406 517.254 475.406 521.704 474.615C521.921 474.583 522.122 474.485 522.277 474.335C522.432 474.184 522.534 473.99 522.566 473.78C531.023 429.26 523.141 426.08 530.776 345.268C534.881 299.993 541.039 285.047 539.807 283.576C533.157 275.626 537.262 267 545.719 261.157C541.614 268.312 542.763 274.116 546.047 277.733C545.022 278.102 544.146 278.78 543.55 279.669C542.955 280.557 542.67 281.608 542.739 282.665C542.808 283.722 543.227 284.729 543.934 285.538C544.641 286.346 545.598 286.913 546.663 287.154C548.149 287.247 549.616 286.789 550.767 285.874C551.918 284.959 552.667 283.654 552.861 282.225C554.133 282.726 555.435 283.151 556.761 283.497C551.219 286.677 551.384 293.673 557.869 293.673C559.707 293.789 561.521 293.226 562.946 292.097C564.371 290.968 565.3 289.358 565.546 287.591C565.546 283.338 560.948 285.047 571.17 284.808C567.27 292.48 577.984 294.309 580.16 286.875C580.539 285.847 580.539 284.724 580.16 283.695C599.125 279.72 588.739 272.526 580.16 303.809C573.386 328.215 576.055 357.312 579.626 377.625C574.9 381.225 570.505 385.215 566.49 389.55C561.81 380.049 559.799 375.756 558.773 373.888C557.746 372.02 557.705 372.457 557.131 372.616C554.955 373.332 549.126 375.558 543.543 377.823C545.883 353.536 547.238 338.63 551.753 303.054C551.78 302.744 551.686 302.437 551.489 302.192C551.292 301.947 551.007 301.783 550.691 301.733C550.375 301.683 550.051 301.75 549.783 301.921C549.516 302.092 549.325 302.355 549.249 302.656C545.678 323.883 541.449 351.35 539.684 379.453C535.579 381.123 533.445 381.957 532.377 382.554C531.31 383.15 531.392 383.428 531.597 383.945C532.501 386.052 535.128 391.895 538.371 399.09C534.266 429.737 524.25 522.792 523.264 536.267C516.835 532.96 510.886 528.843 505.572 524.024C504.525 507.509 505.421 490.933 508.24 474.615ZM575.069 407.755C577.368 405.847 580.981 402.508 583.279 400.322C589.15 450.129 593.214 426.04 588.575 509.754C587.631 526.687 586.81 541.554 587.343 548.112C577.753 548.732 568.121 548.372 558.608 547.039C559.101 536.903 563.699 446.75 564.52 437.25C570.725 434.871 576.736 432.041 582.499 428.783C583.32 428.067 583.115 428.942 575.069 407.755ZM618.5 654.205V660.287C587.959 655.914 562.426 652.337 550.85 650.508C550.645 648.123 550.481 646.176 550.357 644.983C558.239 619.662 569.897 586.034 559.224 561.508C557.787 558.169 556.638 561.15 561.728 551.292C569.454 552.132 577.235 552.397 585.003 552.087C592.269 561.747 589.314 563.217 588.657 571.962C586.358 601.338 603.64 627.811 618.5 654.205ZM618.747 664.421C618.993 667.362 619.444 670.423 619.978 673.444L551.548 661.797C551.548 659.253 551.26 656.709 551.096 654.324C564.766 656.55 589.724 660.247 618.747 664.421ZM554.586 546.403C544.96 544.828 535.607 541.965 526.795 537.897C527.205 534.24 538.781 425.881 541.08 405.33C552.369 430.174 555.448 437.13 556.556 438.879C557.09 439.714 557.172 439.515 557.459 439.515C558.566 439.322 559.651 439.029 560.702 438.641C558.034 467.579 554.791 535.869 554.586 546.403ZM557.828 550.656C553.436 558.129 553.026 558.606 555.078 562.025C559.183 568.902 559.429 581.622 559.183 589.532C558.485 604.12 547.361 640.134 546.252 643.671C544.541 645.136 542.425 646.085 540.165 646.403C537.905 646.72 535.598 646.393 533.527 645.46C532.665 645.142 532.952 646.056 532.46 639.736C530.859 618.748 526.671 564.45 524.249 540.997C534.886 545.81 546.203 549.066 557.828 550.656ZM614.601 484.314C616.489 499.975 622.605 540.52 623.673 547.437L615.134 549.504C613.78 545.529 609.428 530.662 607.745 527.204C607.563 526.881 607.284 526.619 606.945 526.452C606.606 526.285 606.223 526.221 605.846 526.268C605.469 526.315 605.116 526.472 604.832 526.717C604.548 526.962 604.348 527.284 604.256 527.641C603.024 534.081 601.834 540.56 600.644 546.999C597.154 547.317 593.994 547.556 591.079 547.755C591.079 527.641 591.818 507.09 593.049 486.699C599.905 486.182 611.029 484.95 614.601 484.314ZM599.043 427.67C599.019 427.412 599.101 427.156 599.269 426.956C599.438 426.755 599.681 426.627 599.946 426.597C628.681 423.258 627.531 422.979 627.942 424.092C628.852 427.027 629.159 430.106 628.845 433.155C628.845 434.229 630.035 433.593 601.095 437.13C599.658 437.488 599.905 436.137 599.043 427.67ZM627.449 546.522C622.359 520.566 621.086 510.509 617.72 483.797C622.317 483.407 626.883 482.73 631.39 481.77C636.29 502.207 638.782 523.117 638.82 544.098C634.879 544.853 630.939 545.727 627.449 546.522ZM641.817 428.823C641.406 483.081 642.843 486.977 638.122 496.119C637.178 490.793 636.111 485.427 634.879 480.219C636.173 479.332 637.334 478.275 638.327 477.079C639.518 475.688 635.126 425.404 628.024 389.033C631.472 387.761 638.327 385.058 642.022 383.229C642.063 398.374 641.94 413.837 641.817 428.823ZM649.739 368.562C648.824 372.378 646.485 375.733 643.171 377.982C625.643 388.953 583.895 394.359 583.485 394.399C583.289 394.436 583.107 394.521 582.956 394.646C582.805 394.772 582.69 394.933 582.623 395.115C579.784 398.97 576.461 402.468 572.73 405.529C570.549 407.973 567.705 409.777 564.52 410.736C562.016 411.094 555.94 408.153 562.672 407.556C564.461 407.612 566.221 407.114 567.698 406.134C569.174 405.155 570.29 403.746 570.882 402.111C570.977 401.855 570.975 401.575 570.878 401.321C570.78 401.066 570.593 400.853 570.349 400.719C567.968 399.646 569.938 405.092 558.567 404.694C555.817 404.694 552.287 401.276 556.802 401.594C564.109 402.15 569.117 397.301 567.311 395.989C567.12 395.837 566.881 395.754 566.634 395.754C566.387 395.754 566.147 395.837 565.956 395.989C562.795 399.249 558.075 398.454 553.313 397.897C550.973 397.619 549.208 395.194 552.287 394.717C556.392 394.081 566.449 394.121 567.598 393.008C579.913 379.771 597.647 370.986 612.097 363.951C625.435 357.602 638.216 350.21 650.314 341.85C651.787 350.714 651.592 359.764 649.739 368.562ZM648.795 323.485C651.064 326.784 652.291 330.652 652.326 334.615C641.516 342.439 630.234 349.634 618.541 356.16C618.213 353.894 617.638 349.72 617.556 348.21C633.114 339.663 644.116 330.879 648.795 323.485ZM155.333 47.9778C290.264 50.9988 612.097 61.3735 612.097 61.3735C617.967 61.3735 620.922 61.6518 622.359 61.5723H622.728C634.181 63.1225 640.708 73.4973 642.843 81.8448C643.896 86.8655 644.337 91.9885 644.157 97.1088C573.017 95.956 331.273 90.6295 135.465 82.4808C135.465 64.9113 137.189 50.323 155.333 47.9778ZM135.465 516.75C125.038 516.75 92.2393 516.75 81.8126 517.227C81.8126 504.825 81.0737 419.124 80.9506 406.682C88.709 406.96 124.34 406.086 132.509 405.887C132.591 505.977 131.36 506.136 135.465 516.75ZM132.427 369.675C121.056 369.675 86.4923 369.674 78.6518 370.032C78.8981 365.501 79.0623 354.132 79.1854 348.687C86.8207 348.687 120.728 347.772 132.55 347.136C132.386 354.49 132.386 362.043 132.386 369.396L132.427 369.675ZM132.427 343.559C126.762 343.559 79.9243 344.95 77.5434 345.149C75.1625 345.348 75.6141 347.494 75.4909 351.469C75.0394 364.626 74.9162 369.953 75.1625 372.139C75.3678 373.61 75.6962 373.65 76.2709 373.689C81.6074 374.047 127.05 373.332 132.468 373.252V402.309C75.9425 402.945 77.5024 402.866 77.5024 405.052C77.5024 406.086 77.5024 510.827 77.9539 519.93C77.9539 521.798 82.7978 521.321 137.353 520.884C143.88 532.809 154.348 533.763 168.264 534.717C182.18 535.671 488.782 527.005 502.945 526.528C507.969 531.936 514.016 536.361 520.76 539.566C522.772 561.945 525.686 603.166 527.492 629.481C501.672 631.15 71.8375 661.956 56.5669 663.03C56.5669 653.132 54.7196 325.393 54.7196 325.393C61.4518 325.393 124.505 324.399 132.345 324.161V343.281L132.427 343.559ZM36.945 688.191C32.2242 683.461 34.2357 697.851 34.2357 318.516C34.2357 306.591 42.4457 303.491 52.0103 302.974C64.3253 302.298 86.9028 303.491 132.345 302.219V320.226C122.904 320.226 52.7903 321.339 52.7903 321.339C52.5193 321.347 52.2528 321.408 52.0062 321.517C51.7596 321.626 51.5377 321.782 51.3535 321.975C50.5325 322.849 52.6671 665.256 52.8313 665.653C52.9114 665.831 53.0435 665.982 53.2113 666.088C53.3791 666.194 53.5752 666.25 53.7755 666.249C53.7755 666.249 486.155 635.96 527.739 632.661C527.739 635.205 528.888 649.554 529.052 651.502C473.553 655.875 41.05 687.675 36.945 688.191ZM262.063 733.944L46.838 690.696C125.572 685.727 466.369 660.446 528.108 655.278C527.398 657.515 526.477 659.684 525.358 661.758C486.319 664.659 136.286 693.12 136.286 693.12C133.7 693.359 133.905 697.095 136.286 697.095L253.114 717.686C253.443 717.686 261.94 717.01 623.303 685.886C623.303 686.403 623.549 686.76 623.96 687.039C627.572 689.225 633.319 687.038 633.319 685.409C633.222 683.304 633.472 681.197 634.058 679.168C634.058 679.168 635.249 679.685 637.424 685.926C637.466 686.061 637.54 686.186 637.639 686.289C637.739 686.393 637.862 686.472 637.999 686.522C645.555 689.134 653.328 691.116 661.233 692.445C662.724 692.467 664.197 692.139 665.527 691.488C666.857 690.838 668.004 689.883 668.869 688.708C669.371 687.58 669.519 686.333 669.292 685.123C669.066 683.914 668.476 682.797 667.596 681.911C660.211 679.058 653.658 674.5 648.508 668.634C703.884 676.584 764.269 684.534 787.052 687.754L262.063 733.944Z" fill="white" fill-opacity="0.5"/>
</svg>
